  0
SECTION
  2
HEADER
  9
$ACADVER
  1
AC1014
  9
$HANDSEED
  5
FFFF
  9
$MEASUREMENT
 70
     1
  0
ENDSEC
  0
SECTION
  2
TABLES
  0
TABLE
  2
VPORT
  5
8
330
0
100
AcDbSymbolTable
 70
     4
  0
VPORT
  5
2E
330
8
100
AcDbSymbolTableRecord
100
AcDbViewportTableRecord
  2
*ACTIVE
 70
     0
 10
0.0
 20
0.0
 11
1.0
 21
1.0
 12
210.0
 22
148.5
 13
0.0
 23
0.0
 14
10.0
 24
10.0
 15
10.0
 25
10.0
 16
0.0
 26
0.0
 36
1.0
 17
0.0
 27
0.0
 37
0.0
 40
341.0
 41
1.24
 42
50.0
 43
0.0
 44
0.0
 50
0.0
 51
0.0
 71
     0
 72
   100
 73
     1
 74
     3
 75
     0
 76
     0
 77
     0
 78
     0
  0
ENDTAB
  0
TABLE
  2
LTYPE
  5
5
330
0
100
AcDbSymbolTable
 70
     1
  0
LTYPE
  5
14
330
5
100
AcDbSymbolTableRecord
100
AcDbLinetypeTableRecord
  2
BYBLOCK
 70
     0
  3

 72
    65
 73
     0
 40
0.0
  0
LTYPE
  5
15
330
5
100
AcDbSymbolTableRecord
100
AcDbLinetypeTableRecord
  2
BYLAYER
 70
     0
  3

 72
    65
 73
     0
 40
0.0
  0
LTYPE
  5
16
330
5
100
AcDbSymbolTableRecord
100
AcDbLinetypeTableRecord
  2
CONTINUOUS
 70
     0
  3
Solid line
 72
    65
 73
     0
 40
0.0
  0
ENDTAB
  0
TABLE
  2
LAYER
  5
2
100
AcDbSymbolTable
 70
2
  0
LAYER
  5
50
100
AcDbSymbolTableRecord
100
AcDbLayerTableRecord
  2
0
 70
0
  6
CONTINUOUS
  0
LAYER
  5
51
100
AcDbSymbolTableRecord
100
AcDbLayerTableRecord
  2
Calque_1
 70
0
  6
CONTINUOUS
  0
ENDTAB
  0
TABLE
  2
STYLE
  5
3
330
0
100
AcDbSymbolTable
 70
     1
  0
STYLE
  5
11
330
3
100
AcDbSymbolTableRecord
100
AcDbTextStyleTableRecord
  2
STANDARD
 70
     0
 40
0.0
 41
1.0
 50
0.0
 71
     0
 42
2.5
  3
txt
  4

  0
ENDTAB
  0
TABLE
  2
VIEW
  5
6
330
0
100
AcDbSymbolTable
 70
     0
  0
ENDTAB
  0
TABLE
  2
UCS
  5
7
330
0
100
AcDbSymbolTable
 70
     0
  0
ENDTAB
  0
TABLE
  2
APPID
  5
9
330
0
100
AcDbSymbolTable
 70
     2
  0
APPID
  5
12
330
9
100
AcDbSymbolTableRecord
100
AcDbRegAppTableRecord
  2
ACAD
 70
     0
  0
ENDTAB
  0
TABLE
  2
DIMSTYLE
  5
A
330
0
100
AcDbSymbolTable
 70
     1
  0
DIMSTYLE
105
27
330
A
100
AcDbSymbolTableRecord
100
AcDbDimStyleTableRecord
  2
ISO-25
 70
     0
  3

  4

  5

  6

  7

 40
1.0
 41
2.5
 42
0.625
 43
3.75
 44
1.25
 45
0.0
 46
0.0
 47
0.0
 48
0.0
140
2.5
141
2.5
142
0.0
143
0.03937007874016
144
1.0
145
0.0
146
1.0
147
0.625
 71
     0
 72
     0
 73
     0
 74
     0
 75
     0
 76
     0
 77
     1
 78
     8
170
     0
171
     3
172
     1
173
     0
174
     0
175
     0
176
     0
177
     0
178
     0
270
     2
271
     2
272
     2
273
     2
274
     3
340
11
275
     0
280
     0
281
     0
282
     0
283
     0
284
     8
285
     0
286
     0
287
     3
288
     0
  0
ENDTAB
  0
TABLE
  2
BLOCK_RECORD
  5
1
330
0
100
AcDbSymbolTable
 70
     1
  0
BLOCK_RECORD
  5
1F
330
1
100
AcDbSymbolTableRecord
100
AcDbBlockTableRecord
  2
*MODEL_SPACE
  0
BLOCK_RECORD
  5
1B
330
1
100
AcDbSymbolTableRecord
100
AcDbBlockTableRecord
  2
*PAPER_SPACE
  0
ENDTAB
  0
ENDSEC
  0
SECTION
  2
BLOCKS
  0
BLOCK
  5
20
330
1F
100
AcDbEntity
  8
0
100
AcDbBlockBegin
  2
*MODEL_SPACE
 70
     0
 10
0.0
 20
0.0
 30
0.0
  3
*MODEL_SPACE
  1

  0
ENDBLK
  5
21
330
1F
100
AcDbEntity
  8
0
100
AcDbBlockEnd
  0
BLOCK
  5
1C
330
1B
100
AcDbEntity
 67
     1
  8
0
100
AcDbBlockBegin
  2
*PAPER_SPACE
  1

  0
ENDBLK
  5
1D
330
1B
100
AcDbEntity
 67
     1
  8
0
100
AcDbBlockEnd
  0
ENDSEC
  0
SECTION
  2
ENTITIES
  0
LINE
  5
100
100
AcDbEntity
  8
Calque_1
 62
7
100
AcDbLine
 10
7.982674
 20
9.743380
 30
0.0
 11
5.347270
 21
9.743170
 31
0.0
  0
SPLINE
  5
101
100
AcDbEntity
  8
Calque_1
 62
7
100
AcDbSpline
 70
8
 71
3
 72
8
 73
4
 74
0
 40
0
 40
0
 40
0
 40
0
 40
1
 40
1
 40
1
 40
1
 10
5.347270
 20
9.743170
 30
0.0
 10
2.801653
 20
9.742960
 30
0.0
 10
2.705482
 20
9.739170
 30
0.0
 10
2.528255
 20
9.631120
 30
0.0
  0
SPLINE
  5
102
100
AcDbEntity
  8
Calque_1
 62
7
100
AcDbSpline
 70
8
 71
3
 72
8
 73
4
 74
0
 40
0
 40
0
 40
0
 40
0
 40
1
 40
1
 40
1
 40
1
 10
2.528255
 20
9.631120
 30
0.0
 10
2.227197
 20
9.447570
 30
0.0
 10
2.185175
 20
9.264620
 30
0.0
 10
2.185175
 20
8.137770
 30
0.0
  0
LINE
  5
103
100
AcDbEntity
  8
Calque_1
 62
7
100
AcDbLine
 10
2.185175
 20
8.137770
 30
0.0
 11
2.185175
 21
7.138190
 31
0.0
  0
LINE
  5
104
100
AcDbEntity
  8
Calque_1
 62
7
100
AcDbLine
 10
2.185175
 20
7.138190
 30
0.0
 11
2.434609
 21
7.138190
 31
0.0
  0
LINE
  5
105
100
AcDbEntity
  8
Calque_1
 62
7
100
AcDbLine
 10
2.434609
 20
7.138190
 30
0.0
 11
2.684043
 21
7.138190
 31
0.0
  0
LINE
  5
106
100
AcDbEntity
  8
Calque_1
 62
7
100
AcDbLine
 10
2.684043
 20
7.138190
 30
0.0
 11
2.684043
 21
5.921980
 31
0.0
  0
LINE
  5
107
100
AcDbEntity
  8
Calque_1
 62
7
100
AcDbLine
 10
2.684043
 20
5.921980
 30
0.0
 11
2.684043
 21
4.705670
 31
0.0
  0
LINE
  5
108
100
AcDbEntity
  8
Calque_1
 62
7
100
AcDbLine
 10
2.684043
 20
4.705670
 30
0.0
 11
2.448466
 21
4.688570
 31
0.0
  0
LINE
  5
109
100
AcDbEntity
  8
Calque_1
 62
7
100
AcDbLine
 10
2.448466
 20
4.688570
 30
0.0
 11
2.212890
 21
4.671570
 31
0.0
  0
LINE
  5
10a
100
AcDbEntity
  8
Calque_1
 62
7
100
AcDbLine
 10
2.212890
 20
4.671570
 30
0.0
 11
2.198383
 21
2.634420
 31
0.0
  0
SPLINE
  5
10b
100
AcDbEntity
  8
Calque_1
 62
7
100
AcDbSpline
 70
8
 71
3
 72
8
 73
4
 74
0
 40
0
 40
0
 40
0
 40
0
 40
1
 40
1
 40
1
 40
1
 10
2.198383
 20
2.634420
 30
0.0
 10
2.182243
 20
0.373120
 30
0.0
 10
2.190963
 20
0.305670
 30
0.0
 10
2.528255
 20
0.100020
 30
0.0
  0
SPLINE
  5
10c
100
AcDbEntity
  8
Calque_1
 62
7
100
AcDbSpline
 70
8
 71
3
 72
8
 73
4
 74
0
 40
0
 40
0
 40
0
 40
0
 40
1
 40
1
 40
1
 40
1
 10
2.528255
 20
0.100020
 30
0.0
 10
2.706572
 20
-0.008700
 30
0.0
 10
2.799929
 20
-0.011810
 30
0.0
 10
5.843540
 20
-0.011810
 30
0.0
  0
SPLINE
  5
10d
100
AcDbEntity
  8
Calque_1
 62
7
100
AcDbSpline
 70
8
 71
3
 72
8
 73
4
 74
0
 40
0
 40
0
 40
0
 40
0
 40
1
 40
1
 40
1
 40
1
 10
5.843540
 20
-0.011810
 30
0.0
 10
8.887152
 20
-0.011810
 30
0.0
 10
8.980509
 20
-0.008810
 30
0.0
 10
9.158825
 20
0.100020
 30
0.0
  0
SPLINE
  5
10e
100
AcDbEntity
  8
Calque_1
 62
7
100
AcDbSpline
 70
8
 71
3
 72
8
 73
4
 74
0
 40
0
 40
0
 40
0
 40
0
 40
1
 40
1
 40
1
 40
1
 10
9.158825
 20
0.100020
 30
0.0
 10
9.501486
 20
0.308930
 30
0.0
 10
9.501905
 20
0.313210
 30
0.0
 10
9.501905
 20
3.284090
 30
0.0
  0
LINE
  5
10f
100
AcDbEntity
  8
Calque_1
 62
7
100
AcDbLine
 10
9.501905
 20
3.284090
 30
0.0
 11
9.501905
 21
5.974170
 31
0.0
  0
LINE
  5
110
100
AcDbEntity
  8
Calque_1
 62
7
100
AcDbLine
 10
9.501905
 20
5.974170
 30
0.0
 11
9.252471
 21
5.974170
 31
0.0
  0
LINE
  5
111
100
AcDbEntity
  8
Calque_1
 62
7
100
AcDbLine
 10
9.252471
 20
5.974170
 30
0.0
 11
9.003037
 21
5.974170
 31
0.0
  0
LINE
  5
112
100
AcDbEntity
  8
Calque_1
 62
7
100
AcDbLine
 10
9.003037
 20
5.974170
 30
0.0
 11
9.003037
 21
6.386750
 31
0.0
  0
LINE
  5
113
100
AcDbEntity
  8
Calque_1
 62
7
100
AcDbLine
 10
9.003037
 20
6.386750
 30
0.0
 11
9.003037
 21
6.799230
 31
0.0
  0
LINE
  5
114
100
AcDbEntity
  8
Calque_1
 62
7
100
AcDbLine
 10
9.003037
 20
6.799230
 30
0.0
 11
9.238613
 21
6.816330
 31
0.0
  0
LINE
  5
115
100
AcDbEntity
  8
Calque_1
 62
7
100
AcDbLine
 10
9.238613
 20
6.816330
 30
0.0
 11
9.474190
 21
6.833330
 31
0.0
  0
LINE
  5
116
100
AcDbEntity
  8
Calque_1
 62
7
100
AcDbLine
 10
9.474190
 20
6.833330
 30
0.0
 11
9.489780
 21
7.520030
 31
0.0
  0
LINE
  5
117
100
AcDbEntity
  8
Calque_1
 62
7
100
AcDbLine
 10
9.489780
 20
7.520030
 30
0.0
 11
9.505480
 21
8.206620
 31
0.0
  0
LINE
  5
118
100
AcDbEntity
  8
Calque_1
 62
7
100
AcDbLine
 10
9.505480
 20
8.206620
 30
0.0
 11
8.744078
 21
8.975060
 31
0.0
  0
LINE
  5
119
100
AcDbEntity
  8
Calque_1
 62
7
100
AcDbLine
 10
8.744078
 20
8.975060
 30
0.0
 11
7.982674
 21
9.743380
 31
0.0
  0
LINE
  5
11a
100
AcDbEntity
  8
Calque_1
 62
7
100
AcDbLine
 10
3.626349
 20
8.135920
 30
0.0
 11
3.820353
 21
8.135920
 31
0.0
  0
LINE
  5
11b
100
AcDbEntity
  8
Calque_1
 62
7
100
AcDbLine
 10
3.820353
 20
8.135920
 30
0.0
 11
4.014357
 21
8.135920
 31
0.0
  0
LINE
  5
11c
100
AcDbEntity
  8
Calque_1
 62
7
100
AcDbLine
 10
4.014357
 20
8.135920
 30
0.0
 11
4.014357
 21
7.304470
 31
0.0
  0
LINE
  5
11d
100
AcDbEntity
  8
Calque_1
 62
7
100
AcDbLine
 10
4.014357
 20
7.304470
 30
0.0
 11
4.014357
 21
6.473020
 31
0.0
  0
LINE
  5
11e
100
AcDbEntity
  8
Calque_1
 62
7
100
AcDbLine
 10
4.014357
 20
6.473020
 30
0.0
 11
3.820353
 21
6.473020
 31
0.0
  0
LINE
  5
11f
100
AcDbEntity
  8
Calque_1
 62
7
100
AcDbLine
 10
3.820353
 20
6.473020
 30
0.0
 11
3.626349
 21
6.473020
 31
0.0
  0
LINE
  5
120
100
AcDbEntity
  8
Calque_1
 62
7
100
AcDbLine
 10
3.626349
 20
6.473020
 30
0.0
 11
3.626349
 21
7.304470
 31
0.0
  0
LINE
  5
121
100
AcDbEntity
  8
Calque_1
 62
7
100
AcDbLine
 10
3.626349
 20
7.304470
 30
0.0
 11
3.626349
 21
8.135920
 31
0.0
  0
LINE
  5
122
100
AcDbEntity
  8
Calque_1
 62
7
100
AcDbLine
 10
4.402366
 20
8.135920
 30
0.0
 11
4.625601
 21
8.135920
 31
0.0
  0
LINE
  5
123
100
AcDbEntity
  8
Calque_1
 62
7
100
AcDbLine
 10
4.625601
 20
8.135920
 30
0.0
 11
4.848727
 21
8.135920
 31
0.0
  0
LINE
  5
124
100
AcDbEntity
  8
Calque_1
 62
7
100
AcDbLine
 10
4.848727
 20
8.135920
 30
0.0
 11
4.833463
 21
7.318330
 31
0.0
  0
LINE
  5
125
100
AcDbEntity
  8
Calque_1
 62
7
100
AcDbLine
 10
4.833463
 20
7.318330
 30
0.0
 11
4.818090
 21
6.500740
 31
0.0
  0
LINE
  5
126
100
AcDbEntity
  8
Calque_1
 62
7
100
AcDbLine
 10
4.818090
 20
6.500740
 30
0.0
 11
4.649852
 21
6.484340
 31
0.0
  0
SPLINE
  5
127
100
AcDbEntity
  8
Calque_1
 62
7
100
AcDbSpline
 70
8
 71
3
 72
8
 73
4
 74
0
 40
0
 40
0
 40
0
 40
0
 40
1
 40
1
 40
1
 40
1
 10
4.649852
 20
6.484340
 30
0.0
 10
4.557297
 20
6.475340
 30
0.0
 10
4.463759
 20
6.485340
 30
0.0
 10
4.441990
 20
6.507340
 30
0.0
  0
SPLINE
  5
128
100
AcDbEntity
  8
Calque_1
 62
7
100
AcDbSpline
 70
8
 71
3
 72
8
 73
4
 74
0
 40
0
 40
0
 40
0
 40
0
 40
1
 40
1
 40
1
 40
1
 10
4.441990
 20
6.507340
 30
0.0
 10
4.420222
 20
6.529140
 30
0.0
 10
4.402366
 20
6.904410
 30
0.0
 10
4.402366
 20
7.341390
 30
0.0
  0
LINE
  5
129
100
AcDbEntity
  8
Calque_1
 62
7
100
AcDbLine
 10
4.402366
 20
7.341390
 30
0.0
 11
4.402366
 21
8.135920
 31
0.0
  0
LINE
  5
12a
100
AcDbEntity
  8
Calque_1
 62
7
100
AcDbLine
 10
5.233813
 20
8.135920
 30
0.0
 11
5.457047
 21
8.135920
 31
0.0
  0
LINE
  5
12b
100
AcDbEntity
  8
Calque_1
 62
7
100
AcDbLine
 10
5.457047
 20
8.135920
 30
0.0
 11
5.680173
 21
8.135920
 31
0.0
  0
LINE
  5
12c
100
AcDbEntity
  8
Calque_1
 62
7
100
AcDbLine
 10
5.680173
 20
8.135920
 30
0.0
 11
5.664910
 21
7.318330
 31
0.0
  0
LINE
  5
12d
100
AcDbEntity
  8
Calque_1
 62
7
100
AcDbLine
 10
5.664910
 20
7.318330
 30
0.0
 11
5.649534
 21
6.500740
 31
0.0
  0
LINE
  5
12e
100
AcDbEntity
  8
Calque_1
 62
7
100
AcDbLine
 10
5.649534
 20
6.500740
 30
0.0
 11
5.441673
 21
6.483540
 31
0.0
  0
LINE
  5
12f
100
AcDbEntity
  8
Calque_1
 62
7
100
AcDbLine
 10
5.441673
 20
6.483540
 30
0.0
 11
5.233812
 21
6.466340
 31
0.0
  0
LINE
  5
130
100
AcDbEntity
  8
Calque_1
 62
7
100
AcDbLine
 10
5.233812
 20
6.466340
 30
0.0
 11
5.233812
 21
7.301140
 31
0.0
  0
LINE
  5
131
100
AcDbEntity
  8
Calque_1
 62
7
100
AcDbLine
 10
5.233812
 20
7.301140
 30
0.0
 11
5.233813
 21
8.135920
 31
0.0
  0
LINE
  5
132
100
AcDbEntity
  8
Calque_1
 62
7
100
AcDbLine
 10
6.009829
 20
8.135920
 30
0.0
 11
6.231548
 21
8.135920
 31
0.0
  0
LINE
  5
133
100
AcDbEntity
  8
Calque_1
 62
7
100
AcDbLine
 10
6.231548
 20
8.135920
 30
0.0
 11
6.453267
 21
8.135920
 31
0.0
  0
LINE
  5
134
100
AcDbEntity
  8
Calque_1
 62
7
100
AcDbLine
 10
6.453267
 20
8.135920
 30
0.0
 11
6.453267
 21
7.304470
 31
0.0
  0
LINE
  5
135
100
AcDbEntity
  8
Calque_1
 62
7
100
AcDbLine
 10
6.453267
 20
7.304470
 30
0.0
 11
6.453267
 21
6.473020
 31
0.0
  0
LINE
  5
136
100
AcDbEntity
  8
Calque_1
 62
7
100
AcDbLine
 10
6.453267
 20
6.473020
 30
0.0
 11
6.268465
 21
6.473020
 31
0.0
  0
SPLINE
  5
137
100
AcDbEntity
  8
Calque_1
 62
7
100
AcDbSpline
 70
8
 71
3
 72
8
 73
4
 74
0
 40
0
 40
0
 40
0
 40
0
 40
1
 40
1
 40
1
 40
1
 10
6.268465
 20
6.473020
 30
0.0
 10
6.166844
 20
6.473020
 30
0.0
 10
6.067070
 20
6.489620
 30
0.0
 10
6.046747
 20
6.509920
 30
0.0
  0
SPLINE
  5
138
100
AcDbEntity
  8
Calque_1
 62
7
100
AcDbSpline
 70
8
 71
3
 72
8
 73
4
 74
0
 40
0
 40
0
 40
0
 40
0
 40
1
 40
1
 40
1
 40
1
 10
6.046747
 20
6.509920
 30
0.0
 10
6.026420
 20
6.530220
 30
0.0
 10
6.009829
 20
6.904390
 30
0.0
 10
6.009829
 20
7.341360
 30
0.0
  0
LINE
  5
139
100
AcDbEntity
  8
Calque_1
 62
7
100
AcDbLine
 10
6.009829
 20
7.341360
 30
0.0
 11
6.009829
 21
8.135920
 31
0.0
  0
LINE
  5
13a
100
AcDbEntity
  8
Calque_1
 62
7
100
AcDbLine
 10
6.841276
 20
8.135920
 30
0.0
 11
7.064511
 21
8.135920
 31
0.0
  0
LINE
  5
13b
100
AcDbEntity
  8
Calque_1
 62
7
100
AcDbLine
 10
7.064511
 20
8.135920
 30
0.0
 11
7.287638
 21
8.135920
 31
0.0
  0
LINE
  5
13c
100
AcDbEntity
  8
Calque_1
 62
7
100
AcDbLine
 10
7.287638
 20
8.135920
 30
0.0
 11
7.272378
 21
7.318330
 31
0.0
  0
LINE
  5
13d
100
AcDbEntity
  8
Calque_1
 62
7
100
AcDbLine
 10
7.272378
 20
7.318330
 30
0.0
 11
7.256998
 21
6.500740
 31
0.0
  0
LINE
  5
13e
100
AcDbEntity
  8
Calque_1
 62
7
100
AcDbLine
 10
7.256998
 20
6.500740
 30
0.0
 11
7.088761
 21
6.484340
 31
0.0
  0
SPLINE
  5
13f
100
AcDbEntity
  8
Calque_1
 62
7
100
AcDbSpline
 70
8
 71
3
 72
8
 73
4
 74
0
 40
0
 40
0
 40
0
 40
0
 40
1
 40
1
 40
1
 40
1
 10
7.088761
 20
6.484340
 30
0.0
 10
6.996201
 20
6.475340
 30
0.0
 10
6.902668
 20
6.485340
 30
0.0
 10
6.880899
 20
6.507340
 30
0.0
  0
SPLINE
  5
140
100
AcDbEntity
  8
Calque_1
 62
7
100
AcDbSpline
 70
8
 71
3
 72
8
 73
4
 74
0
 40
0
 40
0
 40
0
 40
0
 40
1
 40
1
 40
1
 40
1
 10
6.880899
 20
6.507340
 30
0.0
 10
6.859129
 20
6.529140
 30
0.0
 10
6.841279
 20
6.904410
 30
0.0
 10
6.841279
 20
7.341390
 30
0.0
  0
LINE
  5
141
100
AcDbEntity
  8
Calque_1
 62
7
100
AcDbLine
 10
6.841279
 20
7.341390
 30
0.0
 11
6.841276
 21
8.135920
 31
0.0
  0
LINE
  5
142
100
AcDbEntity
  8
Calque_1
 62
7
100
AcDbLine
 10
7.672723
 20
8.135920
 30
0.0
 11
7.866727
 21
8.135920
 31
0.0
  0
LINE
  5
143
100
AcDbEntity
  8
Calque_1
 62
7
100
AcDbLine
 10
7.866727
 20
8.135920
 30
0.0
 11
8.060731
 21
8.135920
 31
0.0
  0
LINE
  5
144
100
AcDbEntity
  8
Calque_1
 62
7
100
AcDbLine
 10
8.060731
 20
8.135920
 30
0.0
 11
8.060731
 21
7.304470
 31
0.0
  0
LINE
  5
145
100
AcDbEntity
  8
Calque_1
 62
7
100
AcDbLine
 10
8.060731
 20
7.304470
 30
0.0
 11
8.060731
 21
6.473020
 31
0.0
  0
LINE
  5
146
100
AcDbEntity
  8
Calque_1
 62
7
100
AcDbLine
 10
8.060731
 20
6.473020
 30
0.0
 11
7.866727
 21
6.473020
 31
0.0
  0
LINE
  5
147
100
AcDbEntity
  8
Calque_1
 62
7
100
AcDbLine
 10
7.866727
 20
6.473020
 30
0.0
 11
7.672723
 21
6.473020
 31
0.0
  0
LINE
  5
148
100
AcDbEntity
  8
Calque_1
 62
7
100
AcDbLine
 10
7.672723
 20
6.473020
 30
0.0
 11
7.672723
 21
7.304470
 31
0.0
  0
LINE
  5
149
100
AcDbEntity
  8
Calque_1
 62
7
100
AcDbLine
 10
7.672723
 20
7.304470
 30
0.0
 11
7.672723
 21
8.135920
 31
0.0
  0
SPLINE
  5
14a
100
AcDbEntity
  8
Calque_1
 62
7
100
AcDbSpline
 70
8
 71
3
 72
8
 73
4
 74
0
 40
0
 40
0
 40
0
 40
0
 40
1
 40
1
 40
1
 40
1
 10
4.648227
 20
5.526060
 30
0.0
 10
4.780493
 20
5.525900
 30
0.0
 10
4.912459
 20
5.504360
 30
0.0
 10
5.021295
 20
5.458860
 30
0.0
  0
LINE
  5
14b
100
AcDbEntity
  8
Calque_1
 62
7
100
AcDbLine
 10
5.021295
 20
5.458860
 30
0.0
 11
5.221362
 21
5.375260
 31
0.0
  0
LINE
  5
14c
100
AcDbEntity
  8
Calque_1
 62
7
100
AcDbLine
 10
5.221362
 20
5.375260
 30
0.0
 11
5.160302
 21
5.146730
 31
0.0
  0
SPLINE
  5
14d
100
AcDbEntity
  8
Calque_1
 62
7
100
AcDbSpline
 70
8
 71
3
 72
8
 73
4
 74
0
 40
0
 40
0
 40
0
 40
0
 40
1
 40
1
 40
1
 40
1
 10
5.160302
 20
5.146730
 30
0.0
 10
5.114226
 20
4.974110
 30
0.0
 10
5.078485
 20
4.926990
 30
0.0
 10
5.014150
 20
4.954130
 30
0.0
  0
SPLINE
  5
14e
100
AcDbEntity
  8
Calque_1
 62
7
100
AcDbSpline
 70
8
 71
3
 72
8
 73
4
 74
0
 40
0
 40
0
 40
0
 40
0
 40
1
 40
1
 40
1
 40
1
 10
5.014150
 20
4.954130
 30
0.0
 10
4.709867
 20
5.082460
 30
0.0
 10
4.627694
 20
5.100210
 30
0.0
 10
4.493413
 20
5.066500
 30
0.0
  0
SPLINE
  5
14f
100
AcDbEntity
  8
Calque_1
 62
7
100
AcDbSpline
 70
8
 71
3
 72
8
 73
4
 74
0
 40
0
 40
0
 40
0
 40
0
 40
1
 40
1
 40
1
 40
1
 10
4.493413
 20
5.066500
 30
0.0
 10
4.410784
 20
5.045800
 30
0.0
 10
4.315022
 20
4.967100
 30
0.0
 10
4.280679
 20
4.891770
 30
0.0
  0
SPLINE
  5
150
100
AcDbEntity
  8
Calque_1
 62
7
100
AcDbSpline
 70
8
 71
3
 72
8
 73
4
 74
0
 40
0
 40
0
 40
0
 40
0
 40
1
 40
1
 40
1
 40
1
 10
4.280679
 20
4.891770
 30
0.0
 10
4.182920
 20
4.677210
 30
0.0
 10
4.295972
 20
4.511180
 30
0.0
 10
4.678756
 20
4.307160
 30
0.0
  0
SPLINE
  5
151
100
AcDbEntity
  8
Calque_1
 62
7
100
AcDbSpline
 70
8
 71
3
 72
8
 73
4
 74
0
 40
0
 40
0
 40
0
 40
0
 40
1
 40
1
 40
1
 40
1
 10
4.678756
 20
4.307160
 30
0.0
 10
5.097975
 20
4.083720
 30
0.0
 10
5.247256
 20
3.884720
 30
0.0
 10
5.274626
 20
3.512630
 30
0.0
  0
SPLINE
  5
152
100
AcDbEntity
  8
Calque_1
 62
7
100
AcDbSpline
 70
8
 71
3
 72
8
 73
4
 74
0
 40
0
 40
0
 40
0
 40
0
 40
1
 40
1
 40
1
 40
1
 10
5.274626
 20
3.512630
 30
0.0
 10
5.300063
 20
3.166830
 30
0.0
 10
5.175658
 20
2.898320
 30
0.0
 10
4.906863
 20
2.718750
 30
0.0
  0
SPLINE
  5
153
100
AcDbEntity
  8
Calque_1
 62
7
100
AcDbSpline
 70
8
 71
3
 72
8
 73
4
 74
0
 40
0
 40
0
 40
0
 40
0
 40
1
 40
1
 40
1
 40
1
 10
4.906863
 20
2.718750
 30
0.0
 10
4.620472
 20
2.527430
 30
0.0
 10
4.012850
 20
2.564100
 30
0.0
 10
3.747385
 20
2.788650
 30
0.0
  0
SPLINE
  5
154
100
AcDbEntity
  8
Calque_1
 62
7
100
AcDbSpline
 70
8
 71
3
 72
8
 73
4
 74
0
 40
0
 40
0
 40
0
 40
0
 40
1
 40
1
 40
1
 40
1
 10
3.747385
 20
2.788650
 30
0.0
 10
3.737755
 20
2.796650
 30
0.0
 10
3.756755
 20
2.902950
 30
0.0
 10
3.789498
 20
3.024560
 30
0.0
  0
LINE
  5
155
100
AcDbEntity
  8
Calque_1
 62
7
100
AcDbLine
 10
3.789498
 20
3.024560
 30
0.0
 11
3.849042
 21
3.245630
 31
0.0
  0
LINE
  5
156
100
AcDbEntity
  8
Calque_1
 62
7
100
AcDbLine
 10
3.849042
 20
3.245630
 30
0.0
 11
4.054305
 21
3.141050
 31
0.0
  0
SPLINE
  5
157
100
AcDbEntity
  8
Calque_1
 62
7
100
AcDbSpline
 70
8
 71
3
 72
8
 73
4
 74
0
 40
0
 40
0
 40
0
 40
0
 40
1
 40
1
 40
1
 40
1
 10
4.054305
 20
3.141050
 30
0.0
 10
4.335061
 20
2.997910
 30
0.0
 10
4.545249
 20
3.007970
 30
0.0
 10
4.709719
 20
3.172450
 30
0.0
  0
SPLINE
  5
158
100
AcDbEntity
  8
Calque_1
 62
7
100
AcDbSpline
 70
8
 71
3
 72
8
 73
4
 74
0
 40
0
 40
0
 40
0
 40
0
 40
1
 40
1
 40
1
 40
1
 10
4.709719
 20
3.172450
 30
0.0
 10
4.947591
 20
3.410320
 30
0.0
 10
4.847857
 20
3.670320
 30
0.0
 10
4.440256
 20
3.874860
 30
0.0
  0
SPLINE
  5
159
100
AcDbEntity
  8
Calque_1
 62
7
100
AcDbSpline
 70
8
 71
3
 72
8
 73
4
 74
0
 40
0
 40
0
 40
0
 40
0
 40
1
 40
1
 40
1
 40
1
 10
4.440256
 20
3.874860
 30
0.0
 10
3.725198
 20
4.233670
 30
0.0
 10
3.574440
 20
4.876480
 30
0.0
 10
4.091872
 20
5.359880
 30
0.0
  0
SPLINE
  5
15a
100
AcDbEntity
  8
Calque_1
 62
7
100
AcDbSpline
 70
8
 71
3
 72
8
 73
4
 74
0
 40
0
 40
0
 40
0
 40
0
 40
1
 40
1
 40
1
 40
1
 10
4.091872
 20
5.359880
 30
0.0
 10
4.206793
 20
5.467240
 30
0.0
 10
4.427784
 20
5.526350
 30
0.0
 10
4.648226
 20
5.526050
 30
0.0
  0
LINE
  5
15b
100
AcDbEntity
  8
Calque_1
 62
7
100
AcDbLine
 10
4.648226
 20
5.526050
 30
0.0
 11
4.648227
 21
5.526060
 31
0.0
  0
SPLINE
  5
15c
100
AcDbEntity
  8
Calque_1
 62
7
100
AcDbSpline
 70
8
 71
3
 72
8
 73
4
 74
0
 40
0
 40
0
 40
0
 40
0
 40
1
 40
1
 40
1
 40
1
 10
6.564127
 20
5.501460
 30
0.0
 10
6.939873
 20
5.501630
 30
0.0
 10
7.086502
 20
5.476660
 30
0.0
 10
7.288070
 20
5.377830
 30
0.0
  0
SPLINE
  5
15d
100
AcDbEntity
  8
Calque_1
 62
7
100
AcDbSpline
 70
8
 71
3
 72
8
 73
4
 74
0
 40
0
 40
0
 40
0
 40
0
 40
1
 40
1
 40
1
 40
1
 10
7.288070
 20
5.377830
 30
0.0
 10
7.721912
 20
5.165090
 30
0.0
 10
7.949871
 20
4.730560
 30
0.0
 10
7.949871
 20
4.116580
 30
0.0
  0
SPLINE
  5
15e
100
AcDbEntity
  8
Calque_1
 62
7
100
AcDbSpline
 70
8
 71
3
 72
8
 73
4
 74
0
 40
0
 40
0
 40
0
 40
0
 40
1
 40
1
 40
1
 40
1
 10
7.949871
 20
4.116580
 30
0.0
 10
7.949872
 20
3.374250
 30
0.0
 10
7.622104
 20
2.847220
 30
0.0
 10
7.055958
 20
2.679090
 30
0.0
  0
SPLINE
  5
15f
100
AcDbEntity
  8
Calque_1
 62
7
100
AcDbSpline
 70
8
 71
3
 72
8
 73
4
 74
0
 40
0
 40
0
 40
0
 40
0
 40
1
 40
1
 40
1
 40
1
 10
7.055958
 20
2.679090
 30
0.0
 10
6.896313
 20
2.631690
 30
0.0
 10
6.614348
 20
2.595790
 30
0.0
 10
6.429341
 20
2.599290
 30
0.0
  0
SPLINE
  5
160
100
AcDbEntity
  8
Calque_1
 62
7
100
AcDbSpline
 70
8
 71
3
 72
8
 73
4
 74
0
 40
0
 40
0
 40
0
 40
0
 40
1
 40
1
 40
1
 40
1
 10
6.429341
 20
2.599290
 30
0.0
 10
5.846093
 20
2.610490
 30
0.0
 10
5.898970
 20
2.466930
 30
0.0
 10
5.898970
 20
4.039930
 30
0.0
  0
SPLINE
  5
161
100
AcDbEntity
  8
Calque_1
 62
7
100
AcDbSpline
 70
8
 71
3
 72
8
 73
4
 74
0
 40
0
 40
0
 40
0
 40
0
 40
1
 40
1
 40
1
 40
1
 10
5.898970
 20
4.039930
 30
0.0
 10
5.898970
 20
5.305670
 30
0.0
 10
5.907220
 20
5.426610
 30
0.0
 10
5.995972
 20
5.462260
 30
0.0
  0
SPLINE
  5
162
100
AcDbEntity
  8
Calque_1
 62
7
100
AcDbSpline
 70
8
 71
3
 72
8
 73
4
 74
0
 40
0
 40
0
 40
0
 40
0
 40
1
 40
1
 40
1
 40
1
 10
5.995972
 20
5.462260
 30
0.0
 10
6.049322
 20
5.483660
 30
0.0
 10
6.304993
 20
5.501360
 30
0.0
 10
6.564127
 20
5.501460
 30
0.0
  0
LINE
  5
163
100
AcDbEntity
  8
Calque_1
 62
7
100
AcDbLine
 10
6.564127
 20
5.501460
 30
0.0
 11
6.564127
 21
5.501460
 31
0.0
  0
SPLINE
  5
164
100
AcDbEntity
  8
Calque_1
 62
7
100
AcDbSpline
 70
8
 71
3
 72
8
 73
4
 74
0
 40
0
 40
0
 40
0
 40
0
 40
1
 40
1
 40
1
 40
1
 10
6.655499
 20
5.074800
 30
0.0
 10
6.604876
 20
5.074810
 30
0.0
 10
6.554126
 20
5.069800
 30
0.0
 10
6.504042
 20
5.058600
 30
0.0
  0
LINE
  5
165
100
AcDbEntity
  8
Calque_1
 62
7
100
AcDbLine
 10
6.504042
 20
5.058600
 30
0.0
 11
6.342408
 21
5.023100
 31
0.0
  0
LINE
  5
166
100
AcDbEntity
  8
Calque_1
 62
7
100
AcDbLine
 10
6.342408
 20
5.023100
 30
0.0
 11
6.342408
 21
4.066720
 31
0.0
  0
SPLINE
  5
167
100
AcDbEntity
  8
Calque_1
 62
7
100
AcDbSpline
 70
8
 71
3
 72
8
 73
4
 74
0
 40
0
 40
0
 40
0
 40
0
 40
1
 40
1
 40
1
 40
1
 10
6.342408
 20
4.066720
 30
0.0
 10
6.342408
 20
3.540710
 30
0.0
 10
6.359005
 20
3.093630
 30
0.0
 10
6.379326
 20
3.073310
 30
0.0
  0
SPLINE
  5
168
100
AcDbEntity
  8
Calque_1
 62
7
100
AcDbSpline
 70
8
 71
3
 72
8
 73
4
 74
0
 40
0
 40
0
 40
0
 40
0
 40
1
 40
1
 40
1
 40
1
 10
6.379326
 20
3.073310
 30
0.0
 10
6.532380
 20
2.920260
 30
0.0
 10
7.193426
 20
3.179240
 30
0.0
 10
7.350863
 20
3.453950
 30
0.0
  0
SPLINE
  5
169
100
AcDbEntity
  8
Calque_1
 62
7
100
AcDbSpline
 70
8
 71
3
 72
8
 73
4
 74
0
 40
0
 40
0
 40
0
 40
0
 40
1
 40
1
 40
1
 40
1
 10
7.350863
 20
3.453950
 30
0.0
 10
7.480516
 20
3.680190
 30
0.0
 10
7.532801
 20
4.174500
 30
0.0
 10
7.456851
 20
4.456240
 30
0.0
  0
SPLINE
  5
16a
100
AcDbEntity
  8
Calque_1
 62
7
100
AcDbSpline
 70
8
 71
3
 72
8
 73
4
 74
0
 40
0
 40
0
 40
0
 40
0
 40
1
 40
1
 40
1
 40
1
 10
7.456851
 20
4.456240
 30
0.0
 10
7.359811
 20
4.816210
 30
0.0
 10
7.009881
 20
5.074790
 30
0.0
 10
6.655501
 20
5.074850
 30
0.0
  0
LINE
  5
16b
100
AcDbEntity
  8
Calque_1
 62
7
100
AcDbLine
 10
6.655501
 20
5.074850
 30
0.0
 11
6.655499
 21
5.074800
 31
0.0
  0
LINE
  5
16c
100
AcDbEntity
  8
Calque_1
 62
7
100
AcDbLine
 10
3.404630
 20
1.539750
 30
0.0
 11
5.843540
 21
1.539750
 31
0.0
  0
LINE
  5
16d
100
AcDbEntity
  8
Calque_1
 62
7
100
AcDbLine
 10
5.843540
 20
1.539750
 30
0.0
 11
8.282450
 21
1.539750
 31
0.0
  0
LINE
  5
16e
100
AcDbEntity
  8
Calque_1
 62
7
100
AcDbLine
 10
8.282450
 20
1.539750
 30
0.0
 11
8.282450
 21
1.290320
 31
0.0
  0
LINE
  5
16f
100
AcDbEntity
  8
Calque_1
 62
7
100
AcDbLine
 10
8.282450
 20
1.290320
 30
0.0
 11
8.282450
 21
1.040880
 31
0.0
  0
LINE
  5
170
100
AcDbEntity
  8
Calque_1
 62
7
100
AcDbLine
 10
8.282450
 20
1.040880
 30
0.0
 11
5.843540
 21
1.040880
 31
0.0
  0
LINE
  5
171
100
AcDbEntity
  8
Calque_1
 62
7
100
AcDbLine
 10
5.843540
 20
1.040880
 30
0.0
 11
3.404630
 21
1.040880
 31
0.0
  0
LINE
  5
172
100
AcDbEntity
  8
Calque_1
 62
7
100
AcDbLine
 10
3.404630
 20
1.040880
 30
0.0
 11
3.404630
 21
1.290320
 31
0.0
  0
LINE
  5
173
100
AcDbEntity
  8
Calque_1
 62
7
100
AcDbLine
 10
3.404630
 20
1.290320
 30
0.0
 11
3.404630
 21
1.539750
 31
0.0
  0
ENDSEC
  0
SECTION
  2
OBJECTS
  0
DICTIONARY
  5
C
330
0
100
AcDbDictionary
  3
ACAD_GROUP
350
D
  3
ACAD_MLINESTYLE
350
17
  0
DICTIONARY
  5
D
330
C
100
AcDbDictionary
  0
DICTIONARY
  5
1A
330
C
100
AcDbDictionary
  0
DICTIONARY
  5
17
330
C
100
AcDbDictionary
  3
STANDARD
350
18
  0
DICTIONARY
  5
19
330
C
100
AcDbDictionary
  0
ENDSEC
  0
EOF
