M48
; DRILL file {KiCad (5.1.12)-1} date 11/06/22 18:41:55
; FORMAT={-:-/ absolute / metric / decimal}
; #@! TF.CreationDate,2022-11-06T18:41:55+01:00
; #@! TF.GenerationSoftware,Kicad,Pcbnew,(5.1.12)-1
; #@! TF.FileFunction,Plated,1,4,PTH
FMAT,2
METRIC
T1C0.250
T2C0.400
T3C0.500
T4C0.600
T5C1.000
T6C2.200
%
G90
G05
T2
X48.515Y-66.675
X48.515Y-91.44
X48.998Y-65.508
X48.998Y-67.842
X48.998Y-90.273
X48.998Y-92.607
X50.165Y-65.025
X50.165Y-68.325
X50.165Y-89.79
X50.165Y-93.09
X51.332Y-65.508
X51.332Y-67.842
X51.332Y-90.273
X51.332Y-92.607
X51.815Y-66.675
X51.815Y-91.44
X54.175Y-65.425
X56.293Y-71.765
X56.7Y-77.925
X56.815Y-82.317
X57.819Y-64.283
X58.047Y-93.9
X58.685Y-80.796
X58.917Y-73.186
X59.128Y-83.631
X59.461Y-82.072
X60.1Y-92.175
X60.513Y-89.575
X60.625Y-64.525
X60.625Y-68.475
X60.725Y-71.75
X61.318Y-84.351
X61.549Y-89.65
X62.06Y-85.875
X62.285Y-73.042
X62.325Y-80.225
X63.35Y-84.097
X63.643Y-68.332
X64.325Y-72.1
X64.386Y-86.161
X65.014Y-89.618
X65.828Y-64.35
X66.686Y-89.245
X66.729Y-71.751
X66.8Y-83.9
X67.05Y-85.105
X68.139Y-77.773
X68.465Y-72.398
X68.536Y-84.087
X68.881Y-77.1
X69.368Y-68.221
X69.453Y-81.966
X69.63Y-85.378
X69.9Y-79.125
X70.1Y-77.575
X70.45Y-81.55
X70.546Y-74.858
X70.796Y-79.569
X70.886Y-71.525
X70.886Y-82.492
X70.978Y-68.517
X71.203Y-83.873
X71.221Y-88.995
X72.775Y-73.27
X72.789Y-87.36
X74.192Y-69.275
X74.227Y-86.022
X74.79Y-90.087
X75.146Y-83.67
X75.243Y-71.902
X75.409Y-78.191
X75.817Y-84.685
X76.255Y-64.118
X76.418Y-77.1
X76.5Y-82.325
X76.554Y-83.991
X76.567Y-68.483
X76.569Y-71.818
X76.6Y-80.4
X76.661Y-70.049
X77.049Y-89.283
X77.363Y-85.426
X77.867Y-64.611
X77.872Y-72.873
X77.896Y-71.873
X78.362Y-85.48
X78.481Y-88.663
X79.35Y-86.9
X79.806Y-93.258
X79.924Y-67.823
X80.496Y-89.902
X80.575Y-75.15
X80.948Y-79.222
X81.093Y-80.673
X81.106Y-84.6
X82.248Y-69.774
X82.25Y-84.65
X82.789Y-89.171
X83.9Y-86.8
X84.085Y-74.362
X84.307Y-76.349
X85.096Y-93.299
X85.272Y-89.489
X87.1Y-76.95
X87.2Y-86.75
X88.421Y-89.464
X88.565Y-87.844
X88.68Y-84.366
X89.475Y-85.925
X89.597Y-82.124
X90.374Y-90.008
X90.65Y-86.75
X91.125Y-73.8
X92.436Y-87.221
X92.465Y-88.671
X92.85Y-83.55
X94.954Y-75.899
X95.0Y-70.75
X95.2Y-82.2
X95.25Y-78.375
X95.3Y-86.85
X96.323Y-81.847
X97.048Y-82.589
X97.75Y-88.5
X97.881Y-85.964
X98.05Y-76.425
X98.5Y-72.5
X99.55Y-86.475
X100.275Y-93.4
X100.401Y-80.527
X100.425Y-89.45
X100.778Y-69.825
X100.892Y-76.568
X101.082Y-81.566
X101.516Y-79.923
X101.75Y-71.5
X102.2Y-82.95
X102.823Y-70.727
X103.25Y-89.75
X103.502Y-65.412
X103.75Y-69.5
X104.91Y-68.484
X105.433Y-83.526
X105.75Y-71.25
X106.2Y-91.45
X106.261Y-89.466
X106.745Y-85.245
X107.2Y-76.2
X107.305Y-67.934
X107.577Y-69.65
X108.5Y-67.75
X109.751Y-88.789
X109.825Y-86.05
X110.25Y-92.1
X110.283Y-70.278
X110.3Y-68.297
X111.9Y-92.05
X113.538Y-89.536
X113.8Y-91.45
X114.376Y-78.279
X114.902Y-77.1
X115.175Y-79.589
X115.388Y-72.751
X115.723Y-91.44
X115.889Y-68.796
X116.626Y-79.589
X117.176Y-72.349
X117.212Y-88.843
X118.1Y-92.2
X118.714Y-72.442
X119.15Y-93.725
X119.513Y-89.542
X119.619Y-76.855
X119.697Y-79.482
X119.75Y-70.0
X120.016Y-68.767
X120.27Y-66.675
X120.27Y-91.44
X120.753Y-65.508
X120.753Y-67.842
X120.753Y-90.273
X120.753Y-92.607
X121.92Y-65.025
X121.92Y-68.325
X121.92Y-89.79
X121.92Y-93.09
X122.042Y-72.879
X123.087Y-65.508
X123.087Y-67.842
X123.087Y-90.273
X123.087Y-92.607
X123.5Y-78.475
X123.57Y-66.675
X123.57Y-91.44
T5
X66.04Y-66.04
X66.04Y-91.44
X68.58Y-66.04
X68.58Y-91.44
X71.12Y-66.04
X71.12Y-91.44
X73.66Y-66.04
X73.66Y-91.44
X76.2Y-66.04
X76.2Y-91.44
X78.74Y-66.04
X78.74Y-91.44
X81.28Y-66.04
X81.28Y-91.44
X83.82Y-66.04
X83.82Y-91.44
X86.36Y-66.04
X86.36Y-91.44
X88.9Y-66.04
X88.9Y-91.44
X91.44Y-66.04
X91.44Y-91.44
X93.98Y-66.04
X93.98Y-91.44
X96.52Y-66.04
X96.52Y-91.44
X99.06Y-66.04
X99.06Y-91.44
X101.6Y-66.04
X101.6Y-91.44
T6
X50.165Y-66.675
X50.165Y-91.44
X121.92Y-66.675
X121.92Y-91.44
T1
G00X61.126Y-76.562
M15
G01X61.126Y-76.562
M16
G05
G00X61.126Y-78.086
M15
G01X61.126Y-78.086
M16
G05
G00X61.939Y-75.8
M15
G01X61.939Y-75.8
M16
G05
G00X61.939Y-77.324
M15
G01X61.939Y-77.324
M16
G05
G00X61.939Y-78.797
M15
G01X61.939Y-78.797
M16
G05
G00X62.599Y-78.086
M15
G01X62.599Y-78.086
M16
G05
G00X62.65Y-76.562
M15
G01X62.65Y-76.562
M16
G05
G00X63.412Y-75.8
M15
G01X63.412Y-75.8
M16
G05
G00X63.412Y-77.273
M15
G01X63.412Y-77.273
M16
G05
G00X63.412Y-78.797
M15
G01X63.412Y-78.797
M16
G05
G00X64.123Y-76.562
M15
G01X64.123Y-76.562
M16
G05
G00X64.123Y-78.035
M15
G01X64.123Y-78.035
M16
G05
T3
G00X119.575Y-73.785
M15
G01X118.375Y-73.785
M16
G05
G00X119.575Y-82.425
M15
G01X118.375Y-82.425
M16
G05
T4
G00X123.455Y-73.785
M15
G01X122.855Y-73.785
M16
G05
G00X123.455Y-82.425
M15
G01X122.855Y-82.425
M16
G05
T0
M30
