%TF.GenerationSoftware,KiCad,Pcbnew,(5.1.12)-1*%
%TF.CreationDate,2022-11-06T18:41:51+01:00*%
%TF.ProjectId,NewmorphS3,4e65776d-6f72-4706-9853-332e6b696361,rev?*%
%TF.SameCoordinates,Original*%
%TF.FileFunction,Soldermask,Top*%
%TF.FilePolarity,Negative*%
%FSLAX46Y46*%
G04 Gerber Fmt 4.6, Leading zero omitted, Abs format (unit mm)*
G04 Created by KiCad (PCBNEW (5.1.12)-1) date 2022-11-06 18:41:51*
%MOMM*%
%LPD*%
G01*
G04 APERTURE LIST*
%ADD10R,3.000000X0.350000*%
%ADD11O,1.600000X1.000000*%
%ADD12O,2.100000X0.900000*%
%ADD13C,0.650000*%
%ADD14C,0.900000*%
%ADD15C,0.400000*%
%ADD16R,3.500000X1.524000*%
%ADD17C,2.000000*%
%ADD18R,2.000000X2.000000*%
%ADD19R,1.700000X1.700000*%
%ADD20O,1.700000X1.700000*%
%ADD21C,0.700000*%
%ADD22C,4.400000*%
G04 APERTURE END LIST*
D10*
%TO.C,U106*%
X73124000Y-74693800D03*
X73124000Y-75393800D03*
X73124000Y-76093800D03*
X73124000Y-76793800D03*
X73124000Y-77493800D03*
X73124000Y-78193800D03*
X73124000Y-78893800D03*
X73124000Y-79593800D03*
X73124000Y-80293800D03*
X73124000Y-80993800D03*
X73124000Y-81693800D03*
X73124000Y-82393800D03*
%TD*%
%TO.C,D102*%
G36*
G01*
X107063250Y-67265000D02*
X106550750Y-67265000D01*
G75*
G02*
X106332000Y-67046250I0J218750D01*
G01*
X106332000Y-66608750D01*
G75*
G02*
X106550750Y-66390000I218750J0D01*
G01*
X107063250Y-66390000D01*
G75*
G02*
X107282000Y-66608750I0J-218750D01*
G01*
X107282000Y-67046250D01*
G75*
G02*
X107063250Y-67265000I-218750J0D01*
G01*
G37*
G36*
G01*
X107063250Y-65690000D02*
X106550750Y-65690000D01*
G75*
G02*
X106332000Y-65471250I0J218750D01*
G01*
X106332000Y-65033750D01*
G75*
G02*
X106550750Y-64815000I218750J0D01*
G01*
X107063250Y-64815000D01*
G75*
G02*
X107282000Y-65033750I0J-218750D01*
G01*
X107282000Y-65471250D01*
G75*
G02*
X107063250Y-65690000I-218750J0D01*
G01*
G37*
%TD*%
D11*
%TO.C,J101*%
X123155000Y-73785000D03*
X123155000Y-82425000D03*
D12*
X118975000Y-73785000D03*
X118975000Y-82425000D03*
D13*
X119475000Y-75215000D03*
X119475000Y-80995000D03*
%TD*%
D14*
%TO.C,SW105*%
X112038000Y-65456000D03*
X115038000Y-65456000D03*
%TD*%
D15*
%TO.C,U103*%
X62599000Y-78086000D03*
X64123000Y-76562000D03*
X63411800Y-77273200D03*
X64123000Y-78035200D03*
X61125800Y-76562000D03*
X62649800Y-76562000D03*
X63411800Y-75800000D03*
X61125800Y-78086000D03*
X61938600Y-75800000D03*
X61938600Y-77324000D03*
X61938600Y-78797200D03*
X63411800Y-78797200D03*
%TD*%
D16*
%TO.C,U105*%
X104170000Y-75580000D03*
X104170000Y-77430000D03*
X104170000Y-79255000D03*
X104170000Y-81105000D03*
D17*
X102920000Y-86680000D03*
X122670000Y-85855000D03*
D18*
X121470000Y-78305000D03*
%TD*%
D19*
%TO.C,J103*%
X66040000Y-66040000D03*
D20*
X68580000Y-66040000D03*
X71120000Y-66040000D03*
X73660000Y-66040000D03*
X76200000Y-66040000D03*
X78740000Y-66040000D03*
X81280000Y-66040000D03*
X83820000Y-66040000D03*
X86360000Y-66040000D03*
X88900000Y-66040000D03*
X91440000Y-66040000D03*
X93980000Y-66040000D03*
X96520000Y-66040000D03*
X99060000Y-66040000D03*
X101600000Y-66040000D03*
%TD*%
%TO.C,J104*%
X101600000Y-91440000D03*
X99060000Y-91440000D03*
X96520000Y-91440000D03*
X93980000Y-91440000D03*
X91440000Y-91440000D03*
X88900000Y-91440000D03*
X86360000Y-91440000D03*
X83820000Y-91440000D03*
X81280000Y-91440000D03*
X78740000Y-91440000D03*
X76200000Y-91440000D03*
X73660000Y-91440000D03*
X71120000Y-91440000D03*
X68580000Y-91440000D03*
D19*
X66040000Y-91440000D03*
%TD*%
D18*
%TO.C,SW103*%
X57150000Y-67660000D03*
X57150000Y-73660000D03*
%TD*%
%TO.C,SW104*%
X57150000Y-90185000D03*
X57150000Y-84185000D03*
%TD*%
D21*
%TO.C,H101*%
X123086726Y-65508274D03*
X121920000Y-65025000D03*
X120753274Y-65508274D03*
X120270000Y-66675000D03*
X120753274Y-67841726D03*
X121920000Y-68325000D03*
X123086726Y-67841726D03*
X123570000Y-66675000D03*
D22*
X121920000Y-66675000D03*
%TD*%
%TO.C,H102*%
X121920000Y-91440000D03*
D21*
X123570000Y-91440000D03*
X123086726Y-92606726D03*
X121920000Y-93090000D03*
X120753274Y-92606726D03*
X120270000Y-91440000D03*
X120753274Y-90273274D03*
X121920000Y-89790000D03*
X123086726Y-90273274D03*
%TD*%
%TO.C,H103*%
X51331726Y-65508274D03*
X50165000Y-65025000D03*
X48998274Y-65508274D03*
X48515000Y-66675000D03*
X48998274Y-67841726D03*
X50165000Y-68325000D03*
X51331726Y-67841726D03*
X51815000Y-66675000D03*
D22*
X50165000Y-66675000D03*
%TD*%
%TO.C,H104*%
X50165000Y-91440000D03*
D21*
X51815000Y-91440000D03*
X51331726Y-92606726D03*
X50165000Y-93090000D03*
X48998274Y-92606726D03*
X48515000Y-91440000D03*
X48998274Y-90273274D03*
X50165000Y-89790000D03*
X51331726Y-90273274D03*
%TD*%
M02*
