%TF.GenerationSoftware,KiCad,Pcbnew,(5.1.12)-1*%
%TF.CreationDate,2022-11-06T18:41:51+01:00*%
%TF.ProjectId,NewmorphS3,4e65776d-6f72-4706-9853-332e6b696361,rev?*%
%TF.SameCoordinates,Original*%
%TF.FileFunction,Copper,L1,Top*%
%TF.FilePolarity,Positive*%
%FSLAX46Y46*%
G04 Gerber Fmt 4.6, Leading zero omitted, Abs format (unit mm)*
G04 Created by KiCad (PCBNEW (5.1.12)-1) date 2022-11-06 18:41:51*
%MOMM*%
%LPD*%
G01*
G04 APERTURE LIST*
%TA.AperFunction,SMDPad,CuDef*%
%ADD10R,3.000000X0.350000*%
%TD*%
%TA.AperFunction,ComponentPad*%
%ADD11O,1.600000X1.000000*%
%TD*%
%TA.AperFunction,ComponentPad*%
%ADD12O,2.100000X0.900000*%
%TD*%
%TA.AperFunction,ComponentPad*%
%ADD13C,0.400000*%
%TD*%
%TA.AperFunction,SMDPad,CuDef*%
%ADD14R,3.500000X1.524000*%
%TD*%
%TA.AperFunction,SMDPad,CuDef*%
%ADD15R,2.000000X2.000000*%
%TD*%
%TA.AperFunction,ComponentPad*%
%ADD16R,1.700000X1.700000*%
%TD*%
%TA.AperFunction,ComponentPad*%
%ADD17O,1.700000X1.700000*%
%TD*%
%TA.AperFunction,ComponentPad*%
%ADD18C,0.700000*%
%TD*%
%TA.AperFunction,ComponentPad*%
%ADD19C,4.400000*%
%TD*%
%TA.AperFunction,ViaPad*%
%ADD20C,0.800000*%
%TD*%
%TA.AperFunction,Conductor*%
%ADD21C,0.250000*%
%TD*%
%TA.AperFunction,Conductor*%
%ADD22C,0.254000*%
%TD*%
%TA.AperFunction,Conductor*%
%ADD23C,0.100000*%
%TD*%
G04 APERTURE END LIST*
D10*
%TO.P,U106,12*%
%TO.N,GND*%
X73124000Y-74693800D03*
%TO.P,U106,11*%
%TO.N,/DisplRST*%
X73124000Y-75393800D03*
%TO.P,U106,10*%
%TO.N,/MOSI*%
X73124000Y-76093800D03*
%TO.P,U106,9*%
%TO.N,/SCK*%
X73124000Y-76793800D03*
%TO.P,U106,8*%
%TO.N,/Display_CS*%
X73124000Y-77493800D03*
%TO.P,U106,7*%
%TO.N,/DisplayDC*%
X73124000Y-78193800D03*
%TO.P,U106,6*%
%TO.N,GND*%
X73124000Y-78893800D03*
%TO.P,U106,5*%
X73124000Y-79593800D03*
%TO.P,U106,4*%
%TO.N,+3V3*%
X73124000Y-80293800D03*
%TO.P,U106,3*%
%TO.N,/LEDA*%
X73124000Y-80993800D03*
%TO.P,U106,2*%
%TO.N,GND*%
X73124000Y-81693800D03*
%TO.P,U106,1*%
X73124000Y-82393800D03*
%TD*%
%TO.P,D102,1*%
%TO.N,Net-(D102-Pad1)*%
%TA.AperFunction,SMDPad,CuDef*%
G36*
G01*
X107063250Y-67265000D02*
X106550750Y-67265000D01*
G75*
G02*
X106332000Y-67046250I0J218750D01*
G01*
X106332000Y-66608750D01*
G75*
G02*
X106550750Y-66390000I218750J0D01*
G01*
X107063250Y-66390000D01*
G75*
G02*
X107282000Y-66608750I0J-218750D01*
G01*
X107282000Y-67046250D01*
G75*
G02*
X107063250Y-67265000I-218750J0D01*
G01*
G37*
%TD.AperFunction*%
%TO.P,D102,2*%
%TO.N,Net-(D102-Pad2)*%
%TA.AperFunction,SMDPad,CuDef*%
G36*
G01*
X107063250Y-65690000D02*
X106550750Y-65690000D01*
G75*
G02*
X106332000Y-65471250I0J218750D01*
G01*
X106332000Y-65033750D01*
G75*
G02*
X106550750Y-64815000I218750J0D01*
G01*
X107063250Y-64815000D01*
G75*
G02*
X107282000Y-65033750I0J-218750D01*
G01*
X107282000Y-65471250D01*
G75*
G02*
X107063250Y-65690000I-218750J0D01*
G01*
G37*
%TD.AperFunction*%
%TD*%
D11*
%TO.P,J101,S1*%
%TO.N,GND*%
X123155000Y-73785000D03*
X123155000Y-82425000D03*
D12*
X118975000Y-73785000D03*
X118975000Y-82425000D03*
%TD*%
D13*
%TO.P,U103,*%
%TO.N,*%
X62599000Y-78086000D03*
X64123000Y-76562000D03*
X63411800Y-77273200D03*
X64123000Y-78035200D03*
X61125800Y-76562000D03*
X62649800Y-76562000D03*
X63411800Y-75800000D03*
X61125800Y-78086000D03*
X61938600Y-75800000D03*
X61938600Y-77324000D03*
X61938600Y-78797200D03*
X63411800Y-78797200D03*
%TD*%
D14*
%TO.P,U105,1*%
%TO.N,/JoyX*%
X104170000Y-75580000D03*
%TO.P,U105,2*%
%TO.N,GND*%
X104170000Y-77430000D03*
%TO.P,U105,3*%
%TO.N,/JoyY*%
X104170000Y-79255000D03*
%TO.P,U105,4*%
%TO.N,+3V3*%
X104170000Y-81105000D03*
D15*
%TO.P,U105,*%
%TO.N,*%
X121470000Y-78305000D03*
%TD*%
D16*
%TO.P,J103,1*%
%TO.N,/MISO*%
X66040000Y-66040000D03*
D17*
%TO.P,J103,2*%
%TO.N,/MOSI*%
X68580000Y-66040000D03*
%TO.P,J103,3*%
%TO.N,/SCK*%
X71120000Y-66040000D03*
%TO.P,J103,4*%
%TO.N,/IO15*%
X73660000Y-66040000D03*
%TO.P,J103,5*%
%TO.N,/IO16*%
X76200000Y-66040000D03*
%TO.P,J103,6*%
%TO.N,/IO17*%
X78740000Y-66040000D03*
%TO.P,J103,7*%
%TO.N,/IO18*%
X81280000Y-66040000D03*
%TO.P,J103,8*%
%TO.N,/INT1*%
X83820000Y-66040000D03*
%TO.P,J103,9*%
%TO.N,/IO9*%
X86360000Y-66040000D03*
%TO.P,J103,10*%
%TO.N,/IO10*%
X88900000Y-66040000D03*
%TO.P,J103,11*%
%TO.N,/IO11*%
X91440000Y-66040000D03*
%TO.P,J103,12*%
%TO.N,/BCLK*%
X93980000Y-66040000D03*
%TO.P,J103,13*%
%TO.N,/IO13*%
X96520000Y-66040000D03*
%TO.P,J103,14*%
%TO.N,GND*%
X99060000Y-66040000D03*
%TO.P,J103,15*%
%TO.N,+3V3*%
X101600000Y-66040000D03*
%TD*%
%TO.P,J104,15*%
%TO.N,/VBAT*%
X101600000Y-91440000D03*
%TO.P,J104,14*%
%TO.N,/VUSB*%
X99060000Y-91440000D03*
%TO.P,J104,13*%
%TO.N,GND*%
X96520000Y-91440000D03*
%TO.P,J104,12*%
X93980000Y-91440000D03*
%TO.P,J104,11*%
%TO.N,+3V3*%
X91440000Y-91440000D03*
%TO.P,J104,10*%
%TO.N,/IO48*%
X88900000Y-91440000D03*
%TO.P,J104,9*%
%TO.N,/IO46*%
X86360000Y-91440000D03*
%TO.P,J104,8*%
%TO.N,/IO45*%
X83820000Y-91440000D03*
%TO.P,J104,7*%
%TO.N,/IO42*%
X81280000Y-91440000D03*
%TO.P,J104,6*%
%TO.N,/IO38*%
X78740000Y-91440000D03*
%TO.P,J104,5*%
%TO.N,/RXD*%
X76200000Y-91440000D03*
%TO.P,J104,4*%
%TO.N,/TXD*%
X73660000Y-91440000D03*
%TO.P,J104,3*%
%TO.N,/DIN*%
X71120000Y-91440000D03*
%TO.P,J104,2*%
%TO.N,/IO14*%
X68580000Y-91440000D03*
D16*
%TO.P,J104,1*%
%TO.N,/IO3*%
X66040000Y-91440000D03*
%TD*%
D15*
%TO.P,SW103,2*%
%TO.N,Net-(R108-Pad2)*%
X57150000Y-67660000D03*
%TO.P,SW103,1*%
%TO.N,+3V3*%
X57150000Y-73660000D03*
%TD*%
%TO.P,SW104,1*%
%TO.N,+3V3*%
X57150000Y-90185000D03*
%TO.P,SW104,2*%
%TO.N,Net-(R110-Pad2)*%
X57150000Y-84185000D03*
%TD*%
D18*
%TO.P,H101,1*%
%TO.N,N/C*%
X123086726Y-65508274D03*
X121920000Y-65025000D03*
X120753274Y-65508274D03*
X120270000Y-66675000D03*
X120753274Y-67841726D03*
X121920000Y-68325000D03*
X123086726Y-67841726D03*
X123570000Y-66675000D03*
D19*
X121920000Y-66675000D03*
%TD*%
%TO.P,H102,1*%
%TO.N,N/C*%
X121920000Y-91440000D03*
D18*
X123570000Y-91440000D03*
X123086726Y-92606726D03*
X121920000Y-93090000D03*
X120753274Y-92606726D03*
X120270000Y-91440000D03*
X120753274Y-90273274D03*
X121920000Y-89790000D03*
X123086726Y-90273274D03*
%TD*%
%TO.P,H103,1*%
%TO.N,N/C*%
X51331726Y-65508274D03*
X50165000Y-65025000D03*
X48998274Y-65508274D03*
X48515000Y-66675000D03*
X48998274Y-67841726D03*
X50165000Y-68325000D03*
X51331726Y-67841726D03*
X51815000Y-66675000D03*
D19*
X50165000Y-66675000D03*
%TD*%
%TO.P,H104,1*%
%TO.N,N/C*%
X50165000Y-91440000D03*
D18*
X51815000Y-91440000D03*
X51331726Y-92606726D03*
X50165000Y-93090000D03*
X48998274Y-92606726D03*
X48515000Y-91440000D03*
X48998274Y-90273274D03*
X50165000Y-89790000D03*
X51331726Y-90273274D03*
%TD*%
D20*
%TO.N,GND*%
X60625000Y-64525000D03*
X83900000Y-86800000D03*
X95200000Y-82200000D03*
X87200000Y-86750000D03*
X90650000Y-86750000D03*
X118100000Y-92200000D03*
X113800000Y-91450000D03*
X111900000Y-92050000D03*
X110250000Y-92100000D03*
X106200000Y-91450000D03*
X119750000Y-70000000D03*
X103750000Y-69500000D03*
%TO.N,/VUSB*%
X104910200Y-68484400D03*
X107305400Y-67934300D03*
%TO.N,GND*%
X56700000Y-77925000D03*
X62325000Y-80225000D03*
X78361978Y-85479646D03*
X82250000Y-84650000D03*
X102200000Y-82950000D03*
X95000000Y-70750000D03*
X101750000Y-71500000D03*
X98500000Y-72500000D03*
X105750000Y-71250000D03*
X108500000Y-67750000D03*
X97750000Y-88500000D03*
X103250000Y-89750000D03*
X95300000Y-86850000D03*
X92850000Y-83550000D03*
X79350000Y-86900000D03*
X87100000Y-76950000D03*
X70796356Y-79568800D03*
X70450000Y-81550000D03*
X76500000Y-82325000D03*
X123500000Y-78475000D03*
X107200000Y-76200000D03*
X109825000Y-86050000D03*
X119150000Y-93725000D03*
X98050000Y-76425000D03*
X89475000Y-85925000D03*
X100275000Y-93400000D03*
X100425000Y-89450000D03*
X64325000Y-72100000D03*
X60725000Y-71750000D03*
X60625000Y-68475000D03*
X54175000Y-65425000D03*
X60100000Y-92175000D03*
X80575000Y-75150000D03*
%TO.N,Net-(C102-Pad2)*%
X106744800Y-85244900D03*
X105433500Y-83526400D03*
%TO.N,Net-(C103-Pad2)*%
X110300100Y-68297400D03*
X106261200Y-89466200D03*
X109750900Y-88788900D03*
%TO.N,/VBAT*%
X115889200Y-68795600D03*
X120016300Y-68766800D03*
X119513500Y-89542100D03*
X113538000Y-89536200D03*
%TO.N,/EN*%
X77363400Y-85426300D03*
X69630000Y-85377900D03*
X68536400Y-84087000D03*
X56815400Y-82316900D03*
%TO.N,Net-(D102-Pad1)*%
X115387700Y-72750900D03*
%TO.N,Net-(D102-Pad2)*%
X103501600Y-65412100D03*
%TO.N,Net-(J101-PadA7)*%
X119697100Y-79482100D03*
X117176000Y-72348700D03*
X114376200Y-78278800D03*
%TO.N,Net-(J101-PadA6)*%
X119618600Y-76855000D03*
X114902300Y-77100200D03*
%TO.N,Net-(J101-PadB5)*%
X115175000Y-79588700D03*
X116625700Y-79588700D03*
%TO.N,Net-(J101-PadA5)*%
X122042400Y-72878900D03*
X118714200Y-72442300D03*
%TO.N,/IO15*%
X63643000Y-68331900D03*
X95250000Y-78375000D03*
%TO.N,/IO16*%
X65828300Y-64350000D03*
%TO.N,/IO17*%
X76254800Y-64117900D03*
%TO.N,/IO18*%
X69368200Y-68221300D03*
%TO.N,/IO9*%
X74192200Y-69274600D03*
%TO.N,/IO10*%
X76568600Y-71817800D03*
%TO.N,/IO11*%
X77896200Y-71873100D03*
%TO.N,/IO13*%
X75409000Y-78190900D03*
%TO.N,+3V3*%
X97881200Y-85963600D03*
X100401200Y-80526600D03*
X81093500Y-80672900D03*
X56292800Y-71765400D03*
X99549592Y-86474592D03*
%TO.N,/IO48*%
X74227100Y-86021500D03*
X82788900Y-89170600D03*
%TO.N,/IO46*%
X72775000Y-73270000D03*
%TO.N,/IO45*%
X72788700Y-87359900D03*
X80496400Y-89902500D03*
%TO.N,/IO42*%
X62060500Y-85875100D03*
%TO.N,/RXD*%
X61317700Y-84351100D03*
%TO.N,/TXD*%
X65014100Y-89617800D03*
%TO.N,/IO14*%
X85096200Y-93299200D03*
X90374200Y-90007800D03*
X88420900Y-89464200D03*
X88565400Y-87843900D03*
X81106400Y-84599900D03*
X76600000Y-80400000D03*
%TO.N,Net-(R101-Pad2)*%
X117212500Y-88843400D03*
X115723400Y-91440000D03*
%TO.N,ChkBat*%
X58917000Y-73185800D03*
X62285100Y-73042300D03*
X68464700Y-72397800D03*
X75242900Y-71902300D03*
X76661300Y-70048900D03*
X82248500Y-69773800D03*
%TO.N,Net-(R108-Pad2)*%
X57819100Y-64283100D03*
%TO.N,Net-(R110-Pad2)*%
X60512600Y-89575400D03*
%TO.N,/BUTT2*%
X61549100Y-89650200D03*
X59128000Y-83630800D03*
%TO.N,/D-*%
X107577200Y-69650100D03*
X77867400Y-64610800D03*
X79924100Y-67823400D03*
X66728900Y-71750700D03*
%TO.N,/D+*%
X110283400Y-70277600D03*
X70885700Y-71525300D03*
%TO.N,/IO0*%
X71220500Y-88995400D03*
X74790000Y-90087100D03*
X78481200Y-88662700D03*
X85271500Y-89488900D03*
%TO.N,/LEDA*%
X58684600Y-80796300D03*
%TO.N,/DisplRST*%
X70545700Y-74857900D03*
%TO.N,/Display_CS*%
X66800000Y-83900000D03*
X70100000Y-77575000D03*
%TO.N,/DisplayDC*%
X64386365Y-86160867D03*
X69900153Y-79125153D03*
%TO.N,/JoyX*%
X59460800Y-82071800D03*
X69453000Y-81966300D03*
X70886000Y-82491600D03*
X101082300Y-81566200D03*
X101515700Y-79922900D03*
%TO.N,/JoyY*%
X58047200Y-93900300D03*
%TO.N,/MISO*%
X84307100Y-76349200D03*
X68139300Y-77773500D03*
%TO.N,/MOSI*%
X68880800Y-77100200D03*
X97047600Y-82588721D03*
X91125000Y-73800000D03*
%TO.N,/SCK*%
X79806500Y-93257800D03*
X96322600Y-81846800D03*
X76418200Y-77100200D03*
X89596800Y-82124400D03*
%TO.N,/IO38*%
X67050100Y-85105300D03*
X77049400Y-89282600D03*
%TO.N,/IO3*%
X63350400Y-84096800D03*
X66685900Y-89245000D03*
%TO.N,/INT1*%
X76566600Y-68482700D03*
X84085400Y-74361600D03*
X94953600Y-75899200D03*
X70977800Y-68516600D03*
%TO.N,/BCLK*%
X75817000Y-84684600D03*
X71203300Y-83873100D03*
X77871600Y-72873500D03*
%TO.N,/DIN*%
X75146200Y-83670100D03*
X76554200Y-83990900D03*
%TO.N,Net-(R115-Pad1)*%
X80948200Y-79222200D03*
X100891800Y-76567600D03*
X100778100Y-69825400D03*
X102823300Y-70727200D03*
%TO.N,/SDMODE*%
X88680000Y-84366200D03*
X92464600Y-88671200D03*
X92436500Y-87220500D03*
%TD*%
D21*
%TO.N,/VUSB*%
X104910200Y-68484400D02*
X106755300Y-68484400D01*
X106755300Y-68484400D02*
X107305400Y-67934300D01*
%TO.N,GND*%
X74876190Y-79593800D02*
X73124000Y-79593800D01*
X75050000Y-79419990D02*
X74876190Y-79593800D01*
X75050000Y-79075000D02*
X75050000Y-79419990D01*
X74868800Y-78893800D02*
X75050000Y-79075000D01*
X73124000Y-78893800D02*
X74868800Y-78893800D01*
X74693290Y-82393800D02*
X73124000Y-82393800D01*
X74995290Y-82091800D02*
X74693290Y-82393800D01*
X74995290Y-81745290D02*
X74995290Y-82091800D01*
X74943800Y-81693800D02*
X74995290Y-81745290D01*
X73124000Y-81693800D02*
X74943800Y-81693800D01*
X56700000Y-77925000D02*
X57500000Y-77925000D01*
X57500000Y-77925000D02*
X57950000Y-77475000D01*
X57950000Y-77475000D02*
X58900000Y-77475000D01*
X61650000Y-80225000D02*
X62325000Y-80225000D01*
X58900000Y-77475000D02*
X61650000Y-80225000D01*
X78361978Y-85479646D02*
X81520354Y-85479646D01*
X82250000Y-84750000D02*
X82250000Y-84650000D01*
X81520354Y-85479646D02*
X82250000Y-84750000D01*
X118975000Y-73785000D02*
X123155000Y-73785000D01*
X76021810Y-74693800D02*
X77011409Y-75683399D01*
X73124000Y-74693800D02*
X76021810Y-74693800D01*
X77011409Y-75683399D02*
X77011409Y-75761409D01*
X77011409Y-75761409D02*
X78400000Y-77150000D01*
X86900000Y-77150000D02*
X87100000Y-76950000D01*
X78400000Y-77150000D02*
X86900000Y-77150000D01*
X70821356Y-79593800D02*
X70796356Y-79568800D01*
X73124000Y-79593800D02*
X70821356Y-79593800D01*
X70450000Y-81550000D02*
X70550000Y-81650000D01*
X70550000Y-81650000D02*
X71200000Y-81650000D01*
X71243800Y-81693800D02*
X73124000Y-81693800D01*
X71200000Y-81650000D02*
X71243800Y-81693800D01*
%TO.N,Net-(C102-Pad2)*%
X105433500Y-83526400D02*
X106744800Y-84837700D01*
X106744800Y-84837700D02*
X106744800Y-85244900D01*
%TO.N,Net-(C103-Pad2)*%
X109750900Y-88788900D02*
X111207600Y-87332200D01*
X111207600Y-87332200D02*
X111207600Y-69204900D01*
X111207600Y-69204900D02*
X110300100Y-68297400D01*
X109750900Y-88788900D02*
X106938500Y-88788900D01*
X106938500Y-88788900D02*
X106261200Y-89466200D01*
%TO.N,/VBAT*%
X113121600Y-89952600D02*
X113538000Y-89536200D01*
X115339100Y-92170200D02*
X116885400Y-92170200D01*
X116885400Y-92170200D02*
X119513500Y-89542100D01*
X120016300Y-68766800D02*
X115918000Y-68766800D01*
X115918000Y-68766800D02*
X115889200Y-68795600D01*
X112537100Y-91287100D02*
X112537100Y-90537100D01*
X112950000Y-92800000D02*
X112950000Y-91700000D01*
X112500000Y-93250000D02*
X112950000Y-92800000D01*
X106250000Y-93250000D02*
X112500000Y-93250000D01*
X112537100Y-90537100D02*
X113121600Y-89952600D01*
X112950000Y-91700000D02*
X112537100Y-91287100D01*
X104440000Y-91440000D02*
X106250000Y-93250000D01*
X101600000Y-91440000D02*
X104440000Y-91440000D01*
X115009457Y-91799059D02*
X114750000Y-91539602D01*
X115009457Y-91840543D02*
X115009457Y-91799059D01*
X115009457Y-91840543D02*
X115339100Y-92170200D01*
X114750000Y-90748200D02*
X113538000Y-89536200D01*
X114750000Y-91539602D02*
X114750000Y-90748200D01*
%TO.N,/EN*%
X68536400Y-84087000D02*
X66975200Y-82525800D01*
X66975200Y-82525800D02*
X62375100Y-82525800D01*
X62375100Y-82525800D02*
X62090400Y-82810500D01*
X62090400Y-82810500D02*
X57309000Y-82810500D01*
X57309000Y-82810500D02*
X56815400Y-82316900D01*
X69630000Y-85377900D02*
X69738100Y-85269800D01*
X69738100Y-85269800D02*
X75376500Y-85269800D01*
X75376500Y-85269800D02*
X75533000Y-85426300D01*
X75533000Y-85426300D02*
X77363400Y-85426300D01*
%TO.N,Net-(D102-Pad1)*%
X115387700Y-72750900D02*
X115387700Y-72359200D01*
X115387700Y-72359200D02*
X109856000Y-66827500D01*
X109856000Y-66827500D02*
X106807000Y-66827500D01*
%TO.N,Net-(D102-Pad2)*%
X103501600Y-65412100D02*
X106647400Y-65412100D01*
X106647400Y-65412100D02*
X106807000Y-65252500D01*
%TO.N,Net-(J101-PadA7)*%
X119697100Y-79482100D02*
X118493900Y-78278900D01*
X118493900Y-78278900D02*
X114376200Y-78278900D01*
X114376200Y-78278900D02*
X114376200Y-78278800D01*
X117176000Y-72348700D02*
X114149600Y-75375100D01*
X114149600Y-75375100D02*
X114149600Y-78052200D01*
X114149600Y-78052200D02*
X114376200Y-78278800D01*
%TO.N,Net-(J101-PadA6)*%
X114902300Y-77100200D02*
X119373400Y-77100200D01*
X119373400Y-77100200D02*
X119618600Y-76855000D01*
%TO.N,Net-(J101-PadB5)*%
X115175000Y-79588700D02*
X116625700Y-79588700D01*
%TO.N,Net-(J101-PadA5)*%
X118714200Y-72442300D02*
X121605800Y-72442300D01*
X121605800Y-72442300D02*
X122042400Y-72878900D01*
%TO.N,/IO15*%
X72484700Y-66040000D02*
X72484700Y-65672700D01*
X72484700Y-65672700D02*
X71663900Y-64851900D01*
X71663900Y-64851900D02*
X70622400Y-64851900D01*
X70622400Y-64851900D02*
X69850000Y-65624300D01*
X69850000Y-65624300D02*
X69850000Y-66473600D01*
X69850000Y-66473600D02*
X67991700Y-68331900D01*
X67991700Y-68331900D02*
X63643000Y-68331900D01*
X73660000Y-66040000D02*
X72484700Y-66040000D01*
%TO.N,/IO16*%
X76200000Y-66040000D02*
X75024700Y-66040000D01*
X75024700Y-66040000D02*
X75024700Y-65672700D01*
X75024700Y-65672700D02*
X73702000Y-64350000D01*
X73702000Y-64350000D02*
X65828300Y-64350000D01*
%TO.N,/IO17*%
X78740000Y-66040000D02*
X77564700Y-66040000D01*
X77564700Y-66040000D02*
X77564700Y-65427800D01*
X77564700Y-65427800D02*
X76254800Y-64117900D01*
%TO.N,/IO18*%
X80104700Y-66040000D02*
X80104700Y-66407400D01*
X80104700Y-66407400D02*
X79296800Y-67215300D01*
X79296800Y-67215300D02*
X70374200Y-67215300D01*
X70374200Y-67215300D02*
X69368200Y-68221300D01*
X81280000Y-66040000D02*
X80104700Y-66040000D01*
%TO.N,/IO9*%
X85184700Y-66040000D02*
X85184700Y-66407400D01*
X85184700Y-66407400D02*
X82543600Y-69048500D01*
X82543600Y-69048500D02*
X81948100Y-69048500D01*
X81948100Y-69048500D02*
X81722000Y-69274600D01*
X81722000Y-69274600D02*
X74192200Y-69274600D01*
X86360000Y-66040000D02*
X85184700Y-66040000D01*
%TO.N,/IO10*%
X88900000Y-66040000D02*
X83803500Y-71136500D01*
X83803500Y-71136500D02*
X77249900Y-71136500D01*
X77249900Y-71136500D02*
X76568600Y-71817800D01*
%TO.N,/IO11*%
X90264700Y-66040000D02*
X90264700Y-66341300D01*
X90264700Y-66341300D02*
X84732900Y-71873100D01*
X84732900Y-71873100D02*
X77896200Y-71873100D01*
X91440000Y-66040000D02*
X90264700Y-66040000D01*
%TO.N,/IO13*%
X96520000Y-66040000D02*
X96348700Y-66211300D01*
X96348700Y-66211300D02*
X96348700Y-75575000D01*
X96348700Y-75575000D02*
X93732800Y-78190900D01*
X93732800Y-78190900D02*
X92313200Y-78190900D01*
X92313200Y-78190900D02*
X92083600Y-77961300D01*
X92083600Y-77961300D02*
X91482700Y-77961300D01*
X91482700Y-77961300D02*
X91253100Y-78190900D01*
X91253100Y-78190900D02*
X88008800Y-78190900D01*
X88008800Y-78190900D02*
X87779200Y-77961300D01*
X87779200Y-77961300D02*
X87178300Y-77961300D01*
X87178300Y-77961300D02*
X86948700Y-78190900D01*
X86948700Y-78190900D02*
X75409000Y-78190900D01*
%TO.N,+3V3*%
X71298700Y-80293800D02*
X68765000Y-80293800D01*
X68765000Y-80293800D02*
X67154600Y-78683400D01*
X67154600Y-78683400D02*
X66393600Y-78683400D01*
X66393600Y-78683400D02*
X66162600Y-78452400D01*
X66162600Y-78452400D02*
X65789400Y-78452400D01*
X65789400Y-78452400D02*
X64876200Y-79365600D01*
X64876200Y-79365600D02*
X61639500Y-79365600D01*
X61639500Y-79365600D02*
X58485300Y-76211400D01*
X58485300Y-76211400D02*
X58485300Y-74845200D01*
X58485300Y-74845200D02*
X58412200Y-74772100D01*
X58412200Y-74772100D02*
X58168900Y-74772100D01*
X58168900Y-74772100D02*
X58091500Y-74849500D01*
X58091500Y-74849500D02*
X57358900Y-74849500D01*
X57358900Y-74849500D02*
X57285800Y-74922600D01*
X57285800Y-74922600D02*
X57285800Y-74922700D01*
X57285800Y-74922700D02*
X57223200Y-74985300D01*
X57223200Y-74985300D02*
X57150000Y-74985300D01*
X100401200Y-80671200D02*
X100401200Y-80526600D01*
X101807600Y-81265700D02*
X101213100Y-80671200D01*
X101213100Y-80671200D02*
X100401200Y-80671200D01*
X100401200Y-80671200D02*
X81095200Y-80671200D01*
X81095200Y-80671200D02*
X81093500Y-80672900D01*
X101807600Y-81265700D02*
X101807600Y-82037200D01*
X101807600Y-82037200D02*
X97881200Y-85963600D01*
X57150000Y-74985300D02*
X55742600Y-76392700D01*
X55742600Y-76392700D02*
X55742600Y-87452300D01*
X55742600Y-87452300D02*
X57150000Y-88859700D01*
X102094700Y-81105000D02*
X101968300Y-81105000D01*
X101968300Y-81105000D02*
X101807600Y-81265700D01*
X57150000Y-90185000D02*
X57150000Y-88859700D01*
X104170000Y-81105000D02*
X102094700Y-81105000D01*
X57150000Y-73660000D02*
X57150000Y-72334700D01*
X56292800Y-71765400D02*
X56862100Y-72334700D01*
X56862100Y-72334700D02*
X57150000Y-72334700D01*
X73124000Y-80293800D02*
X71298700Y-80293800D01*
X57150000Y-73660000D02*
X57150000Y-74985300D01*
X98392192Y-86474592D02*
X97881200Y-85963600D01*
X99549592Y-86474592D02*
X98392192Y-86474592D01*
X80710300Y-80289700D02*
X81093500Y-80672900D01*
X80223199Y-79570201D02*
X80710300Y-80057302D01*
X79989910Y-78640910D02*
X80223199Y-78874199D01*
X76609090Y-78640910D02*
X79989910Y-78640910D01*
X75891700Y-79358300D02*
X76609090Y-78640910D01*
X75748100Y-79358300D02*
X75891700Y-79358300D01*
X80710300Y-80057302D02*
X80710300Y-80289700D01*
X80223199Y-78874199D02*
X80223199Y-79570201D01*
X74949300Y-80157100D02*
X75748100Y-79358300D01*
X74949300Y-80293800D02*
X74949300Y-80157100D01*
X73124000Y-80293800D02*
X74949300Y-80293800D01*
%TO.N,/IO48*%
X74807500Y-86601900D02*
X74227100Y-86021500D01*
X76498100Y-86601900D02*
X74807500Y-86601900D01*
X76498100Y-86648100D02*
X76498100Y-86601900D01*
X77787699Y-87937699D02*
X76498100Y-86648100D01*
X81555999Y-87937699D02*
X77787699Y-87937699D01*
X82788900Y-89170600D02*
X81555999Y-87937699D01*
%TO.N,/IO45*%
X80496400Y-89902500D02*
X78695100Y-89902500D01*
X78695100Y-89902500D02*
X76152500Y-87359900D01*
X76152500Y-87359900D02*
X72788700Y-87359900D01*
%TO.N,/IO42*%
X62060500Y-85875100D02*
X62302000Y-86116600D01*
X62302000Y-86116600D02*
X62302000Y-90617800D01*
X62302000Y-90617800D02*
X64765300Y-93081100D01*
X64765300Y-93081100D02*
X78830900Y-93081100D01*
X78830900Y-93081100D02*
X80104700Y-91807300D01*
X80104700Y-91807300D02*
X80104700Y-91440000D01*
X81280000Y-91440000D02*
X80104700Y-91440000D01*
%TO.N,/RXD*%
X61317700Y-84351100D02*
X61562300Y-84351100D01*
X61562300Y-84351100D02*
X63804300Y-86593100D01*
X63804300Y-86593100D02*
X63804300Y-91406800D01*
X63804300Y-91406800D02*
X65012800Y-92615300D01*
X65012800Y-92615300D02*
X74216800Y-92615300D01*
X74216800Y-92615300D02*
X75024700Y-91807400D01*
X75024700Y-91807400D02*
X75024700Y-91440000D01*
X76200000Y-91440000D02*
X75024700Y-91440000D01*
%TO.N,/TXD*%
X65014100Y-89617800D02*
X65661000Y-90264700D01*
X65661000Y-90264700D02*
X71676800Y-90264700D01*
X71676800Y-90264700D02*
X72484700Y-91072600D01*
X72484700Y-91072600D02*
X72484700Y-91440000D01*
X73660000Y-91440000D02*
X72484700Y-91440000D01*
%TO.N,/IO14*%
X90374200Y-90007800D02*
X90264600Y-90117400D01*
X90264600Y-90117400D02*
X90264600Y-91756800D01*
X90264600Y-91756800D02*
X88722200Y-93299200D01*
X88722200Y-93299200D02*
X85096200Y-93299200D01*
X88565400Y-87843900D02*
X88565400Y-89319700D01*
X88565400Y-89319700D02*
X88420900Y-89464200D01*
X80799900Y-84599900D02*
X81106400Y-84599900D01*
X76600000Y-80400000D02*
X80799900Y-84599900D01*
%TO.N,Net-(R101-Pad2)*%
X115723400Y-91440000D02*
X117212500Y-89950900D01*
X117212500Y-89950900D02*
X117212500Y-88843400D01*
%TO.N,ChkBat*%
X62285100Y-73042300D02*
X59060500Y-73042300D01*
X59060500Y-73042300D02*
X58917000Y-73185800D01*
X75242900Y-71902300D02*
X74747400Y-72397800D01*
X74747400Y-72397800D02*
X68464700Y-72397800D01*
X82248500Y-69773800D02*
X76936400Y-69773800D01*
X76936400Y-69773800D02*
X76661300Y-70048900D01*
%TO.N,Net-(R108-Pad2)*%
X57150000Y-67660000D02*
X57150000Y-66334700D01*
X57150000Y-66334700D02*
X57819100Y-65665600D01*
X57819100Y-65665600D02*
X57819100Y-64283100D01*
%TO.N,Net-(R110-Pad2)*%
X57150000Y-84185000D02*
X57150000Y-85510300D01*
X60512600Y-89575400D02*
X60512600Y-88872900D01*
X60512600Y-88872900D02*
X57150000Y-85510300D01*
%TO.N,/BUTT2*%
X59128000Y-83630800D02*
X59128000Y-83968300D01*
X59128000Y-83968300D02*
X61549100Y-86389400D01*
X61549100Y-86389400D02*
X61549100Y-89650200D01*
%TO.N,/D-*%
X77867400Y-64610800D02*
X78130000Y-64348200D01*
X78130000Y-64348200D02*
X101604000Y-64348200D01*
X101604000Y-64348200D02*
X102775400Y-65519600D01*
X102775400Y-65519600D02*
X102775400Y-67414400D01*
X102775400Y-67414400D02*
X105011100Y-69650100D01*
X105011100Y-69650100D02*
X107577200Y-69650100D01*
X66728900Y-71750700D02*
X66877700Y-71750700D01*
X66877700Y-71750700D02*
X70093600Y-68534800D01*
X70093600Y-68534800D02*
X70093600Y-68333800D01*
X70093600Y-68333800D02*
X70682900Y-67744500D01*
X70682900Y-67744500D02*
X79845200Y-67744500D01*
X79845200Y-67744500D02*
X79924100Y-67823400D01*
%TO.N,/D+*%
X110185600Y-70375400D02*
X110283400Y-70277600D01*
X103544502Y-70375400D02*
X110185600Y-70375400D01*
X103171301Y-70002199D02*
X103544502Y-70375400D01*
X102752199Y-70002199D02*
X103171301Y-70002199D01*
X100330000Y-65636600D02*
X100330000Y-66457500D01*
X71636800Y-70774200D02*
X76961800Y-70774200D01*
X70885700Y-71525300D02*
X71636800Y-70774200D01*
X99501600Y-64808200D02*
X100330000Y-65636600D01*
X102061250Y-68188750D02*
X102061250Y-69311250D01*
X76961800Y-70774200D02*
X77172500Y-70563500D01*
X102061250Y-69311250D02*
X102752199Y-70002199D01*
X77172500Y-70563500D02*
X83504900Y-70563500D01*
X83504900Y-70563500D02*
X87724700Y-66343700D01*
X87724700Y-66343700D02*
X87724700Y-65553100D01*
X87724700Y-65553100D02*
X88469600Y-64808200D01*
X88469600Y-64808200D02*
X99501600Y-64808200D01*
X100330000Y-66457500D02*
X102061250Y-68188750D01*
%TO.N,/IO0*%
X85271500Y-89488900D02*
X84810500Y-89949900D01*
X84810500Y-89949900D02*
X82535100Y-89949900D01*
X82535100Y-89949900D02*
X81247900Y-88662700D01*
X81247900Y-88662700D02*
X78481200Y-88662700D01*
X74790000Y-90087100D02*
X73698300Y-88995400D01*
X73698300Y-88995400D02*
X71220500Y-88995400D01*
%TO.N,/LEDA*%
X58684600Y-80796300D02*
X58882100Y-80993800D01*
X73124000Y-80993800D02*
X71298700Y-80993800D01*
X71298700Y-80948700D02*
X71093810Y-80743810D01*
X71298700Y-80993800D02*
X71298700Y-80948700D01*
X71093810Y-80743810D02*
X69056190Y-80743810D01*
X69056190Y-80743810D02*
X68806200Y-80993800D01*
X58882100Y-80993800D02*
X68806200Y-80993800D01*
%TO.N,/DisplRST*%
X73124000Y-75393800D02*
X71081600Y-75393800D01*
X71081600Y-75393800D02*
X70545700Y-74857900D01*
%TO.N,/Display_CS*%
X70100000Y-77575000D02*
X70875000Y-77575000D01*
X70956200Y-77493800D02*
X73124000Y-77493800D01*
X70875000Y-77575000D02*
X70956200Y-77493800D01*
%TO.N,/DisplayDC*%
X69900153Y-79125153D02*
X70200000Y-78825306D01*
X70200000Y-78825306D02*
X70200000Y-78700000D01*
X70200000Y-78700000D02*
X70700000Y-78200000D01*
X73117800Y-78200000D02*
X73124000Y-78193800D01*
X70700000Y-78200000D02*
X73117800Y-78200000D01*
%TO.N,/JoyX*%
X104170000Y-75580000D02*
X102094700Y-75580000D01*
X69453000Y-81966300D02*
X59566300Y-81966300D01*
X59566300Y-81966300D02*
X59460800Y-82071800D01*
X102094700Y-75580000D02*
X102094700Y-79343900D01*
X102094700Y-79343900D02*
X101515700Y-79922900D01*
X95744300Y-81399400D02*
X96022200Y-81121500D01*
X96623100Y-81121500D02*
X97067800Y-81566200D01*
X80746998Y-81399400D02*
X95744300Y-81399400D01*
X80260290Y-80912692D02*
X80746998Y-81399400D01*
X79773189Y-79756601D02*
X80260290Y-80243702D01*
X79773189Y-79090920D02*
X79773189Y-79756601D01*
X97067800Y-81566200D02*
X101082300Y-81566200D01*
X70886000Y-82491600D02*
X71294800Y-82900400D01*
X71294800Y-82900400D02*
X74823100Y-82900400D01*
X74823100Y-82900400D02*
X76123501Y-81599999D01*
X96022200Y-81121500D02*
X96623100Y-81121500D01*
X76123501Y-81599999D02*
X76123501Y-81376499D01*
X76200000Y-81258901D02*
X75974099Y-81258901D01*
X75597099Y-80881901D02*
X75597099Y-80185899D01*
X75982998Y-79800000D02*
X76086410Y-79800000D01*
X76123501Y-81376499D02*
X76200000Y-81300000D01*
X76086410Y-79800000D02*
X76795490Y-79090920D01*
X76200000Y-81300000D02*
X76200000Y-81258901D01*
X75974099Y-81258901D02*
X75597099Y-80881901D01*
X80260290Y-80243702D02*
X80260290Y-80912692D01*
X75597099Y-80185899D02*
X75982998Y-79800000D01*
X76795490Y-79090920D02*
X79773189Y-79090920D01*
%TO.N,/JoyY*%
X58047200Y-93900300D02*
X58171400Y-94024500D01*
X58171400Y-94024500D02*
X93070700Y-94024500D01*
X93070700Y-94024500D02*
X95183300Y-91911900D01*
X95183300Y-91911900D02*
X95183300Y-91113100D01*
X105458900Y-82801000D02*
X106245300Y-82014600D01*
X106245300Y-82014600D02*
X106245300Y-79255000D01*
X104170000Y-79255000D02*
X106245300Y-79255000D01*
X96673200Y-89623200D02*
X99351800Y-89623200D01*
X95183300Y-91113100D02*
X96673200Y-89623200D01*
X99351800Y-89623200D02*
X100950000Y-88025000D01*
X100950000Y-85402000D02*
X103551000Y-82801000D01*
X100950000Y-88025000D02*
X100950000Y-85402000D01*
X103551000Y-82801000D02*
X105458900Y-82801000D01*
%TO.N,/MISO*%
X68837800Y-75540100D02*
X62902900Y-69605300D01*
X62902900Y-69605300D02*
X62902900Y-68001800D01*
X62902900Y-68001800D02*
X64864700Y-66040000D01*
X68139300Y-77773500D02*
X68139300Y-76638600D01*
X68139300Y-76638600D02*
X68837800Y-75940100D01*
X68837800Y-75940100D02*
X68837800Y-75540200D01*
X68837800Y-75540200D02*
X68837800Y-75540100D01*
X84307100Y-76349200D02*
X78369200Y-76349200D01*
X78369200Y-76349200D02*
X76213400Y-74193400D01*
X76213400Y-74193400D02*
X70907000Y-74193400D01*
X70907000Y-74193400D02*
X70846200Y-74132600D01*
X70846200Y-74132600D02*
X70245300Y-74132600D01*
X70245300Y-74132600D02*
X68837800Y-75540100D01*
X66040000Y-66040000D02*
X64864700Y-66040000D01*
%TO.N,/MOSI*%
X72211400Y-76093800D02*
X73124000Y-76093800D01*
X71298700Y-76093800D02*
X69887200Y-76093800D01*
X69887200Y-76093800D02*
X68880800Y-77100200D01*
X72211400Y-76093800D02*
X71298700Y-76093800D01*
%TO.N,/SCK*%
X86027400Y-89833800D02*
X85184600Y-90676600D01*
X85184600Y-90676600D02*
X85184600Y-91767200D01*
X85184600Y-91767200D02*
X83694000Y-93257800D01*
X83694000Y-93257800D02*
X79806500Y-93257800D01*
X88848600Y-82872600D02*
X89596800Y-82124400D01*
X86122600Y-83922600D02*
X87172600Y-82872600D01*
X86027400Y-83922600D02*
X86122600Y-83922600D01*
X87172600Y-82872600D02*
X88848600Y-82872600D01*
X86027400Y-83922600D02*
X86027400Y-89833800D01*
X89818000Y-81903200D02*
X89596800Y-82124400D01*
X92153200Y-81953200D02*
X92153200Y-81903200D01*
X92153200Y-81903200D02*
X89818000Y-81903200D01*
X93024999Y-82824999D02*
X92153200Y-81953200D01*
X93198001Y-82824999D02*
X93024999Y-82824999D01*
X94123002Y-83750000D02*
X93198001Y-82824999D01*
X95200000Y-83750000D02*
X94123002Y-83750000D01*
X96322599Y-82627401D02*
X95200000Y-83750000D01*
X96322600Y-81846800D02*
X96322599Y-82627401D01*
X76111800Y-76793800D02*
X76418200Y-77100200D01*
X73124000Y-76793800D02*
X76111800Y-76793800D01*
%TO.N,/IO38*%
X67050100Y-85105300D02*
X70086800Y-88142000D01*
X70086800Y-88142000D02*
X75908800Y-88142000D01*
X75908800Y-88142000D02*
X77049400Y-89282600D01*
%TO.N,/IO3*%
X66685900Y-89245000D02*
X66685900Y-87432300D01*
X66685900Y-87432300D02*
X63350400Y-84096800D01*
%TO.N,/INT1*%
X76566600Y-68482700D02*
X76632600Y-68548700D01*
X76632600Y-68548700D02*
X80434100Y-68548700D01*
X80434100Y-68548700D02*
X82644700Y-66338100D01*
X82644700Y-66338100D02*
X82644700Y-66040000D01*
X84085400Y-74361600D02*
X85623000Y-75899200D01*
X85623000Y-75899200D02*
X94953600Y-75899200D01*
X76566600Y-68482700D02*
X76460000Y-68376100D01*
X76460000Y-68376100D02*
X71118300Y-68376100D01*
X71118300Y-68376100D02*
X70977800Y-68516600D01*
X83820000Y-66040000D02*
X82644700Y-66040000D01*
%TO.N,/BCLK*%
X92804700Y-66040000D02*
X92804700Y-66386500D01*
X92804700Y-66386500D02*
X86496600Y-72694600D01*
X86496600Y-72694600D02*
X85992400Y-72694600D01*
X85992400Y-72694600D02*
X85813500Y-72873500D01*
X85813500Y-72873500D02*
X77871600Y-72873500D01*
X71203300Y-83873100D02*
X72014800Y-84684600D01*
X72014800Y-84684600D02*
X75817000Y-84684600D01*
X93980000Y-66040000D02*
X92804700Y-66040000D01*
%TO.N,/DIN*%
X76554200Y-83990900D02*
X76233400Y-83670100D01*
X76233400Y-83670100D02*
X75146200Y-83670100D01*
%TO.N,Net-(R115-Pad1)*%
X80948200Y-79222200D02*
X81189300Y-79463300D01*
X81189300Y-79463300D02*
X96409300Y-79463300D01*
X96409300Y-79463300D02*
X96559000Y-79613000D01*
X96559000Y-79613000D02*
X96932200Y-79613000D01*
X96932200Y-79613000D02*
X97081900Y-79463300D01*
X97081900Y-79463300D02*
X97996100Y-79463300D01*
X97996100Y-79463300D02*
X100891800Y-76567600D01*
X102823300Y-70727200D02*
X101921500Y-69825400D01*
X101921500Y-69825400D02*
X100778100Y-69825400D01*
%TO.N,/SDMODE*%
X92436500Y-87220500D02*
X93198800Y-87220500D01*
X93198800Y-87220500D02*
X93886800Y-86532500D01*
X93886800Y-86532500D02*
X93886800Y-85931900D01*
X93886800Y-85931900D02*
X92321100Y-84366200D01*
X92321100Y-84366200D02*
X88680000Y-84366200D01*
X92464600Y-88671200D02*
X92464600Y-87248600D01*
X92464600Y-87248600D02*
X92436500Y-87220500D01*
%TD*%
D22*
%TO.N,GND*%
X56784100Y-64181161D02*
X56784100Y-64385039D01*
X56823874Y-64584998D01*
X56901895Y-64773356D01*
X57015163Y-64942874D01*
X57059100Y-64986811D01*
X57059100Y-65350798D01*
X56638998Y-65770901D01*
X56610000Y-65794699D01*
X56586202Y-65823697D01*
X56586201Y-65823698D01*
X56515026Y-65910424D01*
X56455425Y-66021928D01*
X56150000Y-66021928D01*
X56025518Y-66034188D01*
X55905820Y-66070498D01*
X55795506Y-66129463D01*
X55698815Y-66208815D01*
X55619463Y-66305506D01*
X55560498Y-66415820D01*
X55524188Y-66535518D01*
X55511928Y-66660000D01*
X55511928Y-68660000D01*
X55524188Y-68784482D01*
X55560498Y-68904180D01*
X55619463Y-69014494D01*
X55698815Y-69111185D01*
X55795506Y-69190537D01*
X55905820Y-69249502D01*
X56025518Y-69285812D01*
X56150000Y-69298072D01*
X58150000Y-69298072D01*
X58274482Y-69285812D01*
X58394180Y-69249502D01*
X58504494Y-69190537D01*
X58601185Y-69111185D01*
X58680537Y-69014494D01*
X58739502Y-68904180D01*
X58775812Y-68784482D01*
X58788072Y-68660000D01*
X58788072Y-66660000D01*
X58775812Y-66535518D01*
X58739502Y-66415820D01*
X58680537Y-66305506D01*
X58601185Y-66208815D01*
X58504494Y-66129463D01*
X58446866Y-66098659D01*
X58454074Y-66089876D01*
X58524646Y-65957847D01*
X58568103Y-65814586D01*
X58579100Y-65702933D01*
X58579100Y-65702924D01*
X58582776Y-65665601D01*
X58579100Y-65628278D01*
X58579100Y-64986811D01*
X58623037Y-64942874D01*
X58736305Y-64773356D01*
X58814326Y-64584998D01*
X58854100Y-64385039D01*
X58854100Y-64181161D01*
X58849891Y-64160000D01*
X64810816Y-64160000D01*
X64793300Y-64248061D01*
X64793300Y-64451939D01*
X64833074Y-64651898D01*
X64836080Y-64659156D01*
X64835506Y-64659463D01*
X64738815Y-64738815D01*
X64659463Y-64835506D01*
X64600498Y-64945820D01*
X64564188Y-65065518D01*
X64551928Y-65190000D01*
X64551928Y-65345425D01*
X64440424Y-65405026D01*
X64324699Y-65499999D01*
X64300901Y-65528997D01*
X62391898Y-67438001D01*
X62362900Y-67461799D01*
X62339102Y-67490797D01*
X62339101Y-67490798D01*
X62267926Y-67577524D01*
X62197354Y-67709554D01*
X62174227Y-67785798D01*
X62153898Y-67852814D01*
X62147899Y-67913726D01*
X62139224Y-68001800D01*
X62142901Y-68039132D01*
X62142900Y-69567978D01*
X62139224Y-69605306D01*
X62142900Y-69642626D01*
X62142900Y-69642632D01*
X62153897Y-69754285D01*
X62197354Y-69897546D01*
X62267926Y-70029575D01*
X62267927Y-70029576D01*
X62267930Y-70029581D01*
X62298989Y-70067426D01*
X62362899Y-70145301D01*
X62391902Y-70169103D01*
X67962995Y-75740103D01*
X67628298Y-76074801D01*
X67599300Y-76098599D01*
X67575502Y-76127597D01*
X67575501Y-76127598D01*
X67504326Y-76214324D01*
X67433754Y-76346354D01*
X67428176Y-76364744D01*
X67390485Y-76489000D01*
X67390298Y-76489615D01*
X67375624Y-76638600D01*
X67379301Y-76675932D01*
X67379301Y-77069788D01*
X67335363Y-77113726D01*
X67222095Y-77283244D01*
X67144074Y-77471602D01*
X67104300Y-77671561D01*
X67104300Y-77875439D01*
X67113840Y-77923400D01*
X66711629Y-77923400D01*
X66702601Y-77912399D01*
X66586876Y-77817426D01*
X66454847Y-77746854D01*
X66311586Y-77703397D01*
X66199933Y-77692400D01*
X66199922Y-77692400D01*
X66162600Y-77688724D01*
X66125278Y-77692400D01*
X65826723Y-77692400D01*
X65789400Y-77688724D01*
X65752077Y-77692400D01*
X65752067Y-77692400D01*
X65640414Y-77703397D01*
X65497153Y-77746854D01*
X65365124Y-77817426D01*
X65249399Y-77912399D01*
X65225601Y-77941397D01*
X64935265Y-78231733D01*
X64958000Y-78117440D01*
X64958000Y-77952960D01*
X64925911Y-77791640D01*
X64862967Y-77639679D01*
X64771587Y-77502919D01*
X64655281Y-77386613D01*
X64523560Y-77298600D01*
X64655281Y-77210587D01*
X64771587Y-77094281D01*
X64862967Y-76957521D01*
X64925911Y-76805560D01*
X64958000Y-76644240D01*
X64958000Y-76479760D01*
X64925911Y-76318440D01*
X64862967Y-76166479D01*
X64771587Y-76029719D01*
X64655281Y-75913413D01*
X64518521Y-75822033D01*
X64366560Y-75759089D01*
X64246800Y-75735267D01*
X64246800Y-75717760D01*
X64214711Y-75556440D01*
X64151767Y-75404479D01*
X64060387Y-75267719D01*
X63944081Y-75151413D01*
X63807321Y-75060033D01*
X63655360Y-74997089D01*
X63494040Y-74965000D01*
X63329560Y-74965000D01*
X63168240Y-74997089D01*
X63016279Y-75060033D01*
X62879519Y-75151413D01*
X62763213Y-75267719D01*
X62675200Y-75399440D01*
X62587187Y-75267719D01*
X62470881Y-75151413D01*
X62334121Y-75060033D01*
X62182160Y-74997089D01*
X62020840Y-74965000D01*
X61856360Y-74965000D01*
X61695040Y-74997089D01*
X61543079Y-75060033D01*
X61406319Y-75151413D01*
X61290013Y-75267719D01*
X61198633Y-75404479D01*
X61135689Y-75556440D01*
X61103600Y-75717760D01*
X61103600Y-75727000D01*
X61043560Y-75727000D01*
X60882240Y-75759089D01*
X60730279Y-75822033D01*
X60593519Y-75913413D01*
X60477213Y-76029719D01*
X60385833Y-76166479D01*
X60322889Y-76318440D01*
X60290800Y-76479760D01*
X60290800Y-76644240D01*
X60322889Y-76805560D01*
X60385833Y-76957521D01*
X60477213Y-77094281D01*
X60593519Y-77210587D01*
X60730279Y-77301967D01*
X60783472Y-77324000D01*
X60730279Y-77346033D01*
X60708972Y-77360270D01*
X59245300Y-75896599D01*
X59245300Y-74882522D01*
X59248976Y-74845199D01*
X59245300Y-74807877D01*
X59245300Y-74807867D01*
X59234303Y-74696214D01*
X59190846Y-74552953D01*
X59120274Y-74420924D01*
X59025301Y-74305199D01*
X58996297Y-74281396D01*
X58976004Y-74261103D01*
X58952201Y-74232099D01*
X58938433Y-74220800D01*
X59018939Y-74220800D01*
X59218898Y-74181026D01*
X59407256Y-74103005D01*
X59576774Y-73989737D01*
X59720937Y-73845574D01*
X59749852Y-73802300D01*
X61581389Y-73802300D01*
X61625326Y-73846237D01*
X61794844Y-73959505D01*
X61983202Y-74037526D01*
X62183161Y-74077300D01*
X62387039Y-74077300D01*
X62586998Y-74037526D01*
X62775356Y-73959505D01*
X62944874Y-73846237D01*
X63089037Y-73702074D01*
X63202305Y-73532556D01*
X63280326Y-73344198D01*
X63320100Y-73144239D01*
X63320100Y-72940361D01*
X63280326Y-72740402D01*
X63202305Y-72552044D01*
X63089037Y-72382526D01*
X62944874Y-72238363D01*
X62775356Y-72125095D01*
X62586998Y-72047074D01*
X62387039Y-72007300D01*
X62183161Y-72007300D01*
X61983202Y-72047074D01*
X61794844Y-72125095D01*
X61625326Y-72238363D01*
X61581389Y-72282300D01*
X59427767Y-72282300D01*
X59407256Y-72268595D01*
X59218898Y-72190574D01*
X59018939Y-72150800D01*
X58815061Y-72150800D01*
X58615102Y-72190574D01*
X58591082Y-72200524D01*
X58504494Y-72129463D01*
X58394180Y-72070498D01*
X58274482Y-72034188D01*
X58150000Y-72021928D01*
X57844575Y-72021928D01*
X57784974Y-71910424D01*
X57690001Y-71794699D01*
X57574276Y-71699726D01*
X57442247Y-71629154D01*
X57313189Y-71590005D01*
X57288026Y-71463502D01*
X57210005Y-71275144D01*
X57096737Y-71105626D01*
X56952574Y-70961463D01*
X56783056Y-70848195D01*
X56594698Y-70770174D01*
X56394739Y-70730400D01*
X56190861Y-70730400D01*
X55990902Y-70770174D01*
X55802544Y-70848195D01*
X55633026Y-70961463D01*
X55488863Y-71105626D01*
X55375595Y-71275144D01*
X55297574Y-71463502D01*
X55257800Y-71663461D01*
X55257800Y-71867339D01*
X55297574Y-72067298D01*
X55375595Y-72255656D01*
X55488863Y-72425174D01*
X55541648Y-72477959D01*
X55524188Y-72535518D01*
X55511928Y-72660000D01*
X55511928Y-74660000D01*
X55524188Y-74784482D01*
X55560498Y-74904180D01*
X55619463Y-75014494D01*
X55698815Y-75111185D01*
X55795506Y-75190537D01*
X55844026Y-75216472D01*
X55231603Y-75828896D01*
X55202599Y-75852699D01*
X55148352Y-75918800D01*
X55107626Y-75968424D01*
X55055898Y-76065200D01*
X55037054Y-76100454D01*
X54993597Y-76243715D01*
X54982600Y-76355368D01*
X54982600Y-76355378D01*
X54978924Y-76392700D01*
X54982600Y-76430022D01*
X54982601Y-87414968D01*
X54978924Y-87452300D01*
X54982601Y-87489633D01*
X54993598Y-87601286D01*
X55002611Y-87630997D01*
X55037054Y-87744546D01*
X55107626Y-87876576D01*
X55178801Y-87963302D01*
X55202600Y-87992301D01*
X55231598Y-88016099D01*
X55844026Y-88628528D01*
X55795506Y-88654463D01*
X55698815Y-88733815D01*
X55619463Y-88830506D01*
X55560498Y-88940820D01*
X55524188Y-89060518D01*
X55511928Y-89185000D01*
X55511928Y-91185000D01*
X55524188Y-91309482D01*
X55560498Y-91429180D01*
X55619463Y-91539494D01*
X55698815Y-91636185D01*
X55795506Y-91715537D01*
X55905820Y-91774502D01*
X56025518Y-91810812D01*
X56150000Y-91823072D01*
X58150000Y-91823072D01*
X58274482Y-91810812D01*
X58394180Y-91774502D01*
X58504494Y-91715537D01*
X58601185Y-91636185D01*
X58680537Y-91539494D01*
X58739502Y-91429180D01*
X58775812Y-91309482D01*
X58788072Y-91185000D01*
X58788072Y-89185000D01*
X58775812Y-89060518D01*
X58739502Y-88940820D01*
X58680537Y-88830506D01*
X58601185Y-88733815D01*
X58504494Y-88654463D01*
X58394180Y-88595498D01*
X58274482Y-88559188D01*
X58150000Y-88546928D01*
X57844575Y-88546928D01*
X57784974Y-88435424D01*
X57690001Y-88319699D01*
X57661003Y-88295901D01*
X56502600Y-87137499D01*
X56502600Y-85911329D01*
X56515026Y-85934576D01*
X56562563Y-85992499D01*
X56610000Y-86050301D01*
X56638998Y-86074099D01*
X59617284Y-89052385D01*
X59595395Y-89085144D01*
X59517374Y-89273502D01*
X59477600Y-89473461D01*
X59477600Y-89677339D01*
X59517374Y-89877298D01*
X59595395Y-90065656D01*
X59708663Y-90235174D01*
X59852826Y-90379337D01*
X60022344Y-90492605D01*
X60210702Y-90570626D01*
X60410661Y-90610400D01*
X60614539Y-90610400D01*
X60814498Y-90570626D01*
X60968312Y-90506914D01*
X61058844Y-90567405D01*
X61247202Y-90645426D01*
X61447161Y-90685200D01*
X61544962Y-90685200D01*
X61552998Y-90766786D01*
X61564499Y-90804701D01*
X61596454Y-90910046D01*
X61667026Y-91042076D01*
X61732476Y-91121826D01*
X61762000Y-91157801D01*
X61790998Y-91181599D01*
X63873898Y-93264500D01*
X58867156Y-93264500D01*
X58851137Y-93240526D01*
X58706974Y-93096363D01*
X58537456Y-92983095D01*
X58349098Y-92905074D01*
X58149139Y-92865300D01*
X57945261Y-92865300D01*
X57745302Y-92905074D01*
X57556944Y-92983095D01*
X57387426Y-93096363D01*
X57243263Y-93240526D01*
X57129995Y-93410044D01*
X57051974Y-93598402D01*
X57012200Y-93798361D01*
X57012200Y-93955000D01*
X51501464Y-93955000D01*
X51507876Y-93952344D01*
X51972207Y-93642088D01*
X52367088Y-93247207D01*
X52677344Y-92782876D01*
X52891052Y-92266939D01*
X53000000Y-91719223D01*
X53000000Y-91160777D01*
X52891052Y-90613061D01*
X52677344Y-90097124D01*
X52367088Y-89632793D01*
X51972207Y-89237912D01*
X51507876Y-88927656D01*
X50991939Y-88713948D01*
X50444223Y-88605000D01*
X49885777Y-88605000D01*
X49338061Y-88713948D01*
X48822124Y-88927656D01*
X48357793Y-89237912D01*
X47962912Y-89632793D01*
X47652656Y-90097124D01*
X47650000Y-90103536D01*
X47650000Y-88392000D01*
X53975000Y-88392000D01*
X53999776Y-88389560D01*
X54023601Y-88382333D01*
X54045557Y-88370597D01*
X54064803Y-88354803D01*
X54080597Y-88335557D01*
X54092333Y-88313601D01*
X54099560Y-88289776D01*
X54102000Y-88265000D01*
X54102000Y-69215000D01*
X54099560Y-69190224D01*
X54092333Y-69166399D01*
X54080597Y-69144443D01*
X54064803Y-69125197D01*
X54045557Y-69109403D01*
X54023601Y-69097667D01*
X53999776Y-69090440D01*
X53975000Y-69088000D01*
X51656555Y-69088000D01*
X51972207Y-68877088D01*
X52367088Y-68482207D01*
X52677344Y-68017876D01*
X52891052Y-67501939D01*
X53000000Y-66954223D01*
X53000000Y-66395777D01*
X52891052Y-65848061D01*
X52677344Y-65332124D01*
X52367088Y-64867793D01*
X51972207Y-64472912D01*
X51507876Y-64162656D01*
X51501464Y-64160000D01*
X56788309Y-64160000D01*
X56784100Y-64181161D01*
%TA.AperFunction,Conductor*%
D23*
G36*
X56784100Y-64181161D02*
G01*
X56784100Y-64385039D01*
X56823874Y-64584998D01*
X56901895Y-64773356D01*
X57015163Y-64942874D01*
X57059100Y-64986811D01*
X57059100Y-65350798D01*
X56638998Y-65770901D01*
X56610000Y-65794699D01*
X56586202Y-65823697D01*
X56586201Y-65823698D01*
X56515026Y-65910424D01*
X56455425Y-66021928D01*
X56150000Y-66021928D01*
X56025518Y-66034188D01*
X55905820Y-66070498D01*
X55795506Y-66129463D01*
X55698815Y-66208815D01*
X55619463Y-66305506D01*
X55560498Y-66415820D01*
X55524188Y-66535518D01*
X55511928Y-66660000D01*
X55511928Y-68660000D01*
X55524188Y-68784482D01*
X55560498Y-68904180D01*
X55619463Y-69014494D01*
X55698815Y-69111185D01*
X55795506Y-69190537D01*
X55905820Y-69249502D01*
X56025518Y-69285812D01*
X56150000Y-69298072D01*
X58150000Y-69298072D01*
X58274482Y-69285812D01*
X58394180Y-69249502D01*
X58504494Y-69190537D01*
X58601185Y-69111185D01*
X58680537Y-69014494D01*
X58739502Y-68904180D01*
X58775812Y-68784482D01*
X58788072Y-68660000D01*
X58788072Y-66660000D01*
X58775812Y-66535518D01*
X58739502Y-66415820D01*
X58680537Y-66305506D01*
X58601185Y-66208815D01*
X58504494Y-66129463D01*
X58446866Y-66098659D01*
X58454074Y-66089876D01*
X58524646Y-65957847D01*
X58568103Y-65814586D01*
X58579100Y-65702933D01*
X58579100Y-65702924D01*
X58582776Y-65665601D01*
X58579100Y-65628278D01*
X58579100Y-64986811D01*
X58623037Y-64942874D01*
X58736305Y-64773356D01*
X58814326Y-64584998D01*
X58854100Y-64385039D01*
X58854100Y-64181161D01*
X58849891Y-64160000D01*
X64810816Y-64160000D01*
X64793300Y-64248061D01*
X64793300Y-64451939D01*
X64833074Y-64651898D01*
X64836080Y-64659156D01*
X64835506Y-64659463D01*
X64738815Y-64738815D01*
X64659463Y-64835506D01*
X64600498Y-64945820D01*
X64564188Y-65065518D01*
X64551928Y-65190000D01*
X64551928Y-65345425D01*
X64440424Y-65405026D01*
X64324699Y-65499999D01*
X64300901Y-65528997D01*
X62391898Y-67438001D01*
X62362900Y-67461799D01*
X62339102Y-67490797D01*
X62339101Y-67490798D01*
X62267926Y-67577524D01*
X62197354Y-67709554D01*
X62174227Y-67785798D01*
X62153898Y-67852814D01*
X62147899Y-67913726D01*
X62139224Y-68001800D01*
X62142901Y-68039132D01*
X62142900Y-69567978D01*
X62139224Y-69605306D01*
X62142900Y-69642626D01*
X62142900Y-69642632D01*
X62153897Y-69754285D01*
X62197354Y-69897546D01*
X62267926Y-70029575D01*
X62267927Y-70029576D01*
X62267930Y-70029581D01*
X62298989Y-70067426D01*
X62362899Y-70145301D01*
X62391902Y-70169103D01*
X67962995Y-75740103D01*
X67628298Y-76074801D01*
X67599300Y-76098599D01*
X67575502Y-76127597D01*
X67575501Y-76127598D01*
X67504326Y-76214324D01*
X67433754Y-76346354D01*
X67428176Y-76364744D01*
X67390485Y-76489000D01*
X67390298Y-76489615D01*
X67375624Y-76638600D01*
X67379301Y-76675932D01*
X67379301Y-77069788D01*
X67335363Y-77113726D01*
X67222095Y-77283244D01*
X67144074Y-77471602D01*
X67104300Y-77671561D01*
X67104300Y-77875439D01*
X67113840Y-77923400D01*
X66711629Y-77923400D01*
X66702601Y-77912399D01*
X66586876Y-77817426D01*
X66454847Y-77746854D01*
X66311586Y-77703397D01*
X66199933Y-77692400D01*
X66199922Y-77692400D01*
X66162600Y-77688724D01*
X66125278Y-77692400D01*
X65826723Y-77692400D01*
X65789400Y-77688724D01*
X65752077Y-77692400D01*
X65752067Y-77692400D01*
X65640414Y-77703397D01*
X65497153Y-77746854D01*
X65365124Y-77817426D01*
X65249399Y-77912399D01*
X65225601Y-77941397D01*
X64935265Y-78231733D01*
X64958000Y-78117440D01*
X64958000Y-77952960D01*
X64925911Y-77791640D01*
X64862967Y-77639679D01*
X64771587Y-77502919D01*
X64655281Y-77386613D01*
X64523560Y-77298600D01*
X64655281Y-77210587D01*
X64771587Y-77094281D01*
X64862967Y-76957521D01*
X64925911Y-76805560D01*
X64958000Y-76644240D01*
X64958000Y-76479760D01*
X64925911Y-76318440D01*
X64862967Y-76166479D01*
X64771587Y-76029719D01*
X64655281Y-75913413D01*
X64518521Y-75822033D01*
X64366560Y-75759089D01*
X64246800Y-75735267D01*
X64246800Y-75717760D01*
X64214711Y-75556440D01*
X64151767Y-75404479D01*
X64060387Y-75267719D01*
X63944081Y-75151413D01*
X63807321Y-75060033D01*
X63655360Y-74997089D01*
X63494040Y-74965000D01*
X63329560Y-74965000D01*
X63168240Y-74997089D01*
X63016279Y-75060033D01*
X62879519Y-75151413D01*
X62763213Y-75267719D01*
X62675200Y-75399440D01*
X62587187Y-75267719D01*
X62470881Y-75151413D01*
X62334121Y-75060033D01*
X62182160Y-74997089D01*
X62020840Y-74965000D01*
X61856360Y-74965000D01*
X61695040Y-74997089D01*
X61543079Y-75060033D01*
X61406319Y-75151413D01*
X61290013Y-75267719D01*
X61198633Y-75404479D01*
X61135689Y-75556440D01*
X61103600Y-75717760D01*
X61103600Y-75727000D01*
X61043560Y-75727000D01*
X60882240Y-75759089D01*
X60730279Y-75822033D01*
X60593519Y-75913413D01*
X60477213Y-76029719D01*
X60385833Y-76166479D01*
X60322889Y-76318440D01*
X60290800Y-76479760D01*
X60290800Y-76644240D01*
X60322889Y-76805560D01*
X60385833Y-76957521D01*
X60477213Y-77094281D01*
X60593519Y-77210587D01*
X60730279Y-77301967D01*
X60783472Y-77324000D01*
X60730279Y-77346033D01*
X60708972Y-77360270D01*
X59245300Y-75896599D01*
X59245300Y-74882522D01*
X59248976Y-74845199D01*
X59245300Y-74807877D01*
X59245300Y-74807867D01*
X59234303Y-74696214D01*
X59190846Y-74552953D01*
X59120274Y-74420924D01*
X59025301Y-74305199D01*
X58996297Y-74281396D01*
X58976004Y-74261103D01*
X58952201Y-74232099D01*
X58938433Y-74220800D01*
X59018939Y-74220800D01*
X59218898Y-74181026D01*
X59407256Y-74103005D01*
X59576774Y-73989737D01*
X59720937Y-73845574D01*
X59749852Y-73802300D01*
X61581389Y-73802300D01*
X61625326Y-73846237D01*
X61794844Y-73959505D01*
X61983202Y-74037526D01*
X62183161Y-74077300D01*
X62387039Y-74077300D01*
X62586998Y-74037526D01*
X62775356Y-73959505D01*
X62944874Y-73846237D01*
X63089037Y-73702074D01*
X63202305Y-73532556D01*
X63280326Y-73344198D01*
X63320100Y-73144239D01*
X63320100Y-72940361D01*
X63280326Y-72740402D01*
X63202305Y-72552044D01*
X63089037Y-72382526D01*
X62944874Y-72238363D01*
X62775356Y-72125095D01*
X62586998Y-72047074D01*
X62387039Y-72007300D01*
X62183161Y-72007300D01*
X61983202Y-72047074D01*
X61794844Y-72125095D01*
X61625326Y-72238363D01*
X61581389Y-72282300D01*
X59427767Y-72282300D01*
X59407256Y-72268595D01*
X59218898Y-72190574D01*
X59018939Y-72150800D01*
X58815061Y-72150800D01*
X58615102Y-72190574D01*
X58591082Y-72200524D01*
X58504494Y-72129463D01*
X58394180Y-72070498D01*
X58274482Y-72034188D01*
X58150000Y-72021928D01*
X57844575Y-72021928D01*
X57784974Y-71910424D01*
X57690001Y-71794699D01*
X57574276Y-71699726D01*
X57442247Y-71629154D01*
X57313189Y-71590005D01*
X57288026Y-71463502D01*
X57210005Y-71275144D01*
X57096737Y-71105626D01*
X56952574Y-70961463D01*
X56783056Y-70848195D01*
X56594698Y-70770174D01*
X56394739Y-70730400D01*
X56190861Y-70730400D01*
X55990902Y-70770174D01*
X55802544Y-70848195D01*
X55633026Y-70961463D01*
X55488863Y-71105626D01*
X55375595Y-71275144D01*
X55297574Y-71463502D01*
X55257800Y-71663461D01*
X55257800Y-71867339D01*
X55297574Y-72067298D01*
X55375595Y-72255656D01*
X55488863Y-72425174D01*
X55541648Y-72477959D01*
X55524188Y-72535518D01*
X55511928Y-72660000D01*
X55511928Y-74660000D01*
X55524188Y-74784482D01*
X55560498Y-74904180D01*
X55619463Y-75014494D01*
X55698815Y-75111185D01*
X55795506Y-75190537D01*
X55844026Y-75216472D01*
X55231603Y-75828896D01*
X55202599Y-75852699D01*
X55148352Y-75918800D01*
X55107626Y-75968424D01*
X55055898Y-76065200D01*
X55037054Y-76100454D01*
X54993597Y-76243715D01*
X54982600Y-76355368D01*
X54982600Y-76355378D01*
X54978924Y-76392700D01*
X54982600Y-76430022D01*
X54982601Y-87414968D01*
X54978924Y-87452300D01*
X54982601Y-87489633D01*
X54993598Y-87601286D01*
X55002611Y-87630997D01*
X55037054Y-87744546D01*
X55107626Y-87876576D01*
X55178801Y-87963302D01*
X55202600Y-87992301D01*
X55231598Y-88016099D01*
X55844026Y-88628528D01*
X55795506Y-88654463D01*
X55698815Y-88733815D01*
X55619463Y-88830506D01*
X55560498Y-88940820D01*
X55524188Y-89060518D01*
X55511928Y-89185000D01*
X55511928Y-91185000D01*
X55524188Y-91309482D01*
X55560498Y-91429180D01*
X55619463Y-91539494D01*
X55698815Y-91636185D01*
X55795506Y-91715537D01*
X55905820Y-91774502D01*
X56025518Y-91810812D01*
X56150000Y-91823072D01*
X58150000Y-91823072D01*
X58274482Y-91810812D01*
X58394180Y-91774502D01*
X58504494Y-91715537D01*
X58601185Y-91636185D01*
X58680537Y-91539494D01*
X58739502Y-91429180D01*
X58775812Y-91309482D01*
X58788072Y-91185000D01*
X58788072Y-89185000D01*
X58775812Y-89060518D01*
X58739502Y-88940820D01*
X58680537Y-88830506D01*
X58601185Y-88733815D01*
X58504494Y-88654463D01*
X58394180Y-88595498D01*
X58274482Y-88559188D01*
X58150000Y-88546928D01*
X57844575Y-88546928D01*
X57784974Y-88435424D01*
X57690001Y-88319699D01*
X57661003Y-88295901D01*
X56502600Y-87137499D01*
X56502600Y-85911329D01*
X56515026Y-85934576D01*
X56562563Y-85992499D01*
X56610000Y-86050301D01*
X56638998Y-86074099D01*
X59617284Y-89052385D01*
X59595395Y-89085144D01*
X59517374Y-89273502D01*
X59477600Y-89473461D01*
X59477600Y-89677339D01*
X59517374Y-89877298D01*
X59595395Y-90065656D01*
X59708663Y-90235174D01*
X59852826Y-90379337D01*
X60022344Y-90492605D01*
X60210702Y-90570626D01*
X60410661Y-90610400D01*
X60614539Y-90610400D01*
X60814498Y-90570626D01*
X60968312Y-90506914D01*
X61058844Y-90567405D01*
X61247202Y-90645426D01*
X61447161Y-90685200D01*
X61544962Y-90685200D01*
X61552998Y-90766786D01*
X61564499Y-90804701D01*
X61596454Y-90910046D01*
X61667026Y-91042076D01*
X61732476Y-91121826D01*
X61762000Y-91157801D01*
X61790998Y-91181599D01*
X63873898Y-93264500D01*
X58867156Y-93264500D01*
X58851137Y-93240526D01*
X58706974Y-93096363D01*
X58537456Y-92983095D01*
X58349098Y-92905074D01*
X58149139Y-92865300D01*
X57945261Y-92865300D01*
X57745302Y-92905074D01*
X57556944Y-92983095D01*
X57387426Y-93096363D01*
X57243263Y-93240526D01*
X57129995Y-93410044D01*
X57051974Y-93598402D01*
X57012200Y-93798361D01*
X57012200Y-93955000D01*
X51501464Y-93955000D01*
X51507876Y-93952344D01*
X51972207Y-93642088D01*
X52367088Y-93247207D01*
X52677344Y-92782876D01*
X52891052Y-92266939D01*
X53000000Y-91719223D01*
X53000000Y-91160777D01*
X52891052Y-90613061D01*
X52677344Y-90097124D01*
X52367088Y-89632793D01*
X51972207Y-89237912D01*
X51507876Y-88927656D01*
X50991939Y-88713948D01*
X50444223Y-88605000D01*
X49885777Y-88605000D01*
X49338061Y-88713948D01*
X48822124Y-88927656D01*
X48357793Y-89237912D01*
X47962912Y-89632793D01*
X47652656Y-90097124D01*
X47650000Y-90103536D01*
X47650000Y-88392000D01*
X53975000Y-88392000D01*
X53999776Y-88389560D01*
X54023601Y-88382333D01*
X54045557Y-88370597D01*
X54064803Y-88354803D01*
X54080597Y-88335557D01*
X54092333Y-88313601D01*
X54099560Y-88289776D01*
X54102000Y-88265000D01*
X54102000Y-69215000D01*
X54099560Y-69190224D01*
X54092333Y-69166399D01*
X54080597Y-69144443D01*
X54064803Y-69125197D01*
X54045557Y-69109403D01*
X54023601Y-69097667D01*
X53999776Y-69090440D01*
X53975000Y-69088000D01*
X51656555Y-69088000D01*
X51972207Y-68877088D01*
X52367088Y-68482207D01*
X52677344Y-68017876D01*
X52891052Y-67501939D01*
X53000000Y-66954223D01*
X53000000Y-66395777D01*
X52891052Y-65848061D01*
X52677344Y-65332124D01*
X52367088Y-64867793D01*
X51972207Y-64472912D01*
X51507876Y-64162656D01*
X51501464Y-64160000D01*
X56788309Y-64160000D01*
X56784100Y-64181161D01*
G37*
%TD.AperFunction*%
D22*
X96647000Y-91313000D02*
X96667000Y-91313000D01*
X96667000Y-91567000D01*
X96647000Y-91567000D01*
X96647000Y-92760155D01*
X96876890Y-92881476D01*
X97024099Y-92836825D01*
X97286920Y-92711641D01*
X97520269Y-92537588D01*
X97715178Y-92321355D01*
X97784805Y-92204466D01*
X97906525Y-92386632D01*
X98113368Y-92593475D01*
X98356589Y-92755990D01*
X98626842Y-92867932D01*
X98913740Y-92925000D01*
X99206260Y-92925000D01*
X99493158Y-92867932D01*
X99763411Y-92755990D01*
X100006632Y-92593475D01*
X100213475Y-92386632D01*
X100330000Y-92212240D01*
X100446525Y-92386632D01*
X100653368Y-92593475D01*
X100896589Y-92755990D01*
X101166842Y-92867932D01*
X101453740Y-92925000D01*
X101746260Y-92925000D01*
X102033158Y-92867932D01*
X102303411Y-92755990D01*
X102546632Y-92593475D01*
X102753475Y-92386632D01*
X102878178Y-92200000D01*
X104125199Y-92200000D01*
X105686201Y-93761003D01*
X105709999Y-93790001D01*
X105825724Y-93884974D01*
X105956732Y-93955000D01*
X94215001Y-93955000D01*
X95584273Y-92585729D01*
X95753080Y-92711641D01*
X96015901Y-92836825D01*
X96163110Y-92881476D01*
X96393000Y-92760155D01*
X96393000Y-91567000D01*
X96373000Y-91567000D01*
X96373000Y-91313000D01*
X96393000Y-91313000D01*
X96393000Y-91293000D01*
X96647000Y-91293000D01*
X96647000Y-91313000D01*
%TA.AperFunction,Conductor*%
D23*
G36*
X96647000Y-91313000D02*
G01*
X96667000Y-91313000D01*
X96667000Y-91567000D01*
X96647000Y-91567000D01*
X96647000Y-92760155D01*
X96876890Y-92881476D01*
X97024099Y-92836825D01*
X97286920Y-92711641D01*
X97520269Y-92537588D01*
X97715178Y-92321355D01*
X97784805Y-92204466D01*
X97906525Y-92386632D01*
X98113368Y-92593475D01*
X98356589Y-92755990D01*
X98626842Y-92867932D01*
X98913740Y-92925000D01*
X99206260Y-92925000D01*
X99493158Y-92867932D01*
X99763411Y-92755990D01*
X100006632Y-92593475D01*
X100213475Y-92386632D01*
X100330000Y-92212240D01*
X100446525Y-92386632D01*
X100653368Y-92593475D01*
X100896589Y-92755990D01*
X101166842Y-92867932D01*
X101453740Y-92925000D01*
X101746260Y-92925000D01*
X102033158Y-92867932D01*
X102303411Y-92755990D01*
X102546632Y-92593475D01*
X102753475Y-92386632D01*
X102878178Y-92200000D01*
X104125199Y-92200000D01*
X105686201Y-93761003D01*
X105709999Y-93790001D01*
X105825724Y-93884974D01*
X105956732Y-93955000D01*
X94215001Y-93955000D01*
X95584273Y-92585729D01*
X95753080Y-92711641D01*
X96015901Y-92836825D01*
X96163110Y-92881476D01*
X96393000Y-92760155D01*
X96393000Y-91567000D01*
X96373000Y-91567000D01*
X96373000Y-91313000D01*
X96393000Y-91313000D01*
X96393000Y-91293000D01*
X96647000Y-91293000D01*
X96647000Y-91313000D01*
G37*
%TD.AperFunction*%
D22*
X113990000Y-91063002D02*
X113990000Y-91502280D01*
X113986324Y-91539602D01*
X113990000Y-91576924D01*
X113990000Y-91576934D01*
X114000997Y-91688587D01*
X114034508Y-91799059D01*
X114044454Y-91831848D01*
X114115026Y-91963878D01*
X114138636Y-91992646D01*
X114209999Y-92079603D01*
X114239003Y-92103406D01*
X114344704Y-92209107D01*
X114374474Y-92264805D01*
X114374480Y-92264812D01*
X114374483Y-92264818D01*
X114429071Y-92331334D01*
X114445647Y-92351533D01*
X114445650Y-92351536D01*
X114469456Y-92380544D01*
X114498452Y-92404341D01*
X114775295Y-92681195D01*
X114799099Y-92710201D01*
X114843693Y-92746798D01*
X114914811Y-92805165D01*
X114914817Y-92805168D01*
X114914824Y-92805174D01*
X114981367Y-92840743D01*
X115046838Y-92875740D01*
X115046847Y-92875743D01*
X115046853Y-92875746D01*
X115107161Y-92894040D01*
X115190098Y-92919200D01*
X115190107Y-92919201D01*
X115190114Y-92919203D01*
X115261444Y-92926229D01*
X115339084Y-92933877D01*
X115376424Y-92930200D01*
X116848078Y-92930200D01*
X116885400Y-92933876D01*
X116922722Y-92930200D01*
X116922733Y-92930200D01*
X117034386Y-92919203D01*
X117177647Y-92875746D01*
X117309676Y-92805174D01*
X117425401Y-92710201D01*
X117449204Y-92681197D01*
X119113648Y-91016753D01*
X119085000Y-91160777D01*
X119085000Y-91719223D01*
X119193948Y-92266939D01*
X119407656Y-92782876D01*
X119717912Y-93247207D01*
X120112793Y-93642088D01*
X120577124Y-93952344D01*
X120583536Y-93955000D01*
X112793268Y-93955000D01*
X112924276Y-93884974D01*
X113040001Y-93790001D01*
X113063804Y-93760997D01*
X113460998Y-93363803D01*
X113490001Y-93340001D01*
X113563863Y-93250000D01*
X113584974Y-93224277D01*
X113655546Y-93092247D01*
X113657101Y-93087121D01*
X113699003Y-92948986D01*
X113710000Y-92837333D01*
X113710000Y-92837324D01*
X113713676Y-92800001D01*
X113710000Y-92762678D01*
X113710000Y-91737325D01*
X113713676Y-91700000D01*
X113710000Y-91662675D01*
X113710000Y-91662667D01*
X113699003Y-91551014D01*
X113655546Y-91407753D01*
X113584974Y-91275724D01*
X113490001Y-91159999D01*
X113460997Y-91136196D01*
X113297100Y-90972299D01*
X113297100Y-90851901D01*
X113538000Y-90611002D01*
X113990000Y-91063002D01*
%TA.AperFunction,Conductor*%
D23*
G36*
X113990000Y-91063002D02*
G01*
X113990000Y-91502280D01*
X113986324Y-91539602D01*
X113990000Y-91576924D01*
X113990000Y-91576934D01*
X114000997Y-91688587D01*
X114034508Y-91799059D01*
X114044454Y-91831848D01*
X114115026Y-91963878D01*
X114138636Y-91992646D01*
X114209999Y-92079603D01*
X114239003Y-92103406D01*
X114344704Y-92209107D01*
X114374474Y-92264805D01*
X114374480Y-92264812D01*
X114374483Y-92264818D01*
X114429071Y-92331334D01*
X114445647Y-92351533D01*
X114445650Y-92351536D01*
X114469456Y-92380544D01*
X114498452Y-92404341D01*
X114775295Y-92681195D01*
X114799099Y-92710201D01*
X114843693Y-92746798D01*
X114914811Y-92805165D01*
X114914817Y-92805168D01*
X114914824Y-92805174D01*
X114981367Y-92840743D01*
X115046838Y-92875740D01*
X115046847Y-92875743D01*
X115046853Y-92875746D01*
X115107161Y-92894040D01*
X115190098Y-92919200D01*
X115190107Y-92919201D01*
X115190114Y-92919203D01*
X115261444Y-92926229D01*
X115339084Y-92933877D01*
X115376424Y-92930200D01*
X116848078Y-92930200D01*
X116885400Y-92933876D01*
X116922722Y-92930200D01*
X116922733Y-92930200D01*
X117034386Y-92919203D01*
X117177647Y-92875746D01*
X117309676Y-92805174D01*
X117425401Y-92710201D01*
X117449204Y-92681197D01*
X119113648Y-91016753D01*
X119085000Y-91160777D01*
X119085000Y-91719223D01*
X119193948Y-92266939D01*
X119407656Y-92782876D01*
X119717912Y-93247207D01*
X120112793Y-93642088D01*
X120577124Y-93952344D01*
X120583536Y-93955000D01*
X112793268Y-93955000D01*
X112924276Y-93884974D01*
X113040001Y-93790001D01*
X113063804Y-93760997D01*
X113460998Y-93363803D01*
X113490001Y-93340001D01*
X113563863Y-93250000D01*
X113584974Y-93224277D01*
X113655546Y-93092247D01*
X113657101Y-93087121D01*
X113699003Y-92948986D01*
X113710000Y-92837333D01*
X113710000Y-92837324D01*
X113713676Y-92800001D01*
X113710000Y-92762678D01*
X113710000Y-91737325D01*
X113713676Y-91700000D01*
X113710000Y-91662675D01*
X113710000Y-91662667D01*
X113699003Y-91551014D01*
X113655546Y-91407753D01*
X113584974Y-91275724D01*
X113490001Y-91159999D01*
X113460997Y-91136196D01*
X113297100Y-90972299D01*
X113297100Y-90851901D01*
X113538000Y-90611002D01*
X113990000Y-91063002D01*
G37*
%TD.AperFunction*%
D22*
X120577124Y-64162656D02*
X120112793Y-64472912D01*
X119717912Y-64867793D01*
X119407656Y-65332124D01*
X119193948Y-65848061D01*
X119085000Y-66395777D01*
X119085000Y-66954223D01*
X119193948Y-67501939D01*
X119378725Y-67948030D01*
X119356526Y-67962863D01*
X119312589Y-68006800D01*
X116564111Y-68006800D01*
X116548974Y-67991663D01*
X116379456Y-67878395D01*
X116191098Y-67800374D01*
X115991139Y-67760600D01*
X115787261Y-67760600D01*
X115587302Y-67800374D01*
X115398944Y-67878395D01*
X115229426Y-67991663D01*
X115085263Y-68135826D01*
X114971995Y-68305344D01*
X114893974Y-68493702D01*
X114854200Y-68693661D01*
X114854200Y-68897539D01*
X114893974Y-69097498D01*
X114971995Y-69285856D01*
X115085263Y-69455374D01*
X115229426Y-69599537D01*
X115398944Y-69712805D01*
X115587302Y-69790826D01*
X115787261Y-69830600D01*
X115991139Y-69830600D01*
X116191098Y-69790826D01*
X116379456Y-69712805D01*
X116548974Y-69599537D01*
X116621711Y-69526800D01*
X119312589Y-69526800D01*
X119356526Y-69570737D01*
X119526044Y-69684005D01*
X119714402Y-69762026D01*
X119914361Y-69801800D01*
X120118239Y-69801800D01*
X120318198Y-69762026D01*
X120506556Y-69684005D01*
X120676074Y-69570737D01*
X120820237Y-69426574D01*
X120892734Y-69318074D01*
X121093061Y-69401052D01*
X121640777Y-69510000D01*
X122199223Y-69510000D01*
X122746939Y-69401052D01*
X123262876Y-69187344D01*
X123727207Y-68877088D01*
X124122088Y-68482207D01*
X124432344Y-68017876D01*
X124435001Y-68011462D01*
X124435001Y-73207226D01*
X124347369Y-73072236D01*
X124191169Y-72911839D01*
X124006678Y-72784997D01*
X123800987Y-72696585D01*
X123582000Y-72650000D01*
X123282000Y-72650000D01*
X123282000Y-73658000D01*
X123302000Y-73658000D01*
X123302000Y-73912000D01*
X123282000Y-73912000D01*
X123282000Y-74920000D01*
X123582000Y-74920000D01*
X123800987Y-74873415D01*
X124006678Y-74785003D01*
X124191169Y-74658161D01*
X124347369Y-74497764D01*
X124435001Y-74362774D01*
X124435000Y-81847225D01*
X124347369Y-81712236D01*
X124191169Y-81551839D01*
X124006678Y-81424997D01*
X123800987Y-81336585D01*
X123582000Y-81290000D01*
X123282000Y-81290000D01*
X123282000Y-82298000D01*
X123302000Y-82298000D01*
X123302000Y-82552000D01*
X123282000Y-82552000D01*
X123282000Y-83560000D01*
X123582000Y-83560000D01*
X123800987Y-83513415D01*
X124006678Y-83425003D01*
X124191169Y-83298161D01*
X124347369Y-83137764D01*
X124435000Y-83002775D01*
X124435000Y-90103536D01*
X124432344Y-90097124D01*
X124122088Y-89632793D01*
X123727207Y-89237912D01*
X123262876Y-88927656D01*
X122746939Y-88713948D01*
X122199223Y-88605000D01*
X121640777Y-88605000D01*
X121093061Y-88713948D01*
X120577124Y-88927656D01*
X120418531Y-89033624D01*
X120317437Y-88882326D01*
X120173274Y-88738163D01*
X120003756Y-88624895D01*
X119815398Y-88546874D01*
X119615439Y-88507100D01*
X119411561Y-88507100D01*
X119211602Y-88546874D01*
X119023244Y-88624895D01*
X118853726Y-88738163D01*
X118709563Y-88882326D01*
X118596295Y-89051844D01*
X118518274Y-89240202D01*
X118478500Y-89440161D01*
X118478500Y-89502298D01*
X117970308Y-90010491D01*
X117972500Y-89988233D01*
X117972500Y-89988224D01*
X117976176Y-89950901D01*
X117972500Y-89913578D01*
X117972500Y-89547111D01*
X118016437Y-89503174D01*
X118129705Y-89333656D01*
X118207726Y-89145298D01*
X118247500Y-88945339D01*
X118247500Y-88741461D01*
X118207726Y-88541502D01*
X118129705Y-88353144D01*
X118016437Y-88183626D01*
X117872274Y-88039463D01*
X117702756Y-87926195D01*
X117514398Y-87848174D01*
X117314439Y-87808400D01*
X117110561Y-87808400D01*
X116910602Y-87848174D01*
X116722244Y-87926195D01*
X116552726Y-88039463D01*
X116408563Y-88183626D01*
X116295295Y-88353144D01*
X116217274Y-88541502D01*
X116177500Y-88741461D01*
X116177500Y-88945339D01*
X116217274Y-89145298D01*
X116295295Y-89333656D01*
X116408563Y-89503174D01*
X116452500Y-89547111D01*
X116452500Y-89636097D01*
X115683598Y-90405000D01*
X115621461Y-90405000D01*
X115446873Y-90439727D01*
X115384974Y-90323924D01*
X115290001Y-90208199D01*
X115261003Y-90184401D01*
X114573000Y-89496399D01*
X114573000Y-89434261D01*
X114533226Y-89234302D01*
X114455205Y-89045944D01*
X114341937Y-88876426D01*
X114197774Y-88732263D01*
X114028256Y-88618995D01*
X113839898Y-88540974D01*
X113639939Y-88501200D01*
X113436061Y-88501200D01*
X113236102Y-88540974D01*
X113047744Y-88618995D01*
X112878226Y-88732263D01*
X112734063Y-88876426D01*
X112620795Y-89045944D01*
X112542774Y-89234302D01*
X112503000Y-89434261D01*
X112503000Y-89496398D01*
X112026098Y-89973301D01*
X111997100Y-89997099D01*
X111973302Y-90026097D01*
X111973301Y-90026098D01*
X111902126Y-90112824D01*
X111831554Y-90244854D01*
X111820893Y-90280000D01*
X111788097Y-90388114D01*
X111777100Y-90499767D01*
X111777100Y-90499778D01*
X111773424Y-90537100D01*
X111777100Y-90574422D01*
X111777100Y-91249778D01*
X111773424Y-91287100D01*
X111777100Y-91324422D01*
X111777100Y-91324432D01*
X111788097Y-91436085D01*
X111819498Y-91539602D01*
X111831554Y-91579346D01*
X111902126Y-91711376D01*
X111919254Y-91732246D01*
X111997099Y-91827101D01*
X112026103Y-91850904D01*
X112190001Y-92014802D01*
X112190000Y-92485199D01*
X112185199Y-92490000D01*
X106564802Y-92490000D01*
X105003804Y-90929003D01*
X104980001Y-90899999D01*
X104864276Y-90805026D01*
X104732247Y-90734454D01*
X104588986Y-90690997D01*
X104477333Y-90680000D01*
X104477322Y-90680000D01*
X104440000Y-90676324D01*
X104402678Y-90680000D01*
X102878178Y-90680000D01*
X102753475Y-90493368D01*
X102546632Y-90286525D01*
X102303411Y-90124010D01*
X102033158Y-90012068D01*
X101746260Y-89955000D01*
X101453740Y-89955000D01*
X101166842Y-90012068D01*
X100896589Y-90124010D01*
X100653368Y-90286525D01*
X100446525Y-90493368D01*
X100330000Y-90667760D01*
X100213475Y-90493368D01*
X100006632Y-90286525D01*
X99860504Y-90188886D01*
X99891801Y-90163201D01*
X99915604Y-90134197D01*
X101461004Y-88588798D01*
X101490001Y-88565001D01*
X101537519Y-88507100D01*
X101584974Y-88449277D01*
X101655546Y-88317247D01*
X101667723Y-88277105D01*
X101699003Y-88173986D01*
X101710000Y-88062333D01*
X101710000Y-88062324D01*
X101713676Y-88025001D01*
X101710000Y-87987678D01*
X101710000Y-87782239D01*
X101877748Y-87949987D01*
X102145537Y-88128918D01*
X102443088Y-88252168D01*
X102758967Y-88315000D01*
X103081033Y-88315000D01*
X103396912Y-88252168D01*
X103694463Y-88128918D01*
X103962252Y-87949987D01*
X104189987Y-87722252D01*
X104368918Y-87454463D01*
X104492168Y-87156912D01*
X104555000Y-86841033D01*
X104555000Y-86518967D01*
X104492168Y-86203088D01*
X104368918Y-85905537D01*
X104189987Y-85637748D01*
X103962252Y-85410013D01*
X103694463Y-85231082D01*
X103396912Y-85107832D01*
X103081033Y-85045000D01*
X102758967Y-85045000D01*
X102443088Y-85107832D01*
X102231204Y-85195597D01*
X103865803Y-83561000D01*
X104398500Y-83561000D01*
X104398500Y-83628339D01*
X104438274Y-83828298D01*
X104516295Y-84016656D01*
X104629563Y-84186174D01*
X104773726Y-84330337D01*
X104943244Y-84443605D01*
X105131602Y-84521626D01*
X105331561Y-84561400D01*
X105393699Y-84561400D01*
X105757109Y-84924811D01*
X105749574Y-84943002D01*
X105709800Y-85142961D01*
X105709800Y-85346839D01*
X105749574Y-85546798D01*
X105827595Y-85735156D01*
X105940863Y-85904674D01*
X106085026Y-86048837D01*
X106254544Y-86162105D01*
X106442902Y-86240126D01*
X106642861Y-86279900D01*
X106846739Y-86279900D01*
X107046698Y-86240126D01*
X107235056Y-86162105D01*
X107404574Y-86048837D01*
X107548737Y-85904674D01*
X107662005Y-85735156D01*
X107740026Y-85546798D01*
X107779800Y-85346839D01*
X107779800Y-85142961D01*
X107740026Y-84943002D01*
X107662005Y-84754644D01*
X107548737Y-84585126D01*
X107404574Y-84440963D01*
X107388894Y-84430486D01*
X107379774Y-84413424D01*
X107284801Y-84297699D01*
X107255804Y-84273902D01*
X106468500Y-83486599D01*
X106468500Y-83424461D01*
X106428726Y-83224502D01*
X106350705Y-83036144D01*
X106329818Y-83004884D01*
X106756304Y-82578398D01*
X106785301Y-82554601D01*
X106880274Y-82438876D01*
X106950846Y-82306847D01*
X106994303Y-82163586D01*
X107005300Y-82051933D01*
X107005300Y-82051932D01*
X107008977Y-82014600D01*
X107005300Y-81977267D01*
X107005300Y-79292333D01*
X107008977Y-79255000D01*
X106994303Y-79106014D01*
X106950846Y-78962753D01*
X106880274Y-78830724D01*
X106785301Y-78714999D01*
X106669576Y-78620026D01*
X106558072Y-78560425D01*
X106558072Y-78493000D01*
X106545812Y-78368518D01*
X106537920Y-78342500D01*
X106545812Y-78316482D01*
X106558072Y-78192000D01*
X106555000Y-77715750D01*
X106396250Y-77557000D01*
X104297000Y-77557000D01*
X104297000Y-77577000D01*
X104043000Y-77577000D01*
X104043000Y-77557000D01*
X104023000Y-77557000D01*
X104023000Y-77303000D01*
X104043000Y-77303000D01*
X104043000Y-77283000D01*
X104297000Y-77283000D01*
X104297000Y-77303000D01*
X106396250Y-77303000D01*
X106555000Y-77144250D01*
X106558072Y-76668000D01*
X106545812Y-76543518D01*
X106534128Y-76505000D01*
X106545812Y-76466482D01*
X106558072Y-76342000D01*
X106558072Y-74818000D01*
X106545812Y-74693518D01*
X106509502Y-74573820D01*
X106450537Y-74463506D01*
X106371185Y-74366815D01*
X106274494Y-74287463D01*
X106164180Y-74228498D01*
X106044482Y-74192188D01*
X105920000Y-74179928D01*
X102420000Y-74179928D01*
X102295518Y-74192188D01*
X102175820Y-74228498D01*
X102065506Y-74287463D01*
X101968815Y-74366815D01*
X101889463Y-74463506D01*
X101830498Y-74573820D01*
X101794188Y-74693518D01*
X101781928Y-74818000D01*
X101781928Y-74885425D01*
X101670424Y-74945026D01*
X101554699Y-75039999D01*
X101459726Y-75155724D01*
X101389154Y-75287753D01*
X101345697Y-75431014D01*
X101331023Y-75580000D01*
X101334700Y-75617333D01*
X101334700Y-75630779D01*
X101193698Y-75572374D01*
X100993739Y-75532600D01*
X100789861Y-75532600D01*
X100589902Y-75572374D01*
X100401544Y-75650395D01*
X100232026Y-75763663D01*
X100087863Y-75907826D01*
X99974595Y-76077344D01*
X99896574Y-76265702D01*
X99856800Y-76465661D01*
X99856800Y-76527798D01*
X97681299Y-78703300D01*
X97119225Y-78703300D01*
X97081900Y-78699624D01*
X97044575Y-78703300D01*
X97044567Y-78703300D01*
X96932914Y-78714297D01*
X96789653Y-78757754D01*
X96745600Y-78781301D01*
X96701547Y-78757754D01*
X96558286Y-78714297D01*
X96446633Y-78703300D01*
X96446622Y-78703300D01*
X96409300Y-78699624D01*
X96371978Y-78703300D01*
X96234290Y-78703300D01*
X96245226Y-78676898D01*
X96285000Y-78476939D01*
X96285000Y-78273061D01*
X96245226Y-78073102D01*
X96167205Y-77884744D01*
X96053937Y-77715226D01*
X95909774Y-77571063D01*
X95740256Y-77457795D01*
X95599153Y-77399348D01*
X96859703Y-76138799D01*
X96888701Y-76115001D01*
X96983674Y-75999276D01*
X97054246Y-75867247D01*
X97097703Y-75723986D01*
X97108700Y-75612333D01*
X97108700Y-75612324D01*
X97112376Y-75575001D01*
X97108700Y-75537678D01*
X97108700Y-67403505D01*
X97223411Y-67355990D01*
X97466632Y-67193475D01*
X97673475Y-66986632D01*
X97795195Y-66804466D01*
X97864822Y-66921355D01*
X98059731Y-67137588D01*
X98293080Y-67311641D01*
X98555901Y-67436825D01*
X98703110Y-67481476D01*
X98933000Y-67360155D01*
X98933000Y-66167000D01*
X98913000Y-66167000D01*
X98913000Y-65913000D01*
X98933000Y-65913000D01*
X98933000Y-65893000D01*
X99187000Y-65893000D01*
X99187000Y-65913000D01*
X99207000Y-65913000D01*
X99207000Y-66167000D01*
X99187000Y-66167000D01*
X99187000Y-67360155D01*
X99416890Y-67481476D01*
X99564099Y-67436825D01*
X99826920Y-67311641D01*
X99988683Y-67190984D01*
X101301250Y-68503552D01*
X101301251Y-68930174D01*
X101268356Y-68908195D01*
X101079998Y-68830174D01*
X100880039Y-68790400D01*
X100676161Y-68790400D01*
X100476202Y-68830174D01*
X100287844Y-68908195D01*
X100118326Y-69021463D01*
X99974163Y-69165626D01*
X99860895Y-69335144D01*
X99782874Y-69523502D01*
X99743100Y-69723461D01*
X99743100Y-69927339D01*
X99782874Y-70127298D01*
X99860895Y-70315656D01*
X99974163Y-70485174D01*
X100118326Y-70629337D01*
X100287844Y-70742605D01*
X100476202Y-70820626D01*
X100676161Y-70860400D01*
X100880039Y-70860400D01*
X101079998Y-70820626D01*
X101268356Y-70742605D01*
X101437874Y-70629337D01*
X101481811Y-70585400D01*
X101606699Y-70585400D01*
X101788300Y-70767001D01*
X101788300Y-70829139D01*
X101828074Y-71029098D01*
X101906095Y-71217456D01*
X102019363Y-71386974D01*
X102163526Y-71531137D01*
X102333044Y-71644405D01*
X102521402Y-71722426D01*
X102721361Y-71762200D01*
X102925239Y-71762200D01*
X103125198Y-71722426D01*
X103313556Y-71644405D01*
X103483074Y-71531137D01*
X103627237Y-71386974D01*
X103740505Y-71217456D01*
X103774494Y-71135400D01*
X109704238Y-71135400D01*
X109793144Y-71194805D01*
X109981502Y-71272826D01*
X110181461Y-71312600D01*
X110385339Y-71312600D01*
X110447601Y-71300215D01*
X110447600Y-87017398D01*
X109711099Y-87753900D01*
X109648961Y-87753900D01*
X109449002Y-87793674D01*
X109260644Y-87871695D01*
X109091126Y-87984963D01*
X109047189Y-88028900D01*
X106975823Y-88028900D01*
X106938500Y-88025224D01*
X106901177Y-88028900D01*
X106901167Y-88028900D01*
X106789514Y-88039897D01*
X106646253Y-88083354D01*
X106514224Y-88153926D01*
X106398499Y-88248899D01*
X106374701Y-88277898D01*
X106221398Y-88431200D01*
X106159261Y-88431200D01*
X105959302Y-88470974D01*
X105770944Y-88548995D01*
X105601426Y-88662263D01*
X105457263Y-88806426D01*
X105343995Y-88975944D01*
X105265974Y-89164302D01*
X105226200Y-89364261D01*
X105226200Y-89568139D01*
X105265974Y-89768098D01*
X105343995Y-89956456D01*
X105457263Y-90125974D01*
X105601426Y-90270137D01*
X105770944Y-90383405D01*
X105959302Y-90461426D01*
X106159261Y-90501200D01*
X106363139Y-90501200D01*
X106563098Y-90461426D01*
X106751456Y-90383405D01*
X106920974Y-90270137D01*
X107065137Y-90125974D01*
X107178405Y-89956456D01*
X107256426Y-89768098D01*
X107296200Y-89568139D01*
X107296200Y-89548900D01*
X109047189Y-89548900D01*
X109091126Y-89592837D01*
X109260644Y-89706105D01*
X109449002Y-89784126D01*
X109648961Y-89823900D01*
X109852839Y-89823900D01*
X110052798Y-89784126D01*
X110241156Y-89706105D01*
X110410674Y-89592837D01*
X110554837Y-89448674D01*
X110668105Y-89279156D01*
X110746126Y-89090798D01*
X110785900Y-88890839D01*
X110785900Y-88828701D01*
X111718604Y-87895998D01*
X111747601Y-87872201D01*
X111801465Y-87806568D01*
X111842574Y-87756477D01*
X111913146Y-87624447D01*
X111935227Y-87551653D01*
X111956603Y-87481186D01*
X111967600Y-87369533D01*
X111967600Y-87369523D01*
X111971276Y-87332200D01*
X111967600Y-87294877D01*
X111967600Y-85693967D01*
X121035000Y-85693967D01*
X121035000Y-86016033D01*
X121097832Y-86331912D01*
X121221082Y-86629463D01*
X121400013Y-86897252D01*
X121627748Y-87124987D01*
X121895537Y-87303918D01*
X122193088Y-87427168D01*
X122508967Y-87490000D01*
X122831033Y-87490000D01*
X123146912Y-87427168D01*
X123444463Y-87303918D01*
X123712252Y-87124987D01*
X123939987Y-86897252D01*
X124118918Y-86629463D01*
X124242168Y-86331912D01*
X124305000Y-86016033D01*
X124305000Y-85693967D01*
X124242168Y-85378088D01*
X124118918Y-85080537D01*
X123939987Y-84812748D01*
X123712252Y-84585013D01*
X123444463Y-84406082D01*
X123146912Y-84282832D01*
X122831033Y-84220000D01*
X122508967Y-84220000D01*
X122193088Y-84282832D01*
X121895537Y-84406082D01*
X121627748Y-84585013D01*
X121400013Y-84812748D01*
X121221082Y-85080537D01*
X121097832Y-85378088D01*
X121035000Y-85693967D01*
X111967600Y-85693967D01*
X111967600Y-82719001D01*
X117330592Y-82719001D01*
X117402298Y-82922197D01*
X117517986Y-83102408D01*
X117666609Y-83256587D01*
X117842455Y-83378809D01*
X118038767Y-83464376D01*
X118248000Y-83510000D01*
X118848000Y-83510000D01*
X118848000Y-82552000D01*
X119102000Y-82552000D01*
X119102000Y-83510000D01*
X119702000Y-83510000D01*
X119911233Y-83464376D01*
X120107545Y-83378809D01*
X120283391Y-83256587D01*
X120432014Y-83102408D01*
X120547702Y-82922197D01*
X120616629Y-82726874D01*
X121760881Y-82726874D01*
X121840724Y-82949976D01*
X121962631Y-83137764D01*
X122118831Y-83298161D01*
X122303322Y-83425003D01*
X122509013Y-83513415D01*
X122728000Y-83560000D01*
X123028000Y-83560000D01*
X123028000Y-82552000D01*
X121887046Y-82552000D01*
X121760881Y-82726874D01*
X120616629Y-82726874D01*
X120619408Y-82719001D01*
X120492502Y-82552000D01*
X119102000Y-82552000D01*
X118848000Y-82552000D01*
X117457498Y-82552000D01*
X117330592Y-82719001D01*
X111967600Y-82719001D01*
X111967600Y-70013901D01*
X114395469Y-72441771D01*
X114392474Y-72449002D01*
X114352700Y-72648961D01*
X114352700Y-72852839D01*
X114392474Y-73052798D01*
X114470495Y-73241156D01*
X114583763Y-73410674D01*
X114727926Y-73554837D01*
X114828117Y-73621782D01*
X113638603Y-74811296D01*
X113609599Y-74835099D01*
X113571435Y-74881603D01*
X113514626Y-74950824D01*
X113444055Y-75082853D01*
X113444054Y-75082854D01*
X113400597Y-75226115D01*
X113389600Y-75337768D01*
X113389600Y-75337778D01*
X113385924Y-75375100D01*
X113389600Y-75412423D01*
X113389601Y-77956075D01*
X113380974Y-77976902D01*
X113341200Y-78176861D01*
X113341200Y-78380739D01*
X113380974Y-78580698D01*
X113458995Y-78769056D01*
X113572263Y-78938574D01*
X113716426Y-79082737D01*
X113885944Y-79196005D01*
X114074302Y-79274026D01*
X114178204Y-79294693D01*
X114140000Y-79486761D01*
X114140000Y-79690639D01*
X114179774Y-79890598D01*
X114257795Y-80078956D01*
X114371063Y-80248474D01*
X114515226Y-80392637D01*
X114684744Y-80505905D01*
X114873102Y-80583926D01*
X115073061Y-80623700D01*
X115276939Y-80623700D01*
X115476898Y-80583926D01*
X115665256Y-80505905D01*
X115834774Y-80392637D01*
X115878711Y-80348700D01*
X115921989Y-80348700D01*
X115965926Y-80392637D01*
X116135444Y-80505905D01*
X116323802Y-80583926D01*
X116523761Y-80623700D01*
X116727639Y-80623700D01*
X116927598Y-80583926D01*
X117115956Y-80505905D01*
X117285474Y-80392637D01*
X117429637Y-80248474D01*
X117542905Y-80078956D01*
X117620926Y-79890598D01*
X117660700Y-79690639D01*
X117660700Y-79486761D01*
X117620926Y-79286802D01*
X117542905Y-79098444D01*
X117503119Y-79038900D01*
X118179099Y-79038900D01*
X118662100Y-79521902D01*
X118662100Y-79584039D01*
X118701874Y-79783998D01*
X118779895Y-79972356D01*
X118893163Y-80141874D01*
X118945504Y-80194215D01*
X118863036Y-80249319D01*
X118729319Y-80383036D01*
X118624259Y-80540269D01*
X118551892Y-80714978D01*
X118515000Y-80900448D01*
X118515000Y-81089552D01*
X118551892Y-81275022D01*
X118578807Y-81340000D01*
X118248000Y-81340000D01*
X118038767Y-81385624D01*
X117842455Y-81471191D01*
X117666609Y-81593413D01*
X117517986Y-81747592D01*
X117402298Y-81927803D01*
X117330592Y-82130999D01*
X117457498Y-82298000D01*
X118848000Y-82298000D01*
X118848000Y-82278000D01*
X119102000Y-82278000D01*
X119102000Y-82298000D01*
X120492502Y-82298000D01*
X120619408Y-82130999D01*
X120616630Y-82123126D01*
X121760881Y-82123126D01*
X121887046Y-82298000D01*
X123028000Y-82298000D01*
X123028000Y-81290000D01*
X122728000Y-81290000D01*
X122509013Y-81336585D01*
X122303322Y-81424997D01*
X122118831Y-81551839D01*
X121962631Y-81712236D01*
X121840724Y-81900024D01*
X121760881Y-82123126D01*
X120616630Y-82123126D01*
X120547702Y-81927803D01*
X120432014Y-81747592D01*
X120283391Y-81593413D01*
X120246752Y-81567947D01*
X120325741Y-81449731D01*
X120398108Y-81275022D01*
X120435000Y-81089552D01*
X120435000Y-80900448D01*
X120398108Y-80714978D01*
X120325741Y-80540269D01*
X120220681Y-80383036D01*
X120217085Y-80379440D01*
X120356874Y-80286037D01*
X120501037Y-80141874D01*
X120614305Y-79972356D01*
X120626435Y-79943072D01*
X122470000Y-79943072D01*
X122594482Y-79930812D01*
X122714180Y-79894502D01*
X122824494Y-79835537D01*
X122921185Y-79756185D01*
X123000537Y-79659494D01*
X123059502Y-79549180D01*
X123095812Y-79429482D01*
X123108072Y-79305000D01*
X123108072Y-77305000D01*
X123095812Y-77180518D01*
X123059502Y-77060820D01*
X123000537Y-76950506D01*
X122921185Y-76853815D01*
X122824494Y-76774463D01*
X122714180Y-76715498D01*
X122594482Y-76679188D01*
X122470000Y-76666928D01*
X120636467Y-76666928D01*
X120613826Y-76553102D01*
X120535805Y-76364744D01*
X120422537Y-76195226D01*
X120278374Y-76051063D01*
X120109452Y-75938193D01*
X120220681Y-75826964D01*
X120325741Y-75669731D01*
X120398108Y-75495022D01*
X120435000Y-75309552D01*
X120435000Y-75120448D01*
X120398108Y-74934978D01*
X120325741Y-74760269D01*
X120246752Y-74642053D01*
X120283391Y-74616587D01*
X120432014Y-74462408D01*
X120547702Y-74282197D01*
X120619408Y-74079001D01*
X120492502Y-73912000D01*
X119102000Y-73912000D01*
X119102000Y-73932000D01*
X118848000Y-73932000D01*
X118848000Y-73912000D01*
X117457498Y-73912000D01*
X117330592Y-74079001D01*
X117402298Y-74282197D01*
X117517986Y-74462408D01*
X117666609Y-74616587D01*
X117842455Y-74738809D01*
X118038767Y-74824376D01*
X118248000Y-74870000D01*
X118578807Y-74870000D01*
X118551892Y-74934978D01*
X118515000Y-75120448D01*
X118515000Y-75309552D01*
X118551892Y-75495022D01*
X118624259Y-75669731D01*
X118729319Y-75826964D01*
X118863036Y-75960681D01*
X118978564Y-76037875D01*
X118958826Y-76051063D01*
X118814663Y-76195226D01*
X118717795Y-76340200D01*
X115606011Y-76340200D01*
X115562074Y-76296263D01*
X115392556Y-76182995D01*
X115204198Y-76104974D01*
X115004239Y-76065200D01*
X114909600Y-76065200D01*
X114909600Y-75689901D01*
X117215802Y-73383700D01*
X117277939Y-73383700D01*
X117375290Y-73364336D01*
X117330592Y-73490999D01*
X117457498Y-73658000D01*
X118848000Y-73658000D01*
X118848000Y-73638000D01*
X119102000Y-73638000D01*
X119102000Y-73658000D01*
X120492502Y-73658000D01*
X120619408Y-73490999D01*
X120547702Y-73287803D01*
X120492813Y-73202300D01*
X121056080Y-73202300D01*
X121125195Y-73369156D01*
X121238463Y-73538674D01*
X121382626Y-73682837D01*
X121552144Y-73796105D01*
X121720000Y-73865634D01*
X121720000Y-73912002D01*
X121887045Y-73912002D01*
X121760881Y-74086874D01*
X121840724Y-74309976D01*
X121962631Y-74497764D01*
X122118831Y-74658161D01*
X122303322Y-74785003D01*
X122509013Y-74873415D01*
X122728000Y-74920000D01*
X123028000Y-74920000D01*
X123028000Y-73912000D01*
X123008000Y-73912000D01*
X123008000Y-73658000D01*
X123028000Y-73658000D01*
X123028000Y-73204037D01*
X123037626Y-73180798D01*
X123077400Y-72980839D01*
X123077400Y-72776961D01*
X123037626Y-72577002D01*
X122959605Y-72388644D01*
X122846337Y-72219126D01*
X122702174Y-72074963D01*
X122532656Y-71961695D01*
X122344298Y-71883674D01*
X122144339Y-71843900D01*
X122074642Y-71843900D01*
X122030076Y-71807326D01*
X121898047Y-71736754D01*
X121754786Y-71693297D01*
X121643133Y-71682300D01*
X121643122Y-71682300D01*
X121605800Y-71678624D01*
X121568478Y-71682300D01*
X119417911Y-71682300D01*
X119373974Y-71638363D01*
X119204456Y-71525095D01*
X119016098Y-71447074D01*
X118816139Y-71407300D01*
X118612261Y-71407300D01*
X118412302Y-71447074D01*
X118223944Y-71525095D01*
X118054426Y-71638363D01*
X117989520Y-71703269D01*
X117979937Y-71688926D01*
X117835774Y-71544763D01*
X117666256Y-71431495D01*
X117477898Y-71353474D01*
X117277939Y-71313700D01*
X117074061Y-71313700D01*
X116874102Y-71353474D01*
X116685744Y-71431495D01*
X116516226Y-71544763D01*
X116372063Y-71688926D01*
X116258795Y-71858444D01*
X116180774Y-72046802D01*
X116175222Y-72074711D01*
X116047474Y-71946963D01*
X116014439Y-71924890D01*
X115927701Y-71819199D01*
X115898703Y-71795401D01*
X110419804Y-66316503D01*
X110396001Y-66287499D01*
X110280276Y-66192526D01*
X110148247Y-66121954D01*
X110004986Y-66078497D01*
X109893333Y-66067500D01*
X109893322Y-66067500D01*
X109856000Y-66063824D01*
X109818678Y-66067500D01*
X107722143Y-66067500D01*
X107699574Y-66040000D01*
X107775671Y-65947275D01*
X107854850Y-65799142D01*
X107903608Y-65638408D01*
X107920072Y-65471250D01*
X107920072Y-65349137D01*
X110953000Y-65349137D01*
X110953000Y-65562863D01*
X110994696Y-65772483D01*
X111076485Y-65969940D01*
X111195225Y-66147647D01*
X111346353Y-66298775D01*
X111524060Y-66417515D01*
X111721517Y-66499304D01*
X111931137Y-66541000D01*
X112144863Y-66541000D01*
X112354483Y-66499304D01*
X112551940Y-66417515D01*
X112729647Y-66298775D01*
X112880775Y-66147647D01*
X112999515Y-65969940D01*
X113081304Y-65772483D01*
X113123000Y-65562863D01*
X113123000Y-65349137D01*
X113953000Y-65349137D01*
X113953000Y-65562863D01*
X113994696Y-65772483D01*
X114076485Y-65969940D01*
X114195225Y-66147647D01*
X114346353Y-66298775D01*
X114524060Y-66417515D01*
X114721517Y-66499304D01*
X114931137Y-66541000D01*
X115144863Y-66541000D01*
X115354483Y-66499304D01*
X115551940Y-66417515D01*
X115729647Y-66298775D01*
X115880775Y-66147647D01*
X115999515Y-65969940D01*
X116081304Y-65772483D01*
X116123000Y-65562863D01*
X116123000Y-65349137D01*
X116081304Y-65139517D01*
X115999515Y-64942060D01*
X115880775Y-64764353D01*
X115729647Y-64613225D01*
X115551940Y-64494485D01*
X115354483Y-64412696D01*
X115144863Y-64371000D01*
X114931137Y-64371000D01*
X114721517Y-64412696D01*
X114524060Y-64494485D01*
X114346353Y-64613225D01*
X114195225Y-64764353D01*
X114076485Y-64942060D01*
X113994696Y-65139517D01*
X113953000Y-65349137D01*
X113123000Y-65349137D01*
X113081304Y-65139517D01*
X112999515Y-64942060D01*
X112880775Y-64764353D01*
X112729647Y-64613225D01*
X112551940Y-64494485D01*
X112354483Y-64412696D01*
X112144863Y-64371000D01*
X111931137Y-64371000D01*
X111721517Y-64412696D01*
X111524060Y-64494485D01*
X111346353Y-64613225D01*
X111195225Y-64764353D01*
X111076485Y-64942060D01*
X110994696Y-65139517D01*
X110953000Y-65349137D01*
X107920072Y-65349137D01*
X107920072Y-65033750D01*
X107903608Y-64866592D01*
X107854850Y-64705858D01*
X107775671Y-64557725D01*
X107669115Y-64427885D01*
X107539275Y-64321329D01*
X107391142Y-64242150D01*
X107230408Y-64193392D01*
X107063250Y-64176928D01*
X106550750Y-64176928D01*
X106383592Y-64193392D01*
X106222858Y-64242150D01*
X106074725Y-64321329D01*
X105944885Y-64427885D01*
X105838329Y-64557725D01*
X105787884Y-64652100D01*
X104205311Y-64652100D01*
X104161374Y-64608163D01*
X103991856Y-64494895D01*
X103803498Y-64416874D01*
X103603539Y-64377100D01*
X103399661Y-64377100D01*
X103199702Y-64416874D01*
X103011344Y-64494895D01*
X102899937Y-64569335D01*
X102490601Y-64160000D01*
X120583536Y-64160000D01*
X120577124Y-64162656D01*
%TA.AperFunction,Conductor*%
D23*
G36*
X120577124Y-64162656D02*
G01*
X120112793Y-64472912D01*
X119717912Y-64867793D01*
X119407656Y-65332124D01*
X119193948Y-65848061D01*
X119085000Y-66395777D01*
X119085000Y-66954223D01*
X119193948Y-67501939D01*
X119378725Y-67948030D01*
X119356526Y-67962863D01*
X119312589Y-68006800D01*
X116564111Y-68006800D01*
X116548974Y-67991663D01*
X116379456Y-67878395D01*
X116191098Y-67800374D01*
X115991139Y-67760600D01*
X115787261Y-67760600D01*
X115587302Y-67800374D01*
X115398944Y-67878395D01*
X115229426Y-67991663D01*
X115085263Y-68135826D01*
X114971995Y-68305344D01*
X114893974Y-68493702D01*
X114854200Y-68693661D01*
X114854200Y-68897539D01*
X114893974Y-69097498D01*
X114971995Y-69285856D01*
X115085263Y-69455374D01*
X115229426Y-69599537D01*
X115398944Y-69712805D01*
X115587302Y-69790826D01*
X115787261Y-69830600D01*
X115991139Y-69830600D01*
X116191098Y-69790826D01*
X116379456Y-69712805D01*
X116548974Y-69599537D01*
X116621711Y-69526800D01*
X119312589Y-69526800D01*
X119356526Y-69570737D01*
X119526044Y-69684005D01*
X119714402Y-69762026D01*
X119914361Y-69801800D01*
X120118239Y-69801800D01*
X120318198Y-69762026D01*
X120506556Y-69684005D01*
X120676074Y-69570737D01*
X120820237Y-69426574D01*
X120892734Y-69318074D01*
X121093061Y-69401052D01*
X121640777Y-69510000D01*
X122199223Y-69510000D01*
X122746939Y-69401052D01*
X123262876Y-69187344D01*
X123727207Y-68877088D01*
X124122088Y-68482207D01*
X124432344Y-68017876D01*
X124435001Y-68011462D01*
X124435001Y-73207226D01*
X124347369Y-73072236D01*
X124191169Y-72911839D01*
X124006678Y-72784997D01*
X123800987Y-72696585D01*
X123582000Y-72650000D01*
X123282000Y-72650000D01*
X123282000Y-73658000D01*
X123302000Y-73658000D01*
X123302000Y-73912000D01*
X123282000Y-73912000D01*
X123282000Y-74920000D01*
X123582000Y-74920000D01*
X123800987Y-74873415D01*
X124006678Y-74785003D01*
X124191169Y-74658161D01*
X124347369Y-74497764D01*
X124435001Y-74362774D01*
X124435000Y-81847225D01*
X124347369Y-81712236D01*
X124191169Y-81551839D01*
X124006678Y-81424997D01*
X123800987Y-81336585D01*
X123582000Y-81290000D01*
X123282000Y-81290000D01*
X123282000Y-82298000D01*
X123302000Y-82298000D01*
X123302000Y-82552000D01*
X123282000Y-82552000D01*
X123282000Y-83560000D01*
X123582000Y-83560000D01*
X123800987Y-83513415D01*
X124006678Y-83425003D01*
X124191169Y-83298161D01*
X124347369Y-83137764D01*
X124435000Y-83002775D01*
X124435000Y-90103536D01*
X124432344Y-90097124D01*
X124122088Y-89632793D01*
X123727207Y-89237912D01*
X123262876Y-88927656D01*
X122746939Y-88713948D01*
X122199223Y-88605000D01*
X121640777Y-88605000D01*
X121093061Y-88713948D01*
X120577124Y-88927656D01*
X120418531Y-89033624D01*
X120317437Y-88882326D01*
X120173274Y-88738163D01*
X120003756Y-88624895D01*
X119815398Y-88546874D01*
X119615439Y-88507100D01*
X119411561Y-88507100D01*
X119211602Y-88546874D01*
X119023244Y-88624895D01*
X118853726Y-88738163D01*
X118709563Y-88882326D01*
X118596295Y-89051844D01*
X118518274Y-89240202D01*
X118478500Y-89440161D01*
X118478500Y-89502298D01*
X117970308Y-90010491D01*
X117972500Y-89988233D01*
X117972500Y-89988224D01*
X117976176Y-89950901D01*
X117972500Y-89913578D01*
X117972500Y-89547111D01*
X118016437Y-89503174D01*
X118129705Y-89333656D01*
X118207726Y-89145298D01*
X118247500Y-88945339D01*
X118247500Y-88741461D01*
X118207726Y-88541502D01*
X118129705Y-88353144D01*
X118016437Y-88183626D01*
X117872274Y-88039463D01*
X117702756Y-87926195D01*
X117514398Y-87848174D01*
X117314439Y-87808400D01*
X117110561Y-87808400D01*
X116910602Y-87848174D01*
X116722244Y-87926195D01*
X116552726Y-88039463D01*
X116408563Y-88183626D01*
X116295295Y-88353144D01*
X116217274Y-88541502D01*
X116177500Y-88741461D01*
X116177500Y-88945339D01*
X116217274Y-89145298D01*
X116295295Y-89333656D01*
X116408563Y-89503174D01*
X116452500Y-89547111D01*
X116452500Y-89636097D01*
X115683598Y-90405000D01*
X115621461Y-90405000D01*
X115446873Y-90439727D01*
X115384974Y-90323924D01*
X115290001Y-90208199D01*
X115261003Y-90184401D01*
X114573000Y-89496399D01*
X114573000Y-89434261D01*
X114533226Y-89234302D01*
X114455205Y-89045944D01*
X114341937Y-88876426D01*
X114197774Y-88732263D01*
X114028256Y-88618995D01*
X113839898Y-88540974D01*
X113639939Y-88501200D01*
X113436061Y-88501200D01*
X113236102Y-88540974D01*
X113047744Y-88618995D01*
X112878226Y-88732263D01*
X112734063Y-88876426D01*
X112620795Y-89045944D01*
X112542774Y-89234302D01*
X112503000Y-89434261D01*
X112503000Y-89496398D01*
X112026098Y-89973301D01*
X111997100Y-89997099D01*
X111973302Y-90026097D01*
X111973301Y-90026098D01*
X111902126Y-90112824D01*
X111831554Y-90244854D01*
X111820893Y-90280000D01*
X111788097Y-90388114D01*
X111777100Y-90499767D01*
X111777100Y-90499778D01*
X111773424Y-90537100D01*
X111777100Y-90574422D01*
X111777100Y-91249778D01*
X111773424Y-91287100D01*
X111777100Y-91324422D01*
X111777100Y-91324432D01*
X111788097Y-91436085D01*
X111819498Y-91539602D01*
X111831554Y-91579346D01*
X111902126Y-91711376D01*
X111919254Y-91732246D01*
X111997099Y-91827101D01*
X112026103Y-91850904D01*
X112190001Y-92014802D01*
X112190000Y-92485199D01*
X112185199Y-92490000D01*
X106564802Y-92490000D01*
X105003804Y-90929003D01*
X104980001Y-90899999D01*
X104864276Y-90805026D01*
X104732247Y-90734454D01*
X104588986Y-90690997D01*
X104477333Y-90680000D01*
X104477322Y-90680000D01*
X104440000Y-90676324D01*
X104402678Y-90680000D01*
X102878178Y-90680000D01*
X102753475Y-90493368D01*
X102546632Y-90286525D01*
X102303411Y-90124010D01*
X102033158Y-90012068D01*
X101746260Y-89955000D01*
X101453740Y-89955000D01*
X101166842Y-90012068D01*
X100896589Y-90124010D01*
X100653368Y-90286525D01*
X100446525Y-90493368D01*
X100330000Y-90667760D01*
X100213475Y-90493368D01*
X100006632Y-90286525D01*
X99860504Y-90188886D01*
X99891801Y-90163201D01*
X99915604Y-90134197D01*
X101461004Y-88588798D01*
X101490001Y-88565001D01*
X101537519Y-88507100D01*
X101584974Y-88449277D01*
X101655546Y-88317247D01*
X101667723Y-88277105D01*
X101699003Y-88173986D01*
X101710000Y-88062333D01*
X101710000Y-88062324D01*
X101713676Y-88025001D01*
X101710000Y-87987678D01*
X101710000Y-87782239D01*
X101877748Y-87949987D01*
X102145537Y-88128918D01*
X102443088Y-88252168D01*
X102758967Y-88315000D01*
X103081033Y-88315000D01*
X103396912Y-88252168D01*
X103694463Y-88128918D01*
X103962252Y-87949987D01*
X104189987Y-87722252D01*
X104368918Y-87454463D01*
X104492168Y-87156912D01*
X104555000Y-86841033D01*
X104555000Y-86518967D01*
X104492168Y-86203088D01*
X104368918Y-85905537D01*
X104189987Y-85637748D01*
X103962252Y-85410013D01*
X103694463Y-85231082D01*
X103396912Y-85107832D01*
X103081033Y-85045000D01*
X102758967Y-85045000D01*
X102443088Y-85107832D01*
X102231204Y-85195597D01*
X103865803Y-83561000D01*
X104398500Y-83561000D01*
X104398500Y-83628339D01*
X104438274Y-83828298D01*
X104516295Y-84016656D01*
X104629563Y-84186174D01*
X104773726Y-84330337D01*
X104943244Y-84443605D01*
X105131602Y-84521626D01*
X105331561Y-84561400D01*
X105393699Y-84561400D01*
X105757109Y-84924811D01*
X105749574Y-84943002D01*
X105709800Y-85142961D01*
X105709800Y-85346839D01*
X105749574Y-85546798D01*
X105827595Y-85735156D01*
X105940863Y-85904674D01*
X106085026Y-86048837D01*
X106254544Y-86162105D01*
X106442902Y-86240126D01*
X106642861Y-86279900D01*
X106846739Y-86279900D01*
X107046698Y-86240126D01*
X107235056Y-86162105D01*
X107404574Y-86048837D01*
X107548737Y-85904674D01*
X107662005Y-85735156D01*
X107740026Y-85546798D01*
X107779800Y-85346839D01*
X107779800Y-85142961D01*
X107740026Y-84943002D01*
X107662005Y-84754644D01*
X107548737Y-84585126D01*
X107404574Y-84440963D01*
X107388894Y-84430486D01*
X107379774Y-84413424D01*
X107284801Y-84297699D01*
X107255804Y-84273902D01*
X106468500Y-83486599D01*
X106468500Y-83424461D01*
X106428726Y-83224502D01*
X106350705Y-83036144D01*
X106329818Y-83004884D01*
X106756304Y-82578398D01*
X106785301Y-82554601D01*
X106880274Y-82438876D01*
X106950846Y-82306847D01*
X106994303Y-82163586D01*
X107005300Y-82051933D01*
X107005300Y-82051932D01*
X107008977Y-82014600D01*
X107005300Y-81977267D01*
X107005300Y-79292333D01*
X107008977Y-79255000D01*
X106994303Y-79106014D01*
X106950846Y-78962753D01*
X106880274Y-78830724D01*
X106785301Y-78714999D01*
X106669576Y-78620026D01*
X106558072Y-78560425D01*
X106558072Y-78493000D01*
X106545812Y-78368518D01*
X106537920Y-78342500D01*
X106545812Y-78316482D01*
X106558072Y-78192000D01*
X106555000Y-77715750D01*
X106396250Y-77557000D01*
X104297000Y-77557000D01*
X104297000Y-77577000D01*
X104043000Y-77577000D01*
X104043000Y-77557000D01*
X104023000Y-77557000D01*
X104023000Y-77303000D01*
X104043000Y-77303000D01*
X104043000Y-77283000D01*
X104297000Y-77283000D01*
X104297000Y-77303000D01*
X106396250Y-77303000D01*
X106555000Y-77144250D01*
X106558072Y-76668000D01*
X106545812Y-76543518D01*
X106534128Y-76505000D01*
X106545812Y-76466482D01*
X106558072Y-76342000D01*
X106558072Y-74818000D01*
X106545812Y-74693518D01*
X106509502Y-74573820D01*
X106450537Y-74463506D01*
X106371185Y-74366815D01*
X106274494Y-74287463D01*
X106164180Y-74228498D01*
X106044482Y-74192188D01*
X105920000Y-74179928D01*
X102420000Y-74179928D01*
X102295518Y-74192188D01*
X102175820Y-74228498D01*
X102065506Y-74287463D01*
X101968815Y-74366815D01*
X101889463Y-74463506D01*
X101830498Y-74573820D01*
X101794188Y-74693518D01*
X101781928Y-74818000D01*
X101781928Y-74885425D01*
X101670424Y-74945026D01*
X101554699Y-75039999D01*
X101459726Y-75155724D01*
X101389154Y-75287753D01*
X101345697Y-75431014D01*
X101331023Y-75580000D01*
X101334700Y-75617333D01*
X101334700Y-75630779D01*
X101193698Y-75572374D01*
X100993739Y-75532600D01*
X100789861Y-75532600D01*
X100589902Y-75572374D01*
X100401544Y-75650395D01*
X100232026Y-75763663D01*
X100087863Y-75907826D01*
X99974595Y-76077344D01*
X99896574Y-76265702D01*
X99856800Y-76465661D01*
X99856800Y-76527798D01*
X97681299Y-78703300D01*
X97119225Y-78703300D01*
X97081900Y-78699624D01*
X97044575Y-78703300D01*
X97044567Y-78703300D01*
X96932914Y-78714297D01*
X96789653Y-78757754D01*
X96745600Y-78781301D01*
X96701547Y-78757754D01*
X96558286Y-78714297D01*
X96446633Y-78703300D01*
X96446622Y-78703300D01*
X96409300Y-78699624D01*
X96371978Y-78703300D01*
X96234290Y-78703300D01*
X96245226Y-78676898D01*
X96285000Y-78476939D01*
X96285000Y-78273061D01*
X96245226Y-78073102D01*
X96167205Y-77884744D01*
X96053937Y-77715226D01*
X95909774Y-77571063D01*
X95740256Y-77457795D01*
X95599153Y-77399348D01*
X96859703Y-76138799D01*
X96888701Y-76115001D01*
X96983674Y-75999276D01*
X97054246Y-75867247D01*
X97097703Y-75723986D01*
X97108700Y-75612333D01*
X97108700Y-75612324D01*
X97112376Y-75575001D01*
X97108700Y-75537678D01*
X97108700Y-67403505D01*
X97223411Y-67355990D01*
X97466632Y-67193475D01*
X97673475Y-66986632D01*
X97795195Y-66804466D01*
X97864822Y-66921355D01*
X98059731Y-67137588D01*
X98293080Y-67311641D01*
X98555901Y-67436825D01*
X98703110Y-67481476D01*
X98933000Y-67360155D01*
X98933000Y-66167000D01*
X98913000Y-66167000D01*
X98913000Y-65913000D01*
X98933000Y-65913000D01*
X98933000Y-65893000D01*
X99187000Y-65893000D01*
X99187000Y-65913000D01*
X99207000Y-65913000D01*
X99207000Y-66167000D01*
X99187000Y-66167000D01*
X99187000Y-67360155D01*
X99416890Y-67481476D01*
X99564099Y-67436825D01*
X99826920Y-67311641D01*
X99988683Y-67190984D01*
X101301250Y-68503552D01*
X101301251Y-68930174D01*
X101268356Y-68908195D01*
X101079998Y-68830174D01*
X100880039Y-68790400D01*
X100676161Y-68790400D01*
X100476202Y-68830174D01*
X100287844Y-68908195D01*
X100118326Y-69021463D01*
X99974163Y-69165626D01*
X99860895Y-69335144D01*
X99782874Y-69523502D01*
X99743100Y-69723461D01*
X99743100Y-69927339D01*
X99782874Y-70127298D01*
X99860895Y-70315656D01*
X99974163Y-70485174D01*
X100118326Y-70629337D01*
X100287844Y-70742605D01*
X100476202Y-70820626D01*
X100676161Y-70860400D01*
X100880039Y-70860400D01*
X101079998Y-70820626D01*
X101268356Y-70742605D01*
X101437874Y-70629337D01*
X101481811Y-70585400D01*
X101606699Y-70585400D01*
X101788300Y-70767001D01*
X101788300Y-70829139D01*
X101828074Y-71029098D01*
X101906095Y-71217456D01*
X102019363Y-71386974D01*
X102163526Y-71531137D01*
X102333044Y-71644405D01*
X102521402Y-71722426D01*
X102721361Y-71762200D01*
X102925239Y-71762200D01*
X103125198Y-71722426D01*
X103313556Y-71644405D01*
X103483074Y-71531137D01*
X103627237Y-71386974D01*
X103740505Y-71217456D01*
X103774494Y-71135400D01*
X109704238Y-71135400D01*
X109793144Y-71194805D01*
X109981502Y-71272826D01*
X110181461Y-71312600D01*
X110385339Y-71312600D01*
X110447601Y-71300215D01*
X110447600Y-87017398D01*
X109711099Y-87753900D01*
X109648961Y-87753900D01*
X109449002Y-87793674D01*
X109260644Y-87871695D01*
X109091126Y-87984963D01*
X109047189Y-88028900D01*
X106975823Y-88028900D01*
X106938500Y-88025224D01*
X106901177Y-88028900D01*
X106901167Y-88028900D01*
X106789514Y-88039897D01*
X106646253Y-88083354D01*
X106514224Y-88153926D01*
X106398499Y-88248899D01*
X106374701Y-88277898D01*
X106221398Y-88431200D01*
X106159261Y-88431200D01*
X105959302Y-88470974D01*
X105770944Y-88548995D01*
X105601426Y-88662263D01*
X105457263Y-88806426D01*
X105343995Y-88975944D01*
X105265974Y-89164302D01*
X105226200Y-89364261D01*
X105226200Y-89568139D01*
X105265974Y-89768098D01*
X105343995Y-89956456D01*
X105457263Y-90125974D01*
X105601426Y-90270137D01*
X105770944Y-90383405D01*
X105959302Y-90461426D01*
X106159261Y-90501200D01*
X106363139Y-90501200D01*
X106563098Y-90461426D01*
X106751456Y-90383405D01*
X106920974Y-90270137D01*
X107065137Y-90125974D01*
X107178405Y-89956456D01*
X107256426Y-89768098D01*
X107296200Y-89568139D01*
X107296200Y-89548900D01*
X109047189Y-89548900D01*
X109091126Y-89592837D01*
X109260644Y-89706105D01*
X109449002Y-89784126D01*
X109648961Y-89823900D01*
X109852839Y-89823900D01*
X110052798Y-89784126D01*
X110241156Y-89706105D01*
X110410674Y-89592837D01*
X110554837Y-89448674D01*
X110668105Y-89279156D01*
X110746126Y-89090798D01*
X110785900Y-88890839D01*
X110785900Y-88828701D01*
X111718604Y-87895998D01*
X111747601Y-87872201D01*
X111801465Y-87806568D01*
X111842574Y-87756477D01*
X111913146Y-87624447D01*
X111935227Y-87551653D01*
X111956603Y-87481186D01*
X111967600Y-87369533D01*
X111967600Y-87369523D01*
X111971276Y-87332200D01*
X111967600Y-87294877D01*
X111967600Y-85693967D01*
X121035000Y-85693967D01*
X121035000Y-86016033D01*
X121097832Y-86331912D01*
X121221082Y-86629463D01*
X121400013Y-86897252D01*
X121627748Y-87124987D01*
X121895537Y-87303918D01*
X122193088Y-87427168D01*
X122508967Y-87490000D01*
X122831033Y-87490000D01*
X123146912Y-87427168D01*
X123444463Y-87303918D01*
X123712252Y-87124987D01*
X123939987Y-86897252D01*
X124118918Y-86629463D01*
X124242168Y-86331912D01*
X124305000Y-86016033D01*
X124305000Y-85693967D01*
X124242168Y-85378088D01*
X124118918Y-85080537D01*
X123939987Y-84812748D01*
X123712252Y-84585013D01*
X123444463Y-84406082D01*
X123146912Y-84282832D01*
X122831033Y-84220000D01*
X122508967Y-84220000D01*
X122193088Y-84282832D01*
X121895537Y-84406082D01*
X121627748Y-84585013D01*
X121400013Y-84812748D01*
X121221082Y-85080537D01*
X121097832Y-85378088D01*
X121035000Y-85693967D01*
X111967600Y-85693967D01*
X111967600Y-82719001D01*
X117330592Y-82719001D01*
X117402298Y-82922197D01*
X117517986Y-83102408D01*
X117666609Y-83256587D01*
X117842455Y-83378809D01*
X118038767Y-83464376D01*
X118248000Y-83510000D01*
X118848000Y-83510000D01*
X118848000Y-82552000D01*
X119102000Y-82552000D01*
X119102000Y-83510000D01*
X119702000Y-83510000D01*
X119911233Y-83464376D01*
X120107545Y-83378809D01*
X120283391Y-83256587D01*
X120432014Y-83102408D01*
X120547702Y-82922197D01*
X120616629Y-82726874D01*
X121760881Y-82726874D01*
X121840724Y-82949976D01*
X121962631Y-83137764D01*
X122118831Y-83298161D01*
X122303322Y-83425003D01*
X122509013Y-83513415D01*
X122728000Y-83560000D01*
X123028000Y-83560000D01*
X123028000Y-82552000D01*
X121887046Y-82552000D01*
X121760881Y-82726874D01*
X120616629Y-82726874D01*
X120619408Y-82719001D01*
X120492502Y-82552000D01*
X119102000Y-82552000D01*
X118848000Y-82552000D01*
X117457498Y-82552000D01*
X117330592Y-82719001D01*
X111967600Y-82719001D01*
X111967600Y-70013901D01*
X114395469Y-72441771D01*
X114392474Y-72449002D01*
X114352700Y-72648961D01*
X114352700Y-72852839D01*
X114392474Y-73052798D01*
X114470495Y-73241156D01*
X114583763Y-73410674D01*
X114727926Y-73554837D01*
X114828117Y-73621782D01*
X113638603Y-74811296D01*
X113609599Y-74835099D01*
X113571435Y-74881603D01*
X113514626Y-74950824D01*
X113444055Y-75082853D01*
X113444054Y-75082854D01*
X113400597Y-75226115D01*
X113389600Y-75337768D01*
X113389600Y-75337778D01*
X113385924Y-75375100D01*
X113389600Y-75412423D01*
X113389601Y-77956075D01*
X113380974Y-77976902D01*
X113341200Y-78176861D01*
X113341200Y-78380739D01*
X113380974Y-78580698D01*
X113458995Y-78769056D01*
X113572263Y-78938574D01*
X113716426Y-79082737D01*
X113885944Y-79196005D01*
X114074302Y-79274026D01*
X114178204Y-79294693D01*
X114140000Y-79486761D01*
X114140000Y-79690639D01*
X114179774Y-79890598D01*
X114257795Y-80078956D01*
X114371063Y-80248474D01*
X114515226Y-80392637D01*
X114684744Y-80505905D01*
X114873102Y-80583926D01*
X115073061Y-80623700D01*
X115276939Y-80623700D01*
X115476898Y-80583926D01*
X115665256Y-80505905D01*
X115834774Y-80392637D01*
X115878711Y-80348700D01*
X115921989Y-80348700D01*
X115965926Y-80392637D01*
X116135444Y-80505905D01*
X116323802Y-80583926D01*
X116523761Y-80623700D01*
X116727639Y-80623700D01*
X116927598Y-80583926D01*
X117115956Y-80505905D01*
X117285474Y-80392637D01*
X117429637Y-80248474D01*
X117542905Y-80078956D01*
X117620926Y-79890598D01*
X117660700Y-79690639D01*
X117660700Y-79486761D01*
X117620926Y-79286802D01*
X117542905Y-79098444D01*
X117503119Y-79038900D01*
X118179099Y-79038900D01*
X118662100Y-79521902D01*
X118662100Y-79584039D01*
X118701874Y-79783998D01*
X118779895Y-79972356D01*
X118893163Y-80141874D01*
X118945504Y-80194215D01*
X118863036Y-80249319D01*
X118729319Y-80383036D01*
X118624259Y-80540269D01*
X118551892Y-80714978D01*
X118515000Y-80900448D01*
X118515000Y-81089552D01*
X118551892Y-81275022D01*
X118578807Y-81340000D01*
X118248000Y-81340000D01*
X118038767Y-81385624D01*
X117842455Y-81471191D01*
X117666609Y-81593413D01*
X117517986Y-81747592D01*
X117402298Y-81927803D01*
X117330592Y-82130999D01*
X117457498Y-82298000D01*
X118848000Y-82298000D01*
X118848000Y-82278000D01*
X119102000Y-82278000D01*
X119102000Y-82298000D01*
X120492502Y-82298000D01*
X120619408Y-82130999D01*
X120616630Y-82123126D01*
X121760881Y-82123126D01*
X121887046Y-82298000D01*
X123028000Y-82298000D01*
X123028000Y-81290000D01*
X122728000Y-81290000D01*
X122509013Y-81336585D01*
X122303322Y-81424997D01*
X122118831Y-81551839D01*
X121962631Y-81712236D01*
X121840724Y-81900024D01*
X121760881Y-82123126D01*
X120616630Y-82123126D01*
X120547702Y-81927803D01*
X120432014Y-81747592D01*
X120283391Y-81593413D01*
X120246752Y-81567947D01*
X120325741Y-81449731D01*
X120398108Y-81275022D01*
X120435000Y-81089552D01*
X120435000Y-80900448D01*
X120398108Y-80714978D01*
X120325741Y-80540269D01*
X120220681Y-80383036D01*
X120217085Y-80379440D01*
X120356874Y-80286037D01*
X120501037Y-80141874D01*
X120614305Y-79972356D01*
X120626435Y-79943072D01*
X122470000Y-79943072D01*
X122594482Y-79930812D01*
X122714180Y-79894502D01*
X122824494Y-79835537D01*
X122921185Y-79756185D01*
X123000537Y-79659494D01*
X123059502Y-79549180D01*
X123095812Y-79429482D01*
X123108072Y-79305000D01*
X123108072Y-77305000D01*
X123095812Y-77180518D01*
X123059502Y-77060820D01*
X123000537Y-76950506D01*
X122921185Y-76853815D01*
X122824494Y-76774463D01*
X122714180Y-76715498D01*
X122594482Y-76679188D01*
X122470000Y-76666928D01*
X120636467Y-76666928D01*
X120613826Y-76553102D01*
X120535805Y-76364744D01*
X120422537Y-76195226D01*
X120278374Y-76051063D01*
X120109452Y-75938193D01*
X120220681Y-75826964D01*
X120325741Y-75669731D01*
X120398108Y-75495022D01*
X120435000Y-75309552D01*
X120435000Y-75120448D01*
X120398108Y-74934978D01*
X120325741Y-74760269D01*
X120246752Y-74642053D01*
X120283391Y-74616587D01*
X120432014Y-74462408D01*
X120547702Y-74282197D01*
X120619408Y-74079001D01*
X120492502Y-73912000D01*
X119102000Y-73912000D01*
X119102000Y-73932000D01*
X118848000Y-73932000D01*
X118848000Y-73912000D01*
X117457498Y-73912000D01*
X117330592Y-74079001D01*
X117402298Y-74282197D01*
X117517986Y-74462408D01*
X117666609Y-74616587D01*
X117842455Y-74738809D01*
X118038767Y-74824376D01*
X118248000Y-74870000D01*
X118578807Y-74870000D01*
X118551892Y-74934978D01*
X118515000Y-75120448D01*
X118515000Y-75309552D01*
X118551892Y-75495022D01*
X118624259Y-75669731D01*
X118729319Y-75826964D01*
X118863036Y-75960681D01*
X118978564Y-76037875D01*
X118958826Y-76051063D01*
X118814663Y-76195226D01*
X118717795Y-76340200D01*
X115606011Y-76340200D01*
X115562074Y-76296263D01*
X115392556Y-76182995D01*
X115204198Y-76104974D01*
X115004239Y-76065200D01*
X114909600Y-76065200D01*
X114909600Y-75689901D01*
X117215802Y-73383700D01*
X117277939Y-73383700D01*
X117375290Y-73364336D01*
X117330592Y-73490999D01*
X117457498Y-73658000D01*
X118848000Y-73658000D01*
X118848000Y-73638000D01*
X119102000Y-73638000D01*
X119102000Y-73658000D01*
X120492502Y-73658000D01*
X120619408Y-73490999D01*
X120547702Y-73287803D01*
X120492813Y-73202300D01*
X121056080Y-73202300D01*
X121125195Y-73369156D01*
X121238463Y-73538674D01*
X121382626Y-73682837D01*
X121552144Y-73796105D01*
X121720000Y-73865634D01*
X121720000Y-73912002D01*
X121887045Y-73912002D01*
X121760881Y-74086874D01*
X121840724Y-74309976D01*
X121962631Y-74497764D01*
X122118831Y-74658161D01*
X122303322Y-74785003D01*
X122509013Y-74873415D01*
X122728000Y-74920000D01*
X123028000Y-74920000D01*
X123028000Y-73912000D01*
X123008000Y-73912000D01*
X123008000Y-73658000D01*
X123028000Y-73658000D01*
X123028000Y-73204037D01*
X123037626Y-73180798D01*
X123077400Y-72980839D01*
X123077400Y-72776961D01*
X123037626Y-72577002D01*
X122959605Y-72388644D01*
X122846337Y-72219126D01*
X122702174Y-72074963D01*
X122532656Y-71961695D01*
X122344298Y-71883674D01*
X122144339Y-71843900D01*
X122074642Y-71843900D01*
X122030076Y-71807326D01*
X121898047Y-71736754D01*
X121754786Y-71693297D01*
X121643133Y-71682300D01*
X121643122Y-71682300D01*
X121605800Y-71678624D01*
X121568478Y-71682300D01*
X119417911Y-71682300D01*
X119373974Y-71638363D01*
X119204456Y-71525095D01*
X119016098Y-71447074D01*
X118816139Y-71407300D01*
X118612261Y-71407300D01*
X118412302Y-71447074D01*
X118223944Y-71525095D01*
X118054426Y-71638363D01*
X117989520Y-71703269D01*
X117979937Y-71688926D01*
X117835774Y-71544763D01*
X117666256Y-71431495D01*
X117477898Y-71353474D01*
X117277939Y-71313700D01*
X117074061Y-71313700D01*
X116874102Y-71353474D01*
X116685744Y-71431495D01*
X116516226Y-71544763D01*
X116372063Y-71688926D01*
X116258795Y-71858444D01*
X116180774Y-72046802D01*
X116175222Y-72074711D01*
X116047474Y-71946963D01*
X116014439Y-71924890D01*
X115927701Y-71819199D01*
X115898703Y-71795401D01*
X110419804Y-66316503D01*
X110396001Y-66287499D01*
X110280276Y-66192526D01*
X110148247Y-66121954D01*
X110004986Y-66078497D01*
X109893333Y-66067500D01*
X109893322Y-66067500D01*
X109856000Y-66063824D01*
X109818678Y-66067500D01*
X107722143Y-66067500D01*
X107699574Y-66040000D01*
X107775671Y-65947275D01*
X107854850Y-65799142D01*
X107903608Y-65638408D01*
X107920072Y-65471250D01*
X107920072Y-65349137D01*
X110953000Y-65349137D01*
X110953000Y-65562863D01*
X110994696Y-65772483D01*
X111076485Y-65969940D01*
X111195225Y-66147647D01*
X111346353Y-66298775D01*
X111524060Y-66417515D01*
X111721517Y-66499304D01*
X111931137Y-66541000D01*
X112144863Y-66541000D01*
X112354483Y-66499304D01*
X112551940Y-66417515D01*
X112729647Y-66298775D01*
X112880775Y-66147647D01*
X112999515Y-65969940D01*
X113081304Y-65772483D01*
X113123000Y-65562863D01*
X113123000Y-65349137D01*
X113953000Y-65349137D01*
X113953000Y-65562863D01*
X113994696Y-65772483D01*
X114076485Y-65969940D01*
X114195225Y-66147647D01*
X114346353Y-66298775D01*
X114524060Y-66417515D01*
X114721517Y-66499304D01*
X114931137Y-66541000D01*
X115144863Y-66541000D01*
X115354483Y-66499304D01*
X115551940Y-66417515D01*
X115729647Y-66298775D01*
X115880775Y-66147647D01*
X115999515Y-65969940D01*
X116081304Y-65772483D01*
X116123000Y-65562863D01*
X116123000Y-65349137D01*
X116081304Y-65139517D01*
X115999515Y-64942060D01*
X115880775Y-64764353D01*
X115729647Y-64613225D01*
X115551940Y-64494485D01*
X115354483Y-64412696D01*
X115144863Y-64371000D01*
X114931137Y-64371000D01*
X114721517Y-64412696D01*
X114524060Y-64494485D01*
X114346353Y-64613225D01*
X114195225Y-64764353D01*
X114076485Y-64942060D01*
X113994696Y-65139517D01*
X113953000Y-65349137D01*
X113123000Y-65349137D01*
X113081304Y-65139517D01*
X112999515Y-64942060D01*
X112880775Y-64764353D01*
X112729647Y-64613225D01*
X112551940Y-64494485D01*
X112354483Y-64412696D01*
X112144863Y-64371000D01*
X111931137Y-64371000D01*
X111721517Y-64412696D01*
X111524060Y-64494485D01*
X111346353Y-64613225D01*
X111195225Y-64764353D01*
X111076485Y-64942060D01*
X110994696Y-65139517D01*
X110953000Y-65349137D01*
X107920072Y-65349137D01*
X107920072Y-65033750D01*
X107903608Y-64866592D01*
X107854850Y-64705858D01*
X107775671Y-64557725D01*
X107669115Y-64427885D01*
X107539275Y-64321329D01*
X107391142Y-64242150D01*
X107230408Y-64193392D01*
X107063250Y-64176928D01*
X106550750Y-64176928D01*
X106383592Y-64193392D01*
X106222858Y-64242150D01*
X106074725Y-64321329D01*
X105944885Y-64427885D01*
X105838329Y-64557725D01*
X105787884Y-64652100D01*
X104205311Y-64652100D01*
X104161374Y-64608163D01*
X103991856Y-64494895D01*
X103803498Y-64416874D01*
X103603539Y-64377100D01*
X103399661Y-64377100D01*
X103199702Y-64416874D01*
X103011344Y-64494895D01*
X102899937Y-64569335D01*
X102490601Y-64160000D01*
X120583536Y-64160000D01*
X120577124Y-64162656D01*
G37*
%TD.AperFunction*%
D22*
X100411194Y-82358805D02*
X97841399Y-84928600D01*
X97779261Y-84928600D01*
X97579302Y-84968374D01*
X97390944Y-85046395D01*
X97221426Y-85159663D01*
X97077263Y-85303826D01*
X96963995Y-85473344D01*
X96885974Y-85661702D01*
X96846200Y-85861661D01*
X96846200Y-86065539D01*
X96885974Y-86265498D01*
X96963995Y-86453856D01*
X97077263Y-86623374D01*
X97221426Y-86767537D01*
X97390944Y-86880805D01*
X97579302Y-86958826D01*
X97779261Y-86998600D01*
X97839066Y-86998600D01*
X97852191Y-87014593D01*
X97967916Y-87109566D01*
X98099945Y-87180138D01*
X98243206Y-87223595D01*
X98354859Y-87234592D01*
X98354869Y-87234592D01*
X98392192Y-87238268D01*
X98429515Y-87234592D01*
X98845881Y-87234592D01*
X98889818Y-87278529D01*
X99059336Y-87391797D01*
X99247694Y-87469818D01*
X99447653Y-87509592D01*
X99651531Y-87509592D01*
X99851490Y-87469818D01*
X100039848Y-87391797D01*
X100190000Y-87291469D01*
X100190000Y-87710198D01*
X99036999Y-88863200D01*
X96710525Y-88863200D01*
X96673200Y-88859524D01*
X96635875Y-88863200D01*
X96635867Y-88863200D01*
X96524214Y-88874197D01*
X96380953Y-88917654D01*
X96248924Y-88988226D01*
X96133199Y-89083199D01*
X96109401Y-89112197D01*
X94922372Y-90299227D01*
X94746920Y-90168359D01*
X94484099Y-90043175D01*
X94336890Y-89998524D01*
X94107000Y-90119845D01*
X94107000Y-91313000D01*
X94127000Y-91313000D01*
X94127000Y-91567000D01*
X94107000Y-91567000D01*
X94107000Y-91587000D01*
X93853000Y-91587000D01*
X93853000Y-91567000D01*
X93833000Y-91567000D01*
X93833000Y-91313000D01*
X93853000Y-91313000D01*
X93853000Y-90119845D01*
X93623110Y-89998524D01*
X93475901Y-90043175D01*
X93213080Y-90168359D01*
X92979731Y-90342412D01*
X92784822Y-90558645D01*
X92715195Y-90675534D01*
X92593475Y-90493368D01*
X92386632Y-90286525D01*
X92143411Y-90124010D01*
X91873158Y-90012068D01*
X91586260Y-89955000D01*
X91409200Y-89955000D01*
X91409200Y-89905861D01*
X91369426Y-89705902D01*
X91291405Y-89517544D01*
X91178137Y-89348026D01*
X91033974Y-89203863D01*
X90864456Y-89090595D01*
X90676098Y-89012574D01*
X90476139Y-88972800D01*
X90272261Y-88972800D01*
X90072302Y-89012574D01*
X89883944Y-89090595D01*
X89714426Y-89203863D01*
X89570263Y-89348026D01*
X89456995Y-89517544D01*
X89455900Y-89520188D01*
X89455900Y-89362261D01*
X89416126Y-89162302D01*
X89338105Y-88973944D01*
X89325400Y-88954930D01*
X89325400Y-88547611D01*
X89369337Y-88503674D01*
X89482605Y-88334156D01*
X89560626Y-88145798D01*
X89600400Y-87945839D01*
X89600400Y-87741961D01*
X89560626Y-87542002D01*
X89482605Y-87353644D01*
X89369337Y-87184126D01*
X89225174Y-87039963D01*
X89055656Y-86926695D01*
X88867298Y-86848674D01*
X88667339Y-86808900D01*
X88463461Y-86808900D01*
X88263502Y-86848674D01*
X88075144Y-86926695D01*
X87905626Y-87039963D01*
X87761463Y-87184126D01*
X87648195Y-87353644D01*
X87570174Y-87542002D01*
X87530400Y-87741961D01*
X87530400Y-87945839D01*
X87570174Y-88145798D01*
X87648195Y-88334156D01*
X87761463Y-88503674D01*
X87805400Y-88547611D01*
X87805401Y-88630680D01*
X87761126Y-88660263D01*
X87616963Y-88804426D01*
X87503695Y-88973944D01*
X87425674Y-89162302D01*
X87385900Y-89362261D01*
X87385900Y-89566139D01*
X87425674Y-89766098D01*
X87503695Y-89954456D01*
X87616963Y-90123974D01*
X87761126Y-90268137D01*
X87887390Y-90352503D01*
X87746525Y-90493368D01*
X87630000Y-90667760D01*
X87513475Y-90493368D01*
X87306632Y-90286525D01*
X87063411Y-90124010D01*
X86793158Y-90012068D01*
X86768979Y-90007259D01*
X86776403Y-89982786D01*
X86787400Y-89871133D01*
X86787400Y-89871124D01*
X86791076Y-89833801D01*
X86787400Y-89796478D01*
X86787400Y-84332601D01*
X87487402Y-83632600D01*
X87949889Y-83632600D01*
X87876063Y-83706426D01*
X87762795Y-83875944D01*
X87684774Y-84064302D01*
X87645000Y-84264261D01*
X87645000Y-84468139D01*
X87684774Y-84668098D01*
X87762795Y-84856456D01*
X87876063Y-85025974D01*
X88020226Y-85170137D01*
X88189744Y-85283405D01*
X88378102Y-85361426D01*
X88578061Y-85401200D01*
X88781939Y-85401200D01*
X88981898Y-85361426D01*
X89170256Y-85283405D01*
X89339774Y-85170137D01*
X89383711Y-85126200D01*
X92006299Y-85126200D01*
X93112298Y-86232200D01*
X92995362Y-86349136D01*
X92926756Y-86303295D01*
X92738398Y-86225274D01*
X92538439Y-86185500D01*
X92334561Y-86185500D01*
X92134602Y-86225274D01*
X91946244Y-86303295D01*
X91776726Y-86416563D01*
X91632563Y-86560726D01*
X91519295Y-86730244D01*
X91441274Y-86918602D01*
X91401500Y-87118561D01*
X91401500Y-87322439D01*
X91441274Y-87522398D01*
X91519295Y-87710756D01*
X91632563Y-87880274D01*
X91704601Y-87952312D01*
X91704600Y-87967489D01*
X91660663Y-88011426D01*
X91547395Y-88180944D01*
X91469374Y-88369302D01*
X91429600Y-88569261D01*
X91429600Y-88773139D01*
X91469374Y-88973098D01*
X91547395Y-89161456D01*
X91660663Y-89330974D01*
X91804826Y-89475137D01*
X91974344Y-89588405D01*
X92162702Y-89666426D01*
X92362661Y-89706200D01*
X92566539Y-89706200D01*
X92766498Y-89666426D01*
X92954856Y-89588405D01*
X93124374Y-89475137D01*
X93268537Y-89330974D01*
X93381805Y-89161456D01*
X93459826Y-88973098D01*
X93499600Y-88773139D01*
X93499600Y-88569261D01*
X93459826Y-88369302D01*
X93381805Y-88180944D01*
X93268537Y-88011426D01*
X93237478Y-87980367D01*
X93347786Y-87969503D01*
X93491047Y-87926046D01*
X93623076Y-87855474D01*
X93738801Y-87760501D01*
X93762603Y-87731498D01*
X94397804Y-87096298D01*
X94426801Y-87072501D01*
X94472041Y-87017376D01*
X94521774Y-86956777D01*
X94592346Y-86824747D01*
X94593135Y-86822146D01*
X94635803Y-86681486D01*
X94646800Y-86569833D01*
X94646800Y-86569823D01*
X94650476Y-86532500D01*
X94646800Y-86495177D01*
X94646800Y-85969222D01*
X94650476Y-85931899D01*
X94646800Y-85894576D01*
X94646800Y-85894567D01*
X94635803Y-85782914D01*
X94592346Y-85639653D01*
X94521774Y-85507624D01*
X94426801Y-85391899D01*
X94397803Y-85368101D01*
X92884904Y-83855203D01*
X92861101Y-83826199D01*
X92745376Y-83731226D01*
X92613347Y-83660654D01*
X92470086Y-83617197D01*
X92358433Y-83606200D01*
X92358422Y-83606200D01*
X92321100Y-83602524D01*
X92283778Y-83606200D01*
X89383711Y-83606200D01*
X89339774Y-83562263D01*
X89264570Y-83512014D01*
X89272876Y-83507574D01*
X89388601Y-83412601D01*
X89412403Y-83383598D01*
X89636601Y-83159400D01*
X89698739Y-83159400D01*
X89898698Y-83119626D01*
X90087056Y-83041605D01*
X90256574Y-82928337D01*
X90400737Y-82784174D01*
X90481569Y-82663200D01*
X91788399Y-82663200D01*
X92461199Y-83336001D01*
X92484998Y-83365000D01*
X92513996Y-83388798D01*
X92600722Y-83459973D01*
X92732752Y-83530545D01*
X92870544Y-83572343D01*
X93559203Y-84261003D01*
X93583001Y-84290001D01*
X93611999Y-84313799D01*
X93698725Y-84384974D01*
X93808415Y-84443605D01*
X93830755Y-84455546D01*
X93974016Y-84499003D01*
X94085669Y-84510000D01*
X94085679Y-84510000D01*
X94123002Y-84513676D01*
X94160325Y-84510000D01*
X95162678Y-84510000D01*
X95200000Y-84513676D01*
X95237322Y-84510000D01*
X95237333Y-84510000D01*
X95348986Y-84499003D01*
X95492247Y-84455546D01*
X95624276Y-84384974D01*
X95740001Y-84290001D01*
X95763804Y-84260998D01*
X96534284Y-83490518D01*
X96557344Y-83505926D01*
X96745702Y-83583947D01*
X96945661Y-83623721D01*
X97149539Y-83623721D01*
X97349498Y-83583947D01*
X97537856Y-83505926D01*
X97707374Y-83392658D01*
X97851537Y-83248495D01*
X97964805Y-83078977D01*
X98042826Y-82890619D01*
X98082600Y-82690660D01*
X98082600Y-82486782D01*
X98050659Y-82326200D01*
X100378589Y-82326200D01*
X100411194Y-82358805D01*
%TA.AperFunction,Conductor*%
D23*
G36*
X100411194Y-82358805D02*
G01*
X97841399Y-84928600D01*
X97779261Y-84928600D01*
X97579302Y-84968374D01*
X97390944Y-85046395D01*
X97221426Y-85159663D01*
X97077263Y-85303826D01*
X96963995Y-85473344D01*
X96885974Y-85661702D01*
X96846200Y-85861661D01*
X96846200Y-86065539D01*
X96885974Y-86265498D01*
X96963995Y-86453856D01*
X97077263Y-86623374D01*
X97221426Y-86767537D01*
X97390944Y-86880805D01*
X97579302Y-86958826D01*
X97779261Y-86998600D01*
X97839066Y-86998600D01*
X97852191Y-87014593D01*
X97967916Y-87109566D01*
X98099945Y-87180138D01*
X98243206Y-87223595D01*
X98354859Y-87234592D01*
X98354869Y-87234592D01*
X98392192Y-87238268D01*
X98429515Y-87234592D01*
X98845881Y-87234592D01*
X98889818Y-87278529D01*
X99059336Y-87391797D01*
X99247694Y-87469818D01*
X99447653Y-87509592D01*
X99651531Y-87509592D01*
X99851490Y-87469818D01*
X100039848Y-87391797D01*
X100190000Y-87291469D01*
X100190000Y-87710198D01*
X99036999Y-88863200D01*
X96710525Y-88863200D01*
X96673200Y-88859524D01*
X96635875Y-88863200D01*
X96635867Y-88863200D01*
X96524214Y-88874197D01*
X96380953Y-88917654D01*
X96248924Y-88988226D01*
X96133199Y-89083199D01*
X96109401Y-89112197D01*
X94922372Y-90299227D01*
X94746920Y-90168359D01*
X94484099Y-90043175D01*
X94336890Y-89998524D01*
X94107000Y-90119845D01*
X94107000Y-91313000D01*
X94127000Y-91313000D01*
X94127000Y-91567000D01*
X94107000Y-91567000D01*
X94107000Y-91587000D01*
X93853000Y-91587000D01*
X93853000Y-91567000D01*
X93833000Y-91567000D01*
X93833000Y-91313000D01*
X93853000Y-91313000D01*
X93853000Y-90119845D01*
X93623110Y-89998524D01*
X93475901Y-90043175D01*
X93213080Y-90168359D01*
X92979731Y-90342412D01*
X92784822Y-90558645D01*
X92715195Y-90675534D01*
X92593475Y-90493368D01*
X92386632Y-90286525D01*
X92143411Y-90124010D01*
X91873158Y-90012068D01*
X91586260Y-89955000D01*
X91409200Y-89955000D01*
X91409200Y-89905861D01*
X91369426Y-89705902D01*
X91291405Y-89517544D01*
X91178137Y-89348026D01*
X91033974Y-89203863D01*
X90864456Y-89090595D01*
X90676098Y-89012574D01*
X90476139Y-88972800D01*
X90272261Y-88972800D01*
X90072302Y-89012574D01*
X89883944Y-89090595D01*
X89714426Y-89203863D01*
X89570263Y-89348026D01*
X89456995Y-89517544D01*
X89455900Y-89520188D01*
X89455900Y-89362261D01*
X89416126Y-89162302D01*
X89338105Y-88973944D01*
X89325400Y-88954930D01*
X89325400Y-88547611D01*
X89369337Y-88503674D01*
X89482605Y-88334156D01*
X89560626Y-88145798D01*
X89600400Y-87945839D01*
X89600400Y-87741961D01*
X89560626Y-87542002D01*
X89482605Y-87353644D01*
X89369337Y-87184126D01*
X89225174Y-87039963D01*
X89055656Y-86926695D01*
X88867298Y-86848674D01*
X88667339Y-86808900D01*
X88463461Y-86808900D01*
X88263502Y-86848674D01*
X88075144Y-86926695D01*
X87905626Y-87039963D01*
X87761463Y-87184126D01*
X87648195Y-87353644D01*
X87570174Y-87542002D01*
X87530400Y-87741961D01*
X87530400Y-87945839D01*
X87570174Y-88145798D01*
X87648195Y-88334156D01*
X87761463Y-88503674D01*
X87805400Y-88547611D01*
X87805401Y-88630680D01*
X87761126Y-88660263D01*
X87616963Y-88804426D01*
X87503695Y-88973944D01*
X87425674Y-89162302D01*
X87385900Y-89362261D01*
X87385900Y-89566139D01*
X87425674Y-89766098D01*
X87503695Y-89954456D01*
X87616963Y-90123974D01*
X87761126Y-90268137D01*
X87887390Y-90352503D01*
X87746525Y-90493368D01*
X87630000Y-90667760D01*
X87513475Y-90493368D01*
X87306632Y-90286525D01*
X87063411Y-90124010D01*
X86793158Y-90012068D01*
X86768979Y-90007259D01*
X86776403Y-89982786D01*
X86787400Y-89871133D01*
X86787400Y-89871124D01*
X86791076Y-89833801D01*
X86787400Y-89796478D01*
X86787400Y-84332601D01*
X87487402Y-83632600D01*
X87949889Y-83632600D01*
X87876063Y-83706426D01*
X87762795Y-83875944D01*
X87684774Y-84064302D01*
X87645000Y-84264261D01*
X87645000Y-84468139D01*
X87684774Y-84668098D01*
X87762795Y-84856456D01*
X87876063Y-85025974D01*
X88020226Y-85170137D01*
X88189744Y-85283405D01*
X88378102Y-85361426D01*
X88578061Y-85401200D01*
X88781939Y-85401200D01*
X88981898Y-85361426D01*
X89170256Y-85283405D01*
X89339774Y-85170137D01*
X89383711Y-85126200D01*
X92006299Y-85126200D01*
X93112298Y-86232200D01*
X92995362Y-86349136D01*
X92926756Y-86303295D01*
X92738398Y-86225274D01*
X92538439Y-86185500D01*
X92334561Y-86185500D01*
X92134602Y-86225274D01*
X91946244Y-86303295D01*
X91776726Y-86416563D01*
X91632563Y-86560726D01*
X91519295Y-86730244D01*
X91441274Y-86918602D01*
X91401500Y-87118561D01*
X91401500Y-87322439D01*
X91441274Y-87522398D01*
X91519295Y-87710756D01*
X91632563Y-87880274D01*
X91704601Y-87952312D01*
X91704600Y-87967489D01*
X91660663Y-88011426D01*
X91547395Y-88180944D01*
X91469374Y-88369302D01*
X91429600Y-88569261D01*
X91429600Y-88773139D01*
X91469374Y-88973098D01*
X91547395Y-89161456D01*
X91660663Y-89330974D01*
X91804826Y-89475137D01*
X91974344Y-89588405D01*
X92162702Y-89666426D01*
X92362661Y-89706200D01*
X92566539Y-89706200D01*
X92766498Y-89666426D01*
X92954856Y-89588405D01*
X93124374Y-89475137D01*
X93268537Y-89330974D01*
X93381805Y-89161456D01*
X93459826Y-88973098D01*
X93499600Y-88773139D01*
X93499600Y-88569261D01*
X93459826Y-88369302D01*
X93381805Y-88180944D01*
X93268537Y-88011426D01*
X93237478Y-87980367D01*
X93347786Y-87969503D01*
X93491047Y-87926046D01*
X93623076Y-87855474D01*
X93738801Y-87760501D01*
X93762603Y-87731498D01*
X94397804Y-87096298D01*
X94426801Y-87072501D01*
X94472041Y-87017376D01*
X94521774Y-86956777D01*
X94592346Y-86824747D01*
X94593135Y-86822146D01*
X94635803Y-86681486D01*
X94646800Y-86569833D01*
X94646800Y-86569823D01*
X94650476Y-86532500D01*
X94646800Y-86495177D01*
X94646800Y-85969222D01*
X94650476Y-85931899D01*
X94646800Y-85894576D01*
X94646800Y-85894567D01*
X94635803Y-85782914D01*
X94592346Y-85639653D01*
X94521774Y-85507624D01*
X94426801Y-85391899D01*
X94397803Y-85368101D01*
X92884904Y-83855203D01*
X92861101Y-83826199D01*
X92745376Y-83731226D01*
X92613347Y-83660654D01*
X92470086Y-83617197D01*
X92358433Y-83606200D01*
X92358422Y-83606200D01*
X92321100Y-83602524D01*
X92283778Y-83606200D01*
X89383711Y-83606200D01*
X89339774Y-83562263D01*
X89264570Y-83512014D01*
X89272876Y-83507574D01*
X89388601Y-83412601D01*
X89412403Y-83383598D01*
X89636601Y-83159400D01*
X89698739Y-83159400D01*
X89898698Y-83119626D01*
X90087056Y-83041605D01*
X90256574Y-82928337D01*
X90400737Y-82784174D01*
X90481569Y-82663200D01*
X91788399Y-82663200D01*
X92461199Y-83336001D01*
X92484998Y-83365000D01*
X92513996Y-83388798D01*
X92600722Y-83459973D01*
X92732752Y-83530545D01*
X92870544Y-83572343D01*
X93559203Y-84261003D01*
X93583001Y-84290001D01*
X93611999Y-84313799D01*
X93698725Y-84384974D01*
X93808415Y-84443605D01*
X93830755Y-84455546D01*
X93974016Y-84499003D01*
X94085669Y-84510000D01*
X94085679Y-84510000D01*
X94123002Y-84513676D01*
X94160325Y-84510000D01*
X95162678Y-84510000D01*
X95200000Y-84513676D01*
X95237322Y-84510000D01*
X95237333Y-84510000D01*
X95348986Y-84499003D01*
X95492247Y-84455546D01*
X95624276Y-84384974D01*
X95740001Y-84290001D01*
X95763804Y-84260998D01*
X96534284Y-83490518D01*
X96557344Y-83505926D01*
X96745702Y-83583947D01*
X96945661Y-83623721D01*
X97149539Y-83623721D01*
X97349498Y-83583947D01*
X97537856Y-83505926D01*
X97707374Y-83392658D01*
X97851537Y-83248495D01*
X97964805Y-83078977D01*
X98042826Y-82890619D01*
X98082600Y-82690660D01*
X98082600Y-82486782D01*
X98050659Y-82326200D01*
X100378589Y-82326200D01*
X100411194Y-82358805D01*
G37*
%TD.AperFunction*%
D22*
X79024186Y-79905587D02*
X79046800Y-79980134D01*
X79067643Y-80048847D01*
X79138215Y-80180877D01*
X79204119Y-80261180D01*
X79233189Y-80296602D01*
X79262187Y-80320400D01*
X79500290Y-80558503D01*
X79500290Y-80875370D01*
X79496614Y-80912692D01*
X79500290Y-80950014D01*
X79500290Y-80950025D01*
X79511287Y-81061678D01*
X79539353Y-81154198D01*
X79554744Y-81204938D01*
X79625316Y-81336968D01*
X79692519Y-81418854D01*
X79720290Y-81452693D01*
X79749288Y-81476491D01*
X80183194Y-81910397D01*
X80206997Y-81939401D01*
X80279305Y-81998743D01*
X80322721Y-82034374D01*
X80384366Y-82067324D01*
X80454751Y-82104946D01*
X80598012Y-82148403D01*
X80709665Y-82159400D01*
X80709674Y-82159400D01*
X80746997Y-82163076D01*
X80784320Y-82159400D01*
X86905585Y-82159400D01*
X86880353Y-82167054D01*
X86748324Y-82237626D01*
X86632599Y-82332599D01*
X86608801Y-82361597D01*
X85761266Y-83209133D01*
X85735153Y-83217054D01*
X85603124Y-83287626D01*
X85487399Y-83382599D01*
X85392426Y-83498324D01*
X85321854Y-83630353D01*
X85278397Y-83773614D01*
X85263723Y-83922600D01*
X85267400Y-83959933D01*
X85267401Y-88453900D01*
X85169561Y-88453900D01*
X84969602Y-88493674D01*
X84781244Y-88571695D01*
X84611726Y-88684963D01*
X84467563Y-88829126D01*
X84354295Y-88998644D01*
X84276274Y-89187002D01*
X84275698Y-89189900D01*
X83823900Y-89189900D01*
X83823900Y-89068661D01*
X83784126Y-88868702D01*
X83706105Y-88680344D01*
X83592837Y-88510826D01*
X83448674Y-88366663D01*
X83279156Y-88253395D01*
X83090798Y-88175374D01*
X82890839Y-88135600D01*
X82828702Y-88135600D01*
X82119803Y-87426702D01*
X82096000Y-87397698D01*
X81980275Y-87302725D01*
X81848246Y-87232153D01*
X81704985Y-87188696D01*
X81593332Y-87177699D01*
X81593321Y-87177699D01*
X81555999Y-87174023D01*
X81518677Y-87177699D01*
X78102502Y-87177699D01*
X77386102Y-86461300D01*
X77465339Y-86461300D01*
X77665298Y-86421526D01*
X77853656Y-86343505D01*
X78023174Y-86230237D01*
X78167337Y-86086074D01*
X78280605Y-85916556D01*
X78358626Y-85728198D01*
X78398400Y-85528239D01*
X78398400Y-85324361D01*
X78358626Y-85124402D01*
X78280605Y-84936044D01*
X78167337Y-84766526D01*
X78023174Y-84622363D01*
X77853656Y-84509095D01*
X77665298Y-84431074D01*
X77505330Y-84399255D01*
X77549426Y-84292798D01*
X77589200Y-84092839D01*
X77589200Y-83888961D01*
X77549426Y-83689002D01*
X77471405Y-83500644D01*
X77358137Y-83331126D01*
X77213974Y-83186963D01*
X77044456Y-83073695D01*
X76856098Y-82995674D01*
X76656139Y-82955900D01*
X76497118Y-82955900D01*
X76382386Y-82921097D01*
X76270733Y-82910100D01*
X76270722Y-82910100D01*
X76233400Y-82906424D01*
X76196078Y-82910100D01*
X75888201Y-82910100D01*
X76634505Y-82163797D01*
X76663502Y-82140000D01*
X76758475Y-82024275D01*
X76829047Y-81892246D01*
X76872504Y-81748985D01*
X76872655Y-81747456D01*
X80170698Y-85045500D01*
X80189195Y-85090156D01*
X80302463Y-85259674D01*
X80446626Y-85403837D01*
X80616144Y-85517105D01*
X80804502Y-85595126D01*
X81004461Y-85634900D01*
X81208339Y-85634900D01*
X81408298Y-85595126D01*
X81596656Y-85517105D01*
X81766174Y-85403837D01*
X81910337Y-85259674D01*
X82023605Y-85090156D01*
X82101626Y-84901798D01*
X82141400Y-84701839D01*
X82141400Y-84497961D01*
X82101626Y-84298002D01*
X82023605Y-84109644D01*
X81910337Y-83940126D01*
X81766174Y-83795963D01*
X81596656Y-83682695D01*
X81408298Y-83604674D01*
X81208339Y-83564900D01*
X81004461Y-83564900D01*
X80867037Y-83592235D01*
X77635000Y-80360199D01*
X77635000Y-80298061D01*
X77595226Y-80098102D01*
X77517205Y-79909744D01*
X77477900Y-79850920D01*
X79018802Y-79850920D01*
X79024186Y-79905587D01*
%TA.AperFunction,Conductor*%
D23*
G36*
X79024186Y-79905587D02*
G01*
X79046800Y-79980134D01*
X79067643Y-80048847D01*
X79138215Y-80180877D01*
X79204119Y-80261180D01*
X79233189Y-80296602D01*
X79262187Y-80320400D01*
X79500290Y-80558503D01*
X79500290Y-80875370D01*
X79496614Y-80912692D01*
X79500290Y-80950014D01*
X79500290Y-80950025D01*
X79511287Y-81061678D01*
X79539353Y-81154198D01*
X79554744Y-81204938D01*
X79625316Y-81336968D01*
X79692519Y-81418854D01*
X79720290Y-81452693D01*
X79749288Y-81476491D01*
X80183194Y-81910397D01*
X80206997Y-81939401D01*
X80279305Y-81998743D01*
X80322721Y-82034374D01*
X80384366Y-82067324D01*
X80454751Y-82104946D01*
X80598012Y-82148403D01*
X80709665Y-82159400D01*
X80709674Y-82159400D01*
X80746997Y-82163076D01*
X80784320Y-82159400D01*
X86905585Y-82159400D01*
X86880353Y-82167054D01*
X86748324Y-82237626D01*
X86632599Y-82332599D01*
X86608801Y-82361597D01*
X85761266Y-83209133D01*
X85735153Y-83217054D01*
X85603124Y-83287626D01*
X85487399Y-83382599D01*
X85392426Y-83498324D01*
X85321854Y-83630353D01*
X85278397Y-83773614D01*
X85263723Y-83922600D01*
X85267400Y-83959933D01*
X85267401Y-88453900D01*
X85169561Y-88453900D01*
X84969602Y-88493674D01*
X84781244Y-88571695D01*
X84611726Y-88684963D01*
X84467563Y-88829126D01*
X84354295Y-88998644D01*
X84276274Y-89187002D01*
X84275698Y-89189900D01*
X83823900Y-89189900D01*
X83823900Y-89068661D01*
X83784126Y-88868702D01*
X83706105Y-88680344D01*
X83592837Y-88510826D01*
X83448674Y-88366663D01*
X83279156Y-88253395D01*
X83090798Y-88175374D01*
X82890839Y-88135600D01*
X82828702Y-88135600D01*
X82119803Y-87426702D01*
X82096000Y-87397698D01*
X81980275Y-87302725D01*
X81848246Y-87232153D01*
X81704985Y-87188696D01*
X81593332Y-87177699D01*
X81593321Y-87177699D01*
X81555999Y-87174023D01*
X81518677Y-87177699D01*
X78102502Y-87177699D01*
X77386102Y-86461300D01*
X77465339Y-86461300D01*
X77665298Y-86421526D01*
X77853656Y-86343505D01*
X78023174Y-86230237D01*
X78167337Y-86086074D01*
X78280605Y-85916556D01*
X78358626Y-85728198D01*
X78398400Y-85528239D01*
X78398400Y-85324361D01*
X78358626Y-85124402D01*
X78280605Y-84936044D01*
X78167337Y-84766526D01*
X78023174Y-84622363D01*
X77853656Y-84509095D01*
X77665298Y-84431074D01*
X77505330Y-84399255D01*
X77549426Y-84292798D01*
X77589200Y-84092839D01*
X77589200Y-83888961D01*
X77549426Y-83689002D01*
X77471405Y-83500644D01*
X77358137Y-83331126D01*
X77213974Y-83186963D01*
X77044456Y-83073695D01*
X76856098Y-82995674D01*
X76656139Y-82955900D01*
X76497118Y-82955900D01*
X76382386Y-82921097D01*
X76270733Y-82910100D01*
X76270722Y-82910100D01*
X76233400Y-82906424D01*
X76196078Y-82910100D01*
X75888201Y-82910100D01*
X76634505Y-82163797D01*
X76663502Y-82140000D01*
X76758475Y-82024275D01*
X76829047Y-81892246D01*
X76872504Y-81748985D01*
X76872655Y-81747456D01*
X80170698Y-85045500D01*
X80189195Y-85090156D01*
X80302463Y-85259674D01*
X80446626Y-85403837D01*
X80616144Y-85517105D01*
X80804502Y-85595126D01*
X81004461Y-85634900D01*
X81208339Y-85634900D01*
X81408298Y-85595126D01*
X81596656Y-85517105D01*
X81766174Y-85403837D01*
X81910337Y-85259674D01*
X82023605Y-85090156D01*
X82101626Y-84901798D01*
X82141400Y-84701839D01*
X82141400Y-84497961D01*
X82101626Y-84298002D01*
X82023605Y-84109644D01*
X81910337Y-83940126D01*
X81766174Y-83795963D01*
X81596656Y-83682695D01*
X81408298Y-83604674D01*
X81208339Y-83564900D01*
X81004461Y-83564900D01*
X80867037Y-83592235D01*
X77635000Y-80360199D01*
X77635000Y-80298061D01*
X77595226Y-80098102D01*
X77517205Y-79909744D01*
X77477900Y-79850920D01*
X79018802Y-79850920D01*
X79024186Y-79905587D01*
G37*
%TD.AperFunction*%
D22*
X102420000Y-82505072D02*
X102772125Y-82505072D01*
X100438998Y-84838201D01*
X100410000Y-84861999D01*
X100386202Y-84890997D01*
X100386201Y-84890998D01*
X100315026Y-84977724D01*
X100244454Y-85109754D01*
X100222267Y-85182897D01*
X100200998Y-85253014D01*
X100191757Y-85346839D01*
X100186324Y-85402000D01*
X100190001Y-85439332D01*
X100190001Y-85657716D01*
X100039848Y-85557387D01*
X99851490Y-85479366D01*
X99651531Y-85439592D01*
X99480009Y-85439592D01*
X102318603Y-82600999D01*
X102347601Y-82577201D01*
X102389785Y-82525800D01*
X102407784Y-82503869D01*
X102420000Y-82505072D01*
%TA.AperFunction,Conductor*%
D23*
G36*
X102420000Y-82505072D02*
G01*
X102772125Y-82505072D01*
X100438998Y-84838201D01*
X100410000Y-84861999D01*
X100386202Y-84890997D01*
X100386201Y-84890998D01*
X100315026Y-84977724D01*
X100244454Y-85109754D01*
X100222267Y-85182897D01*
X100200998Y-85253014D01*
X100191757Y-85346839D01*
X100186324Y-85402000D01*
X100190001Y-85439332D01*
X100190001Y-85657716D01*
X100039848Y-85557387D01*
X99851490Y-85479366D01*
X99651531Y-85439592D01*
X99480009Y-85439592D01*
X102318603Y-82600999D01*
X102347601Y-82577201D01*
X102389785Y-82525800D01*
X102407784Y-82503869D01*
X102420000Y-82505072D01*
G37*
%TD.AperFunction*%
D22*
X95405395Y-82337056D02*
X95458566Y-82416632D01*
X94885199Y-82990000D01*
X94437804Y-82990000D01*
X93761804Y-82314001D01*
X93738002Y-82284998D01*
X93622277Y-82190025D01*
X93564982Y-82159400D01*
X95331807Y-82159400D01*
X95405395Y-82337056D01*
%TA.AperFunction,Conductor*%
D23*
G36*
X95405395Y-82337056D02*
G01*
X95458566Y-82416632D01*
X94885199Y-82990000D01*
X94437804Y-82990000D01*
X93761804Y-82314001D01*
X93738002Y-82284998D01*
X93622277Y-82190025D01*
X93564982Y-82159400D01*
X95331807Y-82159400D01*
X95405395Y-82337056D01*
G37*
%TD.AperFunction*%
D22*
X57725300Y-76174077D02*
X57721624Y-76211400D01*
X57725300Y-76248722D01*
X57725300Y-76248732D01*
X57736297Y-76360385D01*
X57772612Y-76480101D01*
X57779754Y-76503646D01*
X57850326Y-76635676D01*
X57860607Y-76648203D01*
X57945299Y-76751401D01*
X57974303Y-76775204D01*
X61075705Y-79876608D01*
X61099499Y-79905601D01*
X61128492Y-79929395D01*
X61128496Y-79929399D01*
X61180840Y-79972356D01*
X61215224Y-80000574D01*
X61347253Y-80071146D01*
X61490514Y-80114603D01*
X61602167Y-80125600D01*
X61602176Y-80125600D01*
X61639499Y-80129276D01*
X61676822Y-80125600D01*
X64838878Y-80125600D01*
X64876200Y-80129276D01*
X64913522Y-80125600D01*
X64913533Y-80125600D01*
X65025186Y-80114603D01*
X65168447Y-80071146D01*
X65300476Y-80000574D01*
X65416201Y-79905601D01*
X65440003Y-79876598D01*
X65988160Y-79328442D01*
X66101353Y-79388946D01*
X66244614Y-79432403D01*
X66356267Y-79443400D01*
X66356276Y-79443400D01*
X66393599Y-79447076D01*
X66430922Y-79443400D01*
X66839799Y-79443400D01*
X67630198Y-80233800D01*
X59553533Y-80233800D01*
X59488537Y-80136526D01*
X59344374Y-79992363D01*
X59174856Y-79879095D01*
X58986498Y-79801074D01*
X58786539Y-79761300D01*
X58582661Y-79761300D01*
X58382702Y-79801074D01*
X58194344Y-79879095D01*
X58024826Y-79992363D01*
X57880663Y-80136526D01*
X57767395Y-80306044D01*
X57689374Y-80494402D01*
X57649600Y-80694361D01*
X57649600Y-80898239D01*
X57689374Y-81098198D01*
X57767395Y-81286556D01*
X57880663Y-81456074D01*
X58024826Y-81600237D01*
X58194344Y-81713505D01*
X58382702Y-81791526D01*
X58458282Y-81806560D01*
X58425800Y-81969861D01*
X58425800Y-82050500D01*
X57817687Y-82050500D01*
X57810626Y-82015002D01*
X57732605Y-81826644D01*
X57619337Y-81657126D01*
X57475174Y-81512963D01*
X57305656Y-81399695D01*
X57117298Y-81321674D01*
X56917339Y-81281900D01*
X56713461Y-81281900D01*
X56513502Y-81321674D01*
X56502600Y-81326190D01*
X56502600Y-76707501D01*
X57523630Y-75686472D01*
X57647476Y-75620274D01*
X57660604Y-75609500D01*
X57725300Y-75609500D01*
X57725300Y-76174077D01*
%TA.AperFunction,Conductor*%
D23*
G36*
X57725300Y-76174077D02*
G01*
X57721624Y-76211400D01*
X57725300Y-76248722D01*
X57725300Y-76248732D01*
X57736297Y-76360385D01*
X57772612Y-76480101D01*
X57779754Y-76503646D01*
X57850326Y-76635676D01*
X57860607Y-76648203D01*
X57945299Y-76751401D01*
X57974303Y-76775204D01*
X61075705Y-79876608D01*
X61099499Y-79905601D01*
X61128492Y-79929395D01*
X61128496Y-79929399D01*
X61180840Y-79972356D01*
X61215224Y-80000574D01*
X61347253Y-80071146D01*
X61490514Y-80114603D01*
X61602167Y-80125600D01*
X61602176Y-80125600D01*
X61639499Y-80129276D01*
X61676822Y-80125600D01*
X64838878Y-80125600D01*
X64876200Y-80129276D01*
X64913522Y-80125600D01*
X64913533Y-80125600D01*
X65025186Y-80114603D01*
X65168447Y-80071146D01*
X65300476Y-80000574D01*
X65416201Y-79905601D01*
X65440003Y-79876598D01*
X65988160Y-79328442D01*
X66101353Y-79388946D01*
X66244614Y-79432403D01*
X66356267Y-79443400D01*
X66356276Y-79443400D01*
X66393599Y-79447076D01*
X66430922Y-79443400D01*
X66839799Y-79443400D01*
X67630198Y-80233800D01*
X59553533Y-80233800D01*
X59488537Y-80136526D01*
X59344374Y-79992363D01*
X59174856Y-79879095D01*
X58986498Y-79801074D01*
X58786539Y-79761300D01*
X58582661Y-79761300D01*
X58382702Y-79801074D01*
X58194344Y-79879095D01*
X58024826Y-79992363D01*
X57880663Y-80136526D01*
X57767395Y-80306044D01*
X57689374Y-80494402D01*
X57649600Y-80694361D01*
X57649600Y-80898239D01*
X57689374Y-81098198D01*
X57767395Y-81286556D01*
X57880663Y-81456074D01*
X58024826Y-81600237D01*
X58194344Y-81713505D01*
X58382702Y-81791526D01*
X58458282Y-81806560D01*
X58425800Y-81969861D01*
X58425800Y-82050500D01*
X57817687Y-82050500D01*
X57810626Y-82015002D01*
X57732605Y-81826644D01*
X57619337Y-81657126D01*
X57475174Y-81512963D01*
X57305656Y-81399695D01*
X57117298Y-81321674D01*
X56917339Y-81281900D01*
X56713461Y-81281900D01*
X56513502Y-81321674D01*
X56502600Y-81326190D01*
X56502600Y-76707501D01*
X57523630Y-75686472D01*
X57647476Y-75620274D01*
X57660604Y-75609500D01*
X57725300Y-75609500D01*
X57725300Y-76174077D01*
G37*
%TD.AperFunction*%
D22*
X70408718Y-81569021D02*
X70381706Y-81503810D01*
X70566150Y-81503810D01*
X70408718Y-81569021D01*
%TA.AperFunction,Conductor*%
D23*
G36*
X70408718Y-81569021D02*
G01*
X70381706Y-81503810D01*
X70566150Y-81503810D01*
X70408718Y-81569021D01*
G37*
%TD.AperFunction*%
D22*
X70989000Y-79020802D02*
X71068748Y-79020802D01*
X70989000Y-79100550D01*
X70999299Y-79198743D01*
X71013398Y-79243800D01*
X70999299Y-79288857D01*
X70989000Y-79387050D01*
X71068748Y-79466798D01*
X70989000Y-79466798D01*
X70989000Y-79533800D01*
X70851162Y-79533800D01*
X70895379Y-79427051D01*
X70935153Y-79227092D01*
X70935153Y-79039648D01*
X70989000Y-78985801D01*
X70989000Y-79020802D01*
%TA.AperFunction,Conductor*%
D23*
G36*
X70989000Y-79020802D02*
G01*
X71068748Y-79020802D01*
X70989000Y-79100550D01*
X70999299Y-79198743D01*
X71013398Y-79243800D01*
X70999299Y-79288857D01*
X70989000Y-79387050D01*
X71068748Y-79466798D01*
X70989000Y-79466798D01*
X70989000Y-79533800D01*
X70851162Y-79533800D01*
X70895379Y-79427051D01*
X70935153Y-79227092D01*
X70935153Y-79039648D01*
X70989000Y-78985801D01*
X70989000Y-79020802D01*
G37*
%TD.AperFunction*%
D22*
X77805401Y-76860203D02*
X77829199Y-76889201D01*
X77944924Y-76984174D01*
X78076953Y-77054746D01*
X78220214Y-77098203D01*
X78240480Y-77100199D01*
X78369200Y-77112877D01*
X78406533Y-77109200D01*
X83603389Y-77109200D01*
X83647326Y-77153137D01*
X83816844Y-77266405D01*
X84005202Y-77344426D01*
X84205161Y-77384200D01*
X84409039Y-77384200D01*
X84608998Y-77344426D01*
X84797356Y-77266405D01*
X84966874Y-77153137D01*
X85111037Y-77008974D01*
X85224305Y-76839456D01*
X85302326Y-76651098D01*
X85313392Y-76595466D01*
X85330753Y-76604746D01*
X85474014Y-76648203D01*
X85585667Y-76659200D01*
X85585675Y-76659200D01*
X85623000Y-76662876D01*
X85660325Y-76659200D01*
X94189699Y-76659200D01*
X93417999Y-77430900D01*
X92631480Y-77430900D01*
X92623601Y-77421299D01*
X92507876Y-77326326D01*
X92375847Y-77255754D01*
X92232586Y-77212297D01*
X92120933Y-77201300D01*
X92120922Y-77201300D01*
X92083600Y-77197624D01*
X92046278Y-77201300D01*
X91520022Y-77201300D01*
X91482699Y-77197624D01*
X91445376Y-77201300D01*
X91445367Y-77201300D01*
X91333714Y-77212297D01*
X91190453Y-77255754D01*
X91058424Y-77326326D01*
X90942699Y-77421299D01*
X90934820Y-77430900D01*
X88327080Y-77430900D01*
X88319201Y-77421299D01*
X88203476Y-77326326D01*
X88071447Y-77255754D01*
X87928186Y-77212297D01*
X87816533Y-77201300D01*
X87816522Y-77201300D01*
X87779200Y-77197624D01*
X87741878Y-77201300D01*
X87215622Y-77201300D01*
X87178299Y-77197624D01*
X87140976Y-77201300D01*
X87140967Y-77201300D01*
X87029314Y-77212297D01*
X86886053Y-77255754D01*
X86754024Y-77326326D01*
X86638299Y-77421299D01*
X86630420Y-77430900D01*
X77401496Y-77430900D01*
X77413426Y-77402098D01*
X77453200Y-77202139D01*
X77453200Y-76998261D01*
X77413426Y-76798302D01*
X77335405Y-76609944D01*
X77222137Y-76440426D01*
X77077974Y-76296263D01*
X76908456Y-76182995D01*
X76720098Y-76104974D01*
X76520139Y-76065200D01*
X76328047Y-76065200D01*
X76260786Y-76044797D01*
X76149133Y-76033800D01*
X76149122Y-76033800D01*
X76111800Y-76030124D01*
X76074478Y-76033800D01*
X75262072Y-76033800D01*
X75262072Y-75918800D01*
X75249812Y-75794318D01*
X75234488Y-75743800D01*
X75249812Y-75693282D01*
X75262072Y-75568800D01*
X75262072Y-75218800D01*
X75249812Y-75094318D01*
X75234544Y-75043985D01*
X75248701Y-74998743D01*
X75253457Y-74953400D01*
X75898599Y-74953400D01*
X77805401Y-76860203D01*
%TA.AperFunction,Conductor*%
D23*
G36*
X77805401Y-76860203D02*
G01*
X77829199Y-76889201D01*
X77944924Y-76984174D01*
X78076953Y-77054746D01*
X78220214Y-77098203D01*
X78240480Y-77100199D01*
X78369200Y-77112877D01*
X78406533Y-77109200D01*
X83603389Y-77109200D01*
X83647326Y-77153137D01*
X83816844Y-77266405D01*
X84005202Y-77344426D01*
X84205161Y-77384200D01*
X84409039Y-77384200D01*
X84608998Y-77344426D01*
X84797356Y-77266405D01*
X84966874Y-77153137D01*
X85111037Y-77008974D01*
X85224305Y-76839456D01*
X85302326Y-76651098D01*
X85313392Y-76595466D01*
X85330753Y-76604746D01*
X85474014Y-76648203D01*
X85585667Y-76659200D01*
X85585675Y-76659200D01*
X85623000Y-76662876D01*
X85660325Y-76659200D01*
X94189699Y-76659200D01*
X93417999Y-77430900D01*
X92631480Y-77430900D01*
X92623601Y-77421299D01*
X92507876Y-77326326D01*
X92375847Y-77255754D01*
X92232586Y-77212297D01*
X92120933Y-77201300D01*
X92120922Y-77201300D01*
X92083600Y-77197624D01*
X92046278Y-77201300D01*
X91520022Y-77201300D01*
X91482699Y-77197624D01*
X91445376Y-77201300D01*
X91445367Y-77201300D01*
X91333714Y-77212297D01*
X91190453Y-77255754D01*
X91058424Y-77326326D01*
X90942699Y-77421299D01*
X90934820Y-77430900D01*
X88327080Y-77430900D01*
X88319201Y-77421299D01*
X88203476Y-77326326D01*
X88071447Y-77255754D01*
X87928186Y-77212297D01*
X87816533Y-77201300D01*
X87816522Y-77201300D01*
X87779200Y-77197624D01*
X87741878Y-77201300D01*
X87215622Y-77201300D01*
X87178299Y-77197624D01*
X87140976Y-77201300D01*
X87140967Y-77201300D01*
X87029314Y-77212297D01*
X86886053Y-77255754D01*
X86754024Y-77326326D01*
X86638299Y-77421299D01*
X86630420Y-77430900D01*
X77401496Y-77430900D01*
X77413426Y-77402098D01*
X77453200Y-77202139D01*
X77453200Y-76998261D01*
X77413426Y-76798302D01*
X77335405Y-76609944D01*
X77222137Y-76440426D01*
X77077974Y-76296263D01*
X76908456Y-76182995D01*
X76720098Y-76104974D01*
X76520139Y-76065200D01*
X76328047Y-76065200D01*
X76260786Y-76044797D01*
X76149133Y-76033800D01*
X76149122Y-76033800D01*
X76111800Y-76030124D01*
X76074478Y-76033800D01*
X75262072Y-76033800D01*
X75262072Y-75918800D01*
X75249812Y-75794318D01*
X75234488Y-75743800D01*
X75249812Y-75693282D01*
X75262072Y-75568800D01*
X75262072Y-75218800D01*
X75249812Y-75094318D01*
X75234544Y-75043985D01*
X75248701Y-74998743D01*
X75253457Y-74953400D01*
X75898599Y-74953400D01*
X77805401Y-76860203D01*
G37*
%TD.AperFunction*%
D22*
X76078344Y-72735005D02*
X76266702Y-72813026D01*
X76466661Y-72852800D01*
X76670539Y-72852800D01*
X76836600Y-72819769D01*
X76836600Y-72975439D01*
X76876374Y-73175398D01*
X76954395Y-73363756D01*
X77067663Y-73533274D01*
X77211826Y-73677437D01*
X77381344Y-73790705D01*
X77569702Y-73868726D01*
X77769661Y-73908500D01*
X77973539Y-73908500D01*
X78173498Y-73868726D01*
X78361856Y-73790705D01*
X78531374Y-73677437D01*
X78575311Y-73633500D01*
X83349789Y-73633500D01*
X83281463Y-73701826D01*
X83168195Y-73871344D01*
X83090174Y-74059702D01*
X83050400Y-74259661D01*
X83050400Y-74463539D01*
X83090174Y-74663498D01*
X83168195Y-74851856D01*
X83281463Y-75021374D01*
X83425626Y-75165537D01*
X83595144Y-75278805D01*
X83783502Y-75356826D01*
X83928627Y-75385693D01*
X83816844Y-75431995D01*
X83647326Y-75545263D01*
X83603389Y-75589200D01*
X78684002Y-75589200D01*
X76777204Y-73682403D01*
X76753401Y-73653399D01*
X76637676Y-73558426D01*
X76505647Y-73487854D01*
X76362386Y-73444397D01*
X76250733Y-73433400D01*
X76250722Y-73433400D01*
X76213400Y-73429724D01*
X76176078Y-73433400D01*
X73797775Y-73433400D01*
X73810000Y-73371939D01*
X73810000Y-73168061D01*
X73807959Y-73157800D01*
X74710078Y-73157800D01*
X74747400Y-73161476D01*
X74784722Y-73157800D01*
X74784733Y-73157800D01*
X74896386Y-73146803D01*
X75039647Y-73103346D01*
X75171676Y-73032774D01*
X75287401Y-72937801D01*
X75287812Y-72937300D01*
X75344839Y-72937300D01*
X75544798Y-72897526D01*
X75733156Y-72819505D01*
X75902674Y-72706237D01*
X75955792Y-72653119D01*
X76078344Y-72735005D01*
%TA.AperFunction,Conductor*%
D23*
G36*
X76078344Y-72735005D02*
G01*
X76266702Y-72813026D01*
X76466661Y-72852800D01*
X76670539Y-72852800D01*
X76836600Y-72819769D01*
X76836600Y-72975439D01*
X76876374Y-73175398D01*
X76954395Y-73363756D01*
X77067663Y-73533274D01*
X77211826Y-73677437D01*
X77381344Y-73790705D01*
X77569702Y-73868726D01*
X77769661Y-73908500D01*
X77973539Y-73908500D01*
X78173498Y-73868726D01*
X78361856Y-73790705D01*
X78531374Y-73677437D01*
X78575311Y-73633500D01*
X83349789Y-73633500D01*
X83281463Y-73701826D01*
X83168195Y-73871344D01*
X83090174Y-74059702D01*
X83050400Y-74259661D01*
X83050400Y-74463539D01*
X83090174Y-74663498D01*
X83168195Y-74851856D01*
X83281463Y-75021374D01*
X83425626Y-75165537D01*
X83595144Y-75278805D01*
X83783502Y-75356826D01*
X83928627Y-75385693D01*
X83816844Y-75431995D01*
X83647326Y-75545263D01*
X83603389Y-75589200D01*
X78684002Y-75589200D01*
X76777204Y-73682403D01*
X76753401Y-73653399D01*
X76637676Y-73558426D01*
X76505647Y-73487854D01*
X76362386Y-73444397D01*
X76250733Y-73433400D01*
X76250722Y-73433400D01*
X76213400Y-73429724D01*
X76176078Y-73433400D01*
X73797775Y-73433400D01*
X73810000Y-73371939D01*
X73810000Y-73168061D01*
X73807959Y-73157800D01*
X74710078Y-73157800D01*
X74747400Y-73161476D01*
X74784722Y-73157800D01*
X74784733Y-73157800D01*
X74896386Y-73146803D01*
X75039647Y-73103346D01*
X75171676Y-73032774D01*
X75287401Y-72937801D01*
X75287812Y-72937300D01*
X75344839Y-72937300D01*
X75544798Y-72897526D01*
X75733156Y-72819505D01*
X75902674Y-72706237D01*
X75955792Y-72653119D01*
X76078344Y-72735005D01*
G37*
%TD.AperFunction*%
D22*
X95366525Y-66986632D02*
X95573368Y-67193475D01*
X95588700Y-67203720D01*
X95588701Y-75078777D01*
X95443856Y-74981995D01*
X95255498Y-74903974D01*
X95055539Y-74864200D01*
X94851661Y-74864200D01*
X94651702Y-74903974D01*
X94463344Y-74981995D01*
X94293826Y-75095263D01*
X94249889Y-75139200D01*
X85937802Y-75139200D01*
X85120400Y-74321799D01*
X85120400Y-74259661D01*
X85080626Y-74059702D01*
X85002605Y-73871344D01*
X84889337Y-73701826D01*
X84885572Y-73698061D01*
X90090000Y-73698061D01*
X90090000Y-73901939D01*
X90129774Y-74101898D01*
X90207795Y-74290256D01*
X90321063Y-74459774D01*
X90465226Y-74603937D01*
X90634744Y-74717205D01*
X90823102Y-74795226D01*
X91023061Y-74835000D01*
X91226939Y-74835000D01*
X91426898Y-74795226D01*
X91615256Y-74717205D01*
X91784774Y-74603937D01*
X91928937Y-74459774D01*
X92042205Y-74290256D01*
X92120226Y-74101898D01*
X92160000Y-73901939D01*
X92160000Y-73698061D01*
X92120226Y-73498102D01*
X92042205Y-73309744D01*
X91928937Y-73140226D01*
X91784774Y-72996063D01*
X91615256Y-72882795D01*
X91426898Y-72804774D01*
X91226939Y-72765000D01*
X91023061Y-72765000D01*
X90823102Y-72804774D01*
X90634744Y-72882795D01*
X90465226Y-72996063D01*
X90321063Y-73140226D01*
X90207795Y-73309744D01*
X90129774Y-73498102D01*
X90090000Y-73698061D01*
X84885572Y-73698061D01*
X84821011Y-73633500D01*
X85776178Y-73633500D01*
X85813500Y-73637176D01*
X85850822Y-73633500D01*
X85850833Y-73633500D01*
X85962486Y-73622503D01*
X86105747Y-73579046D01*
X86237776Y-73508474D01*
X86303422Y-73454600D01*
X86459278Y-73454600D01*
X86496600Y-73458276D01*
X86533922Y-73454600D01*
X86533933Y-73454600D01*
X86645586Y-73443603D01*
X86788847Y-73400146D01*
X86920876Y-73329574D01*
X87036601Y-73234601D01*
X87060404Y-73205597D01*
X93056842Y-67209160D01*
X93276589Y-67355990D01*
X93546842Y-67467932D01*
X93833740Y-67525000D01*
X94126260Y-67525000D01*
X94413158Y-67467932D01*
X94683411Y-67355990D01*
X94926632Y-67193475D01*
X95133475Y-66986632D01*
X95250000Y-66812240D01*
X95366525Y-66986632D01*
%TA.AperFunction,Conductor*%
D23*
G36*
X95366525Y-66986632D02*
G01*
X95573368Y-67193475D01*
X95588700Y-67203720D01*
X95588701Y-75078777D01*
X95443856Y-74981995D01*
X95255498Y-74903974D01*
X95055539Y-74864200D01*
X94851661Y-74864200D01*
X94651702Y-74903974D01*
X94463344Y-74981995D01*
X94293826Y-75095263D01*
X94249889Y-75139200D01*
X85937802Y-75139200D01*
X85120400Y-74321799D01*
X85120400Y-74259661D01*
X85080626Y-74059702D01*
X85002605Y-73871344D01*
X84889337Y-73701826D01*
X84885572Y-73698061D01*
X90090000Y-73698061D01*
X90090000Y-73901939D01*
X90129774Y-74101898D01*
X90207795Y-74290256D01*
X90321063Y-74459774D01*
X90465226Y-74603937D01*
X90634744Y-74717205D01*
X90823102Y-74795226D01*
X91023061Y-74835000D01*
X91226939Y-74835000D01*
X91426898Y-74795226D01*
X91615256Y-74717205D01*
X91784774Y-74603937D01*
X91928937Y-74459774D01*
X92042205Y-74290256D01*
X92120226Y-74101898D01*
X92160000Y-73901939D01*
X92160000Y-73698061D01*
X92120226Y-73498102D01*
X92042205Y-73309744D01*
X91928937Y-73140226D01*
X91784774Y-72996063D01*
X91615256Y-72882795D01*
X91426898Y-72804774D01*
X91226939Y-72765000D01*
X91023061Y-72765000D01*
X90823102Y-72804774D01*
X90634744Y-72882795D01*
X90465226Y-72996063D01*
X90321063Y-73140226D01*
X90207795Y-73309744D01*
X90129774Y-73498102D01*
X90090000Y-73698061D01*
X84885572Y-73698061D01*
X84821011Y-73633500D01*
X85776178Y-73633500D01*
X85813500Y-73637176D01*
X85850822Y-73633500D01*
X85850833Y-73633500D01*
X85962486Y-73622503D01*
X86105747Y-73579046D01*
X86237776Y-73508474D01*
X86303422Y-73454600D01*
X86459278Y-73454600D01*
X86496600Y-73458276D01*
X86533922Y-73454600D01*
X86533933Y-73454600D01*
X86645586Y-73443603D01*
X86788847Y-73400146D01*
X86920876Y-73329574D01*
X87036601Y-73234601D01*
X87060404Y-73205597D01*
X93056842Y-67209160D01*
X93276589Y-67355990D01*
X93546842Y-67467932D01*
X93833740Y-67525000D01*
X94126260Y-67525000D01*
X94413158Y-67467932D01*
X94683411Y-67355990D01*
X94926632Y-67193475D01*
X95133475Y-66986632D01*
X95250000Y-66812240D01*
X95366525Y-66986632D01*
G37*
%TD.AperFunction*%
D22*
X109543744Y-67590045D02*
X109496163Y-67637626D01*
X109382895Y-67807144D01*
X109304874Y-67995502D01*
X109265100Y-68195461D01*
X109265100Y-68399339D01*
X109304874Y-68599298D01*
X109382895Y-68787656D01*
X109496163Y-68957174D01*
X109640326Y-69101337D01*
X109809844Y-69214605D01*
X109977477Y-69284041D01*
X109793144Y-69360395D01*
X109623626Y-69473663D01*
X109481889Y-69615400D01*
X108612200Y-69615400D01*
X108612200Y-69548161D01*
X108572426Y-69348202D01*
X108494405Y-69159844D01*
X108381137Y-68990326D01*
X108236974Y-68846163D01*
X108067456Y-68732895D01*
X107998909Y-68704502D01*
X108109337Y-68594074D01*
X108222605Y-68424556D01*
X108300626Y-68236198D01*
X108340400Y-68036239D01*
X108340400Y-67832361D01*
X108300626Y-67632402D01*
X108282027Y-67587500D01*
X109541199Y-67587500D01*
X109543744Y-67590045D01*
%TA.AperFunction,Conductor*%
D23*
G36*
X109543744Y-67590045D02*
G01*
X109496163Y-67637626D01*
X109382895Y-67807144D01*
X109304874Y-67995502D01*
X109265100Y-68195461D01*
X109265100Y-68399339D01*
X109304874Y-68599298D01*
X109382895Y-68787656D01*
X109496163Y-68957174D01*
X109640326Y-69101337D01*
X109809844Y-69214605D01*
X109977477Y-69284041D01*
X109793144Y-69360395D01*
X109623626Y-69473663D01*
X109481889Y-69615400D01*
X108612200Y-69615400D01*
X108612200Y-69548161D01*
X108572426Y-69348202D01*
X108494405Y-69159844D01*
X108381137Y-68990326D01*
X108236974Y-68846163D01*
X108067456Y-68732895D01*
X107998909Y-68704502D01*
X108109337Y-68594074D01*
X108222605Y-68424556D01*
X108300626Y-68236198D01*
X108340400Y-68036239D01*
X108340400Y-67832361D01*
X108300626Y-67632402D01*
X108282027Y-67587500D01*
X109541199Y-67587500D01*
X109543744Y-67590045D01*
G37*
%TD.AperFunction*%
D22*
X103901598Y-69615400D02*
X103859303Y-69615400D01*
X103735105Y-69491202D01*
X103711302Y-69462198D01*
X103595577Y-69367225D01*
X103463548Y-69296653D01*
X103320287Y-69253196D01*
X103208634Y-69242199D01*
X103208623Y-69242199D01*
X103171301Y-69238523D01*
X103133979Y-69242199D01*
X103067001Y-69242199D01*
X102821250Y-68996448D01*
X102821250Y-68535051D01*
X103901598Y-69615400D01*
%TA.AperFunction,Conductor*%
D23*
G36*
X103901598Y-69615400D02*
G01*
X103859303Y-69615400D01*
X103735105Y-69491202D01*
X103711302Y-69462198D01*
X103595577Y-69367225D01*
X103463548Y-69296653D01*
X103320287Y-69253196D01*
X103208634Y-69242199D01*
X103208623Y-69242199D01*
X103171301Y-69238523D01*
X103133979Y-69242199D01*
X103067001Y-69242199D01*
X102821250Y-68996448D01*
X102821250Y-68535051D01*
X103901598Y-69615400D01*
G37*
%TD.AperFunction*%
%TD*%
M02*
