%TF.GenerationSoftware,KiCad,Pcbnew,(5.1.12)-1*%
%TF.CreationDate,2022-11-06T18:41:51+01:00*%
%TF.ProjectId,NewmorphS3,4e65776d-6f72-4706-9853-332e6b696361,rev?*%
%TF.SameCoordinates,Original*%
%TF.FileFunction,Legend,Top*%
%TF.FilePolarity,Positive*%
%FSLAX46Y46*%
G04 Gerber Fmt 4.6, Leading zero omitted, Abs format (unit mm)*
G04 Created by KiCad (PCBNEW (5.1.12)-1) date 2022-11-06 18:41:51*
%MOMM*%
%LPD*%
G01*
G04 APERTURE LIST*
%ADD10C,0.200000*%
%ADD11C,0.100000*%
%ADD12C,0.175000*%
%ADD13C,0.120000*%
%ADD14C,0.150000*%
G04 APERTURE END LIST*
D10*
X48989571Y-85494000D02*
X48989571Y-84910666D01*
X49513380Y-84660666D02*
X49513380Y-85494000D01*
X48513380Y-85494000D01*
X48513380Y-84660666D01*
X49465761Y-83994000D02*
X49513380Y-83744000D01*
X49513380Y-83327333D01*
X49465761Y-83160666D01*
X49418142Y-83077333D01*
X49322904Y-82994000D01*
X49227666Y-82994000D01*
X49132428Y-83077333D01*
X49084809Y-83160666D01*
X49037190Y-83327333D01*
X48989571Y-83660666D01*
X48941952Y-83827333D01*
X48894333Y-83910666D01*
X48799095Y-83994000D01*
X48703857Y-83994000D01*
X48608619Y-83910666D01*
X48561000Y-83827333D01*
X48513380Y-83660666D01*
X48513380Y-83244000D01*
X48561000Y-82994000D01*
X49513380Y-82244000D02*
X48513380Y-82244000D01*
X48513380Y-81577333D01*
X48561000Y-81410666D01*
X48608619Y-81327333D01*
X48703857Y-81244000D01*
X48846714Y-81244000D01*
X48941952Y-81327333D01*
X48989571Y-81410666D01*
X49037190Y-81577333D01*
X49037190Y-82244000D01*
X48513380Y-80660666D02*
X48513380Y-79577333D01*
X48894333Y-80160666D01*
X48894333Y-79910666D01*
X48941952Y-79744000D01*
X48989571Y-79660666D01*
X49084809Y-79577333D01*
X49322904Y-79577333D01*
X49418142Y-79660666D01*
X49465761Y-79744000D01*
X49513380Y-79910666D01*
X49513380Y-80410666D01*
X49465761Y-80577333D01*
X49418142Y-80660666D01*
X48608619Y-78910666D02*
X48561000Y-78827333D01*
X48513380Y-78660666D01*
X48513380Y-78244000D01*
X48561000Y-78077333D01*
X48608619Y-77994000D01*
X48703857Y-77910666D01*
X48799095Y-77910666D01*
X48941952Y-77994000D01*
X49513380Y-78994000D01*
X49513380Y-77910666D01*
X49132428Y-77160666D02*
X49132428Y-75827333D01*
X49465761Y-75077333D02*
X49513380Y-74827333D01*
X49513380Y-74410666D01*
X49465761Y-74244000D01*
X49418142Y-74160666D01*
X49322904Y-74077333D01*
X49227666Y-74077333D01*
X49132428Y-74160666D01*
X49084809Y-74244000D01*
X49037190Y-74410666D01*
X48989571Y-74744000D01*
X48941952Y-74910666D01*
X48894333Y-74994000D01*
X48799095Y-75077333D01*
X48703857Y-75077333D01*
X48608619Y-74994000D01*
X48561000Y-74910666D01*
X48513380Y-74744000D01*
X48513380Y-74327333D01*
X48561000Y-74077333D01*
X48513380Y-73494000D02*
X48513380Y-72410666D01*
X48894333Y-72994000D01*
X48894333Y-72744000D01*
X48941952Y-72577333D01*
X48989571Y-72494000D01*
X49084809Y-72410666D01*
X49322904Y-72410666D01*
X49418142Y-72494000D01*
X49465761Y-72577333D01*
X49513380Y-72744000D01*
X49513380Y-73244000D01*
X49465761Y-73410666D01*
X49418142Y-73494000D01*
X50261000Y-86535666D02*
X50213380Y-86702333D01*
X50213380Y-86952333D01*
X50261000Y-87202333D01*
X50356238Y-87369000D01*
X50451476Y-87452333D01*
X50641952Y-87535666D01*
X50784809Y-87535666D01*
X50975285Y-87452333D01*
X51070523Y-87369000D01*
X51165761Y-87202333D01*
X51213380Y-86952333D01*
X51213380Y-86785666D01*
X51165761Y-86535666D01*
X51118142Y-86452333D01*
X50784809Y-86452333D01*
X50784809Y-86785666D01*
X51213380Y-84952333D02*
X50689571Y-84952333D01*
X50594333Y-85035666D01*
X50546714Y-85202333D01*
X50546714Y-85535666D01*
X50594333Y-85702333D01*
X51165761Y-84952333D02*
X51213380Y-85119000D01*
X51213380Y-85535666D01*
X51165761Y-85702333D01*
X51070523Y-85785666D01*
X50975285Y-85785666D01*
X50880047Y-85702333D01*
X50832428Y-85535666D01*
X50832428Y-85119000D01*
X50784809Y-84952333D01*
X51213380Y-84119000D02*
X50546714Y-84119000D01*
X50641952Y-84119000D02*
X50594333Y-84035666D01*
X50546714Y-83869000D01*
X50546714Y-83619000D01*
X50594333Y-83452333D01*
X50689571Y-83369000D01*
X51213380Y-83369000D01*
X50689571Y-83369000D02*
X50594333Y-83285666D01*
X50546714Y-83119000D01*
X50546714Y-82869000D01*
X50594333Y-82702333D01*
X50689571Y-82619000D01*
X51213380Y-82619000D01*
X51165761Y-81119000D02*
X51213380Y-81285666D01*
X51213380Y-81619000D01*
X51165761Y-81785666D01*
X51070523Y-81869000D01*
X50689571Y-81869000D01*
X50594333Y-81785666D01*
X50546714Y-81619000D01*
X50546714Y-81285666D01*
X50594333Y-81119000D01*
X50689571Y-81035666D01*
X50784809Y-81035666D01*
X50880047Y-81869000D01*
X51165761Y-79035666D02*
X51213380Y-78785666D01*
X51213380Y-78369000D01*
X51165761Y-78202333D01*
X51118142Y-78119000D01*
X51022904Y-78035666D01*
X50927666Y-78035666D01*
X50832428Y-78119000D01*
X50784809Y-78202333D01*
X50737190Y-78369000D01*
X50689571Y-78702333D01*
X50641952Y-78869000D01*
X50594333Y-78952333D01*
X50499095Y-79035666D01*
X50403857Y-79035666D01*
X50308619Y-78952333D01*
X50261000Y-78869000D01*
X50213380Y-78702333D01*
X50213380Y-78285666D01*
X50261000Y-78035666D01*
X50546714Y-77535666D02*
X50546714Y-76869000D01*
X50213380Y-77285666D02*
X51070523Y-77285666D01*
X51165761Y-77202333D01*
X51213380Y-77035666D01*
X51213380Y-76869000D01*
X51213380Y-75535666D02*
X50689571Y-75535666D01*
X50594333Y-75619000D01*
X50546714Y-75785666D01*
X50546714Y-76119000D01*
X50594333Y-76285666D01*
X51165761Y-75535666D02*
X51213380Y-75702333D01*
X51213380Y-76119000D01*
X51165761Y-76285666D01*
X51070523Y-76369000D01*
X50975285Y-76369000D01*
X50880047Y-76285666D01*
X50832428Y-76119000D01*
X50832428Y-75702333D01*
X50784809Y-75535666D01*
X50546714Y-74952333D02*
X50546714Y-74285666D01*
X50213380Y-74702333D02*
X51070523Y-74702333D01*
X51165761Y-74619000D01*
X51213380Y-74452333D01*
X51213380Y-74285666D01*
X51213380Y-73702333D02*
X50546714Y-73702333D01*
X50213380Y-73702333D02*
X50261000Y-73785666D01*
X50308619Y-73702333D01*
X50261000Y-73619000D01*
X50213380Y-73702333D01*
X50308619Y-73702333D01*
X51213380Y-72619000D02*
X51165761Y-72785666D01*
X51118142Y-72869000D01*
X51022904Y-72952333D01*
X50737190Y-72952333D01*
X50641952Y-72869000D01*
X50594333Y-72785666D01*
X50546714Y-72619000D01*
X50546714Y-72369000D01*
X50594333Y-72202333D01*
X50641952Y-72119000D01*
X50737190Y-72035666D01*
X51022904Y-72035666D01*
X51118142Y-72119000D01*
X51165761Y-72202333D01*
X51213380Y-72369000D01*
X51213380Y-72619000D01*
X50546714Y-71285666D02*
X51213380Y-71285666D01*
X50641952Y-71285666D02*
X50594333Y-71202333D01*
X50546714Y-71035666D01*
X50546714Y-70785666D01*
X50594333Y-70619000D01*
X50689571Y-70535666D01*
X51213380Y-70535666D01*
D11*
X109974333Y-93836333D02*
X109941000Y-93803000D01*
X109874333Y-93769666D01*
X109807666Y-93769666D01*
X109741000Y-93803000D01*
X109707666Y-93836333D01*
X109674333Y-93903000D01*
X109674333Y-93969666D01*
X109707666Y-94036333D01*
X109741000Y-94069666D01*
X109807666Y-94103000D01*
X109874333Y-94103000D01*
X109941000Y-94069666D01*
X109974333Y-94036333D01*
X109974333Y-93769666D02*
X109974333Y-94036333D01*
X110007666Y-94069666D01*
X110041000Y-94069666D01*
X110107666Y-94036333D01*
X110141000Y-93969666D01*
X110141000Y-93803000D01*
X110074333Y-93703000D01*
X109974333Y-93636333D01*
X109841000Y-93603000D01*
X109707666Y-93636333D01*
X109607666Y-93703000D01*
X109541000Y-93803000D01*
X109507666Y-93936333D01*
X109541000Y-94069666D01*
X109607666Y-94169666D01*
X109707666Y-94236333D01*
X109841000Y-94269666D01*
X109974333Y-94236333D01*
X110074333Y-94169666D01*
X110407666Y-94136333D02*
X110474333Y-94169666D01*
X110607666Y-94169666D01*
X110674333Y-94136333D01*
X110707666Y-94069666D01*
X110707666Y-94036333D01*
X110674333Y-93969666D01*
X110607666Y-93936333D01*
X110507666Y-93936333D01*
X110441000Y-93903000D01*
X110407666Y-93836333D01*
X110407666Y-93803000D01*
X110441000Y-93736333D01*
X110507666Y-93703000D01*
X110607666Y-93703000D01*
X110674333Y-93736333D01*
X111307666Y-93703000D02*
X111307666Y-94169666D01*
X111007666Y-93703000D02*
X111007666Y-94069666D01*
X111041000Y-94136333D01*
X111107666Y-94169666D01*
X111207666Y-94169666D01*
X111274333Y-94136333D01*
X111307666Y-94103000D01*
X111741000Y-94169666D02*
X111674333Y-94136333D01*
X111641000Y-94069666D01*
X111641000Y-93469666D01*
X111907666Y-93703000D02*
X112174333Y-93703000D01*
X112007666Y-94169666D02*
X112007666Y-93569666D01*
X112041000Y-93503000D01*
X112107666Y-93469666D01*
X112174333Y-93469666D01*
X112707666Y-93703000D02*
X112707666Y-94169666D01*
X112407666Y-93703000D02*
X112407666Y-94069666D01*
X112441000Y-94136333D01*
X112507666Y-94169666D01*
X112607666Y-94169666D01*
X112674333Y-94136333D01*
X112707666Y-94103000D01*
X113041000Y-94169666D02*
X113041000Y-93703000D01*
X113041000Y-93836333D02*
X113074333Y-93769666D01*
X113107666Y-93736333D01*
X113174333Y-93703000D01*
X113241000Y-93703000D01*
X113574333Y-94169666D02*
X113507666Y-94136333D01*
X113474333Y-94103000D01*
X113441000Y-94036333D01*
X113441000Y-93836333D01*
X113474333Y-93769666D01*
X113507666Y-93736333D01*
X113574333Y-93703000D01*
X113674333Y-93703000D01*
X113741000Y-93736333D01*
X113774333Y-93769666D01*
X113807666Y-93836333D01*
X113807666Y-94036333D01*
X113774333Y-94103000D01*
X113741000Y-94136333D01*
X113674333Y-94169666D01*
X113574333Y-94169666D01*
X114107666Y-94169666D02*
X114107666Y-93703000D01*
X114107666Y-93469666D02*
X114074333Y-93503000D01*
X114107666Y-93536333D01*
X114141000Y-93503000D01*
X114107666Y-93469666D01*
X114107666Y-93536333D01*
X114741000Y-94169666D02*
X114741000Y-93469666D01*
X114741000Y-94136333D02*
X114674333Y-94169666D01*
X114541000Y-94169666D01*
X114474333Y-94136333D01*
X114441000Y-94103000D01*
X114407666Y-94036333D01*
X114407666Y-93836333D01*
X114441000Y-93769666D01*
X114474333Y-93736333D01*
X114541000Y-93703000D01*
X114674333Y-93703000D01*
X114741000Y-93736333D01*
D12*
X108537857Y-89797142D02*
X108537857Y-91940000D01*
X108490238Y-92368571D01*
X108395000Y-92654285D01*
X108252142Y-92797142D01*
X108156904Y-92797142D01*
X109204523Y-89797142D02*
X109395000Y-89797142D01*
X109490238Y-89940000D01*
X109585476Y-90225714D01*
X109633095Y-90797142D01*
X109633095Y-91797142D01*
X109585476Y-92368571D01*
X109490238Y-92654285D01*
X109395000Y-92797142D01*
X109204523Y-92797142D01*
X109109285Y-92654285D01*
X109014047Y-92368571D01*
X108966428Y-91797142D01*
X108966428Y-90797142D01*
X109014047Y-90225714D01*
X109109285Y-89940000D01*
X109204523Y-89797142D01*
X110252142Y-91368571D02*
X110252142Y-92797142D01*
X109918809Y-89797142D02*
X110252142Y-91368571D01*
X110585476Y-89797142D01*
X110918809Y-91654285D02*
X111680714Y-91654285D01*
X112156904Y-92797142D02*
X112156904Y-89797142D01*
X112537857Y-89797142D01*
X112633095Y-89940000D01*
X112680714Y-90082857D01*
X112728333Y-90368571D01*
X112728333Y-90797142D01*
X112680714Y-91082857D01*
X112633095Y-91225714D01*
X112537857Y-91368571D01*
X112156904Y-91368571D01*
X113109285Y-92654285D02*
X113252142Y-92797142D01*
X113490238Y-92797142D01*
X113585476Y-92654285D01*
X113633095Y-92511428D01*
X113680714Y-92225714D01*
X113680714Y-91940000D01*
X113633095Y-91654285D01*
X113585476Y-91511428D01*
X113490238Y-91368571D01*
X113299761Y-91225714D01*
X113204523Y-91082857D01*
X113156904Y-90940000D01*
X113109285Y-90654285D01*
X113109285Y-90368571D01*
X113156904Y-90082857D01*
X113204523Y-89940000D01*
X113299761Y-89797142D01*
X113537857Y-89797142D01*
X113680714Y-89940000D01*
X114109285Y-92797142D02*
X114109285Y-89797142D01*
X114490238Y-89797142D01*
X114585476Y-89940000D01*
X114633095Y-90082857D01*
X114680714Y-90368571D01*
X114680714Y-90797142D01*
X114633095Y-91082857D01*
X114585476Y-91225714D01*
X114490238Y-91368571D01*
X114109285Y-91368571D01*
X115014047Y-89797142D02*
X115633095Y-89797142D01*
X115299761Y-90940000D01*
X115442619Y-90940000D01*
X115537857Y-91082857D01*
X115585476Y-91225714D01*
X115633095Y-91511428D01*
X115633095Y-92225714D01*
X115585476Y-92511428D01*
X115537857Y-92654285D01*
X115442619Y-92797142D01*
X115156904Y-92797142D01*
X115061666Y-92654285D01*
X115014047Y-92511428D01*
X116014047Y-90082857D02*
X116061666Y-89940000D01*
X116156904Y-89797142D01*
X116395000Y-89797142D01*
X116490238Y-89940000D01*
X116537857Y-90082857D01*
X116585476Y-90368571D01*
X116585476Y-90654285D01*
X116537857Y-91082857D01*
X115966428Y-92797142D01*
X116585476Y-92797142D01*
D11*
X100533333Y-93215666D02*
X100766666Y-93915666D01*
X101000000Y-93215666D01*
X101233333Y-93915666D02*
X101233333Y-93215666D01*
X101233333Y-93482333D02*
X101300000Y-93449000D01*
X101433333Y-93449000D01*
X101500000Y-93482333D01*
X101533333Y-93515666D01*
X101566666Y-93582333D01*
X101566666Y-93782333D01*
X101533333Y-93849000D01*
X101500000Y-93882333D01*
X101433333Y-93915666D01*
X101300000Y-93915666D01*
X101233333Y-93882333D01*
X102166666Y-93915666D02*
X102166666Y-93549000D01*
X102133333Y-93482333D01*
X102066666Y-93449000D01*
X101933333Y-93449000D01*
X101866666Y-93482333D01*
X102166666Y-93882333D02*
X102100000Y-93915666D01*
X101933333Y-93915666D01*
X101866666Y-93882333D01*
X101833333Y-93815666D01*
X101833333Y-93749000D01*
X101866666Y-93682333D01*
X101933333Y-93649000D01*
X102100000Y-93649000D01*
X102166666Y-93615666D01*
X102400000Y-93449000D02*
X102666666Y-93449000D01*
X102500000Y-93215666D02*
X102500000Y-93815666D01*
X102533333Y-93882333D01*
X102600000Y-93915666D01*
X102666666Y-93915666D01*
X99053666Y-93215666D02*
X98720333Y-93215666D01*
X98687000Y-93549000D01*
X98720333Y-93515666D01*
X98787000Y-93482333D01*
X98953666Y-93482333D01*
X99020333Y-93515666D01*
X99053666Y-93549000D01*
X99087000Y-93615666D01*
X99087000Y-93782333D01*
X99053666Y-93849000D01*
X99020333Y-93882333D01*
X98953666Y-93915666D01*
X98787000Y-93915666D01*
X98720333Y-93882333D01*
X98687000Y-93849000D01*
X99287000Y-93215666D02*
X99520333Y-93915666D01*
X99753666Y-93215666D01*
X95986666Y-93249000D02*
X95920000Y-93215666D01*
X95820000Y-93215666D01*
X95720000Y-93249000D01*
X95653333Y-93315666D01*
X95620000Y-93382333D01*
X95586666Y-93515666D01*
X95586666Y-93615666D01*
X95620000Y-93749000D01*
X95653333Y-93815666D01*
X95720000Y-93882333D01*
X95820000Y-93915666D01*
X95886666Y-93915666D01*
X95986666Y-93882333D01*
X96020000Y-93849000D01*
X96020000Y-93615666D01*
X95886666Y-93615666D01*
X96320000Y-93915666D02*
X96320000Y-93215666D01*
X96720000Y-93915666D01*
X96720000Y-93215666D01*
X97053333Y-93915666D02*
X97053333Y-93215666D01*
X97220000Y-93215666D01*
X97320000Y-93249000D01*
X97386666Y-93315666D01*
X97420000Y-93382333D01*
X97453333Y-93515666D01*
X97453333Y-93615666D01*
X97420000Y-93749000D01*
X97386666Y-93815666D01*
X97320000Y-93882333D01*
X97220000Y-93915666D01*
X97053333Y-93915666D01*
X93446666Y-93249000D02*
X93380000Y-93215666D01*
X93280000Y-93215666D01*
X93180000Y-93249000D01*
X93113333Y-93315666D01*
X93080000Y-93382333D01*
X93046666Y-93515666D01*
X93046666Y-93615666D01*
X93080000Y-93749000D01*
X93113333Y-93815666D01*
X93180000Y-93882333D01*
X93280000Y-93915666D01*
X93346666Y-93915666D01*
X93446666Y-93882333D01*
X93480000Y-93849000D01*
X93480000Y-93615666D01*
X93346666Y-93615666D01*
X93780000Y-93915666D02*
X93780000Y-93215666D01*
X94180000Y-93915666D01*
X94180000Y-93215666D01*
X94513333Y-93915666D02*
X94513333Y-93215666D01*
X94680000Y-93215666D01*
X94780000Y-93249000D01*
X94846666Y-93315666D01*
X94880000Y-93382333D01*
X94913333Y-93515666D01*
X94913333Y-93615666D01*
X94880000Y-93749000D01*
X94846666Y-93815666D01*
X94780000Y-93882333D01*
X94680000Y-93915666D01*
X94513333Y-93915666D01*
X90906666Y-93215666D02*
X91340000Y-93215666D01*
X91106666Y-93482333D01*
X91206666Y-93482333D01*
X91273333Y-93515666D01*
X91306666Y-93549000D01*
X91340000Y-93615666D01*
X91340000Y-93782333D01*
X91306666Y-93849000D01*
X91273333Y-93882333D01*
X91206666Y-93915666D01*
X91006666Y-93915666D01*
X90940000Y-93882333D01*
X90906666Y-93849000D01*
X91540000Y-93215666D02*
X91773333Y-93915666D01*
X92006666Y-93215666D01*
X88700000Y-93449000D02*
X88700000Y-93915666D01*
X88533333Y-93182333D02*
X88366666Y-93682333D01*
X88800000Y-93682333D01*
X89166666Y-93515666D02*
X89100000Y-93482333D01*
X89066666Y-93449000D01*
X89033333Y-93382333D01*
X89033333Y-93349000D01*
X89066666Y-93282333D01*
X89100000Y-93249000D01*
X89166666Y-93215666D01*
X89300000Y-93215666D01*
X89366666Y-93249000D01*
X89400000Y-93282333D01*
X89433333Y-93349000D01*
X89433333Y-93382333D01*
X89400000Y-93449000D01*
X89366666Y-93482333D01*
X89300000Y-93515666D01*
X89166666Y-93515666D01*
X89100000Y-93549000D01*
X89066666Y-93582333D01*
X89033333Y-93649000D01*
X89033333Y-93782333D01*
X89066666Y-93849000D01*
X89100000Y-93882333D01*
X89166666Y-93915666D01*
X89300000Y-93915666D01*
X89366666Y-93882333D01*
X89400000Y-93849000D01*
X89433333Y-93782333D01*
X89433333Y-93649000D01*
X89400000Y-93582333D01*
X89366666Y-93549000D01*
X89300000Y-93515666D01*
X86160000Y-93449000D02*
X86160000Y-93915666D01*
X85993333Y-93182333D02*
X85826666Y-93682333D01*
X86260000Y-93682333D01*
X86826666Y-93215666D02*
X86693333Y-93215666D01*
X86626666Y-93249000D01*
X86593333Y-93282333D01*
X86526666Y-93382333D01*
X86493333Y-93515666D01*
X86493333Y-93782333D01*
X86526666Y-93849000D01*
X86560000Y-93882333D01*
X86626666Y-93915666D01*
X86760000Y-93915666D01*
X86826666Y-93882333D01*
X86860000Y-93849000D01*
X86893333Y-93782333D01*
X86893333Y-93615666D01*
X86860000Y-93549000D01*
X86826666Y-93515666D01*
X86760000Y-93482333D01*
X86626666Y-93482333D01*
X86560000Y-93515666D01*
X86526666Y-93549000D01*
X86493333Y-93615666D01*
X83620000Y-93449000D02*
X83620000Y-93915666D01*
X83453333Y-93182333D02*
X83286666Y-93682333D01*
X83720000Y-93682333D01*
X84320000Y-93215666D02*
X83986666Y-93215666D01*
X83953333Y-93549000D01*
X83986666Y-93515666D01*
X84053333Y-93482333D01*
X84220000Y-93482333D01*
X84286666Y-93515666D01*
X84320000Y-93549000D01*
X84353333Y-93615666D01*
X84353333Y-93782333D01*
X84320000Y-93849000D01*
X84286666Y-93882333D01*
X84220000Y-93915666D01*
X84053333Y-93915666D01*
X83986666Y-93882333D01*
X83953333Y-93849000D01*
X81080000Y-93449000D02*
X81080000Y-93915666D01*
X80913333Y-93182333D02*
X80746666Y-93682333D01*
X81180000Y-93682333D01*
X81413333Y-93282333D02*
X81446666Y-93249000D01*
X81513333Y-93215666D01*
X81680000Y-93215666D01*
X81746666Y-93249000D01*
X81780000Y-93282333D01*
X81813333Y-93349000D01*
X81813333Y-93415666D01*
X81780000Y-93515666D01*
X81380000Y-93915666D01*
X81813333Y-93915666D01*
X78173333Y-93215666D02*
X78606666Y-93215666D01*
X78373333Y-93482333D01*
X78473333Y-93482333D01*
X78540000Y-93515666D01*
X78573333Y-93549000D01*
X78606666Y-93615666D01*
X78606666Y-93782333D01*
X78573333Y-93849000D01*
X78540000Y-93882333D01*
X78473333Y-93915666D01*
X78273333Y-93915666D01*
X78206666Y-93882333D01*
X78173333Y-93849000D01*
X79006666Y-93515666D02*
X78940000Y-93482333D01*
X78906666Y-93449000D01*
X78873333Y-93382333D01*
X78873333Y-93349000D01*
X78906666Y-93282333D01*
X78940000Y-93249000D01*
X79006666Y-93215666D01*
X79140000Y-93215666D01*
X79206666Y-93249000D01*
X79240000Y-93282333D01*
X79273333Y-93349000D01*
X79273333Y-93382333D01*
X79240000Y-93449000D01*
X79206666Y-93482333D01*
X79140000Y-93515666D01*
X79006666Y-93515666D01*
X78940000Y-93549000D01*
X78906666Y-93582333D01*
X78873333Y-93649000D01*
X78873333Y-93782333D01*
X78906666Y-93849000D01*
X78940000Y-93882333D01*
X79006666Y-93915666D01*
X79140000Y-93915666D01*
X79206666Y-93882333D01*
X79240000Y-93849000D01*
X79273333Y-93782333D01*
X79273333Y-93649000D01*
X79240000Y-93582333D01*
X79206666Y-93549000D01*
X79140000Y-93515666D01*
X76083333Y-93915666D02*
X75850000Y-93582333D01*
X75683333Y-93915666D02*
X75683333Y-93215666D01*
X75950000Y-93215666D01*
X76016666Y-93249000D01*
X76050000Y-93282333D01*
X76083333Y-93349000D01*
X76083333Y-93449000D01*
X76050000Y-93515666D01*
X76016666Y-93549000D01*
X75950000Y-93582333D01*
X75683333Y-93582333D01*
X76316666Y-93215666D02*
X76783333Y-93915666D01*
X76783333Y-93215666D02*
X76316666Y-93915666D01*
X73126666Y-93215666D02*
X73526666Y-93215666D01*
X73326666Y-93915666D02*
X73326666Y-93215666D01*
X73693333Y-93215666D02*
X74160000Y-93915666D01*
X74160000Y-93215666D02*
X73693333Y-93915666D01*
X70586666Y-93282333D02*
X70620000Y-93249000D01*
X70686666Y-93215666D01*
X70853333Y-93215666D01*
X70920000Y-93249000D01*
X70953333Y-93282333D01*
X70986666Y-93349000D01*
X70986666Y-93415666D01*
X70953333Y-93515666D01*
X70553333Y-93915666D01*
X70986666Y-93915666D01*
X71653333Y-93915666D02*
X71253333Y-93915666D01*
X71453333Y-93915666D02*
X71453333Y-93215666D01*
X71386666Y-93315666D01*
X71320000Y-93382333D01*
X71253333Y-93415666D01*
X68446666Y-93915666D02*
X68046666Y-93915666D01*
X68246666Y-93915666D02*
X68246666Y-93215666D01*
X68180000Y-93315666D01*
X68113333Y-93382333D01*
X68046666Y-93415666D01*
X69046666Y-93449000D02*
X69046666Y-93915666D01*
X68880000Y-93182333D02*
X68713333Y-93682333D01*
X69146666Y-93682333D01*
X65552666Y-93215666D02*
X65986000Y-93215666D01*
X65752666Y-93482333D01*
X65852666Y-93482333D01*
X65919333Y-93515666D01*
X65952666Y-93549000D01*
X65986000Y-93615666D01*
X65986000Y-93782333D01*
X65952666Y-93849000D01*
X65919333Y-93882333D01*
X65852666Y-93915666D01*
X65652666Y-93915666D01*
X65586000Y-93882333D01*
X65552666Y-93849000D01*
X101193666Y-63751666D02*
X101627000Y-63751666D01*
X101393666Y-64018333D01*
X101493666Y-64018333D01*
X101560333Y-64051666D01*
X101593666Y-64085000D01*
X101627000Y-64151666D01*
X101627000Y-64318333D01*
X101593666Y-64385000D01*
X101560333Y-64418333D01*
X101493666Y-64451666D01*
X101293666Y-64451666D01*
X101227000Y-64418333D01*
X101193666Y-64385000D01*
X101827000Y-63751666D02*
X102060333Y-64451666D01*
X102293666Y-63751666D01*
X98653666Y-63785000D02*
X98587000Y-63751666D01*
X98487000Y-63751666D01*
X98387000Y-63785000D01*
X98320333Y-63851666D01*
X98287000Y-63918333D01*
X98253666Y-64051666D01*
X98253666Y-64151666D01*
X98287000Y-64285000D01*
X98320333Y-64351666D01*
X98387000Y-64418333D01*
X98487000Y-64451666D01*
X98553666Y-64451666D01*
X98653666Y-64418333D01*
X98687000Y-64385000D01*
X98687000Y-64151666D01*
X98553666Y-64151666D01*
X98987000Y-64451666D02*
X98987000Y-63751666D01*
X99387000Y-64451666D01*
X99387000Y-63751666D01*
X99720333Y-64451666D02*
X99720333Y-63751666D01*
X99887000Y-63751666D01*
X99987000Y-63785000D01*
X100053666Y-63851666D01*
X100087000Y-63918333D01*
X100120333Y-64051666D01*
X100120333Y-64151666D01*
X100087000Y-64285000D01*
X100053666Y-64351666D01*
X99987000Y-64418333D01*
X99887000Y-64451666D01*
X99720333Y-64451666D01*
X96386666Y-64451666D02*
X95986666Y-64451666D01*
X96186666Y-64451666D02*
X96186666Y-63751666D01*
X96120000Y-63851666D01*
X96053333Y-63918333D01*
X95986666Y-63951666D01*
X96620000Y-63751666D02*
X97053333Y-63751666D01*
X96820000Y-64018333D01*
X96920000Y-64018333D01*
X96986666Y-64051666D01*
X97020000Y-64085000D01*
X97053333Y-64151666D01*
X97053333Y-64318333D01*
X97020000Y-64385000D01*
X96986666Y-64418333D01*
X96920000Y-64451666D01*
X96720000Y-64451666D01*
X96653333Y-64418333D01*
X96620000Y-64385000D01*
X93846666Y-64451666D02*
X93446666Y-64451666D01*
X93646666Y-64451666D02*
X93646666Y-63751666D01*
X93580000Y-63851666D01*
X93513333Y-63918333D01*
X93446666Y-63951666D01*
X94113333Y-63818333D02*
X94146666Y-63785000D01*
X94213333Y-63751666D01*
X94380000Y-63751666D01*
X94446666Y-63785000D01*
X94480000Y-63818333D01*
X94513333Y-63885000D01*
X94513333Y-63951666D01*
X94480000Y-64051666D01*
X94080000Y-64451666D01*
X94513333Y-64451666D01*
X91306666Y-64451666D02*
X90906666Y-64451666D01*
X91106666Y-64451666D02*
X91106666Y-63751666D01*
X91040000Y-63851666D01*
X90973333Y-63918333D01*
X90906666Y-63951666D01*
X91973333Y-64451666D02*
X91573333Y-64451666D01*
X91773333Y-64451666D02*
X91773333Y-63751666D01*
X91706666Y-63851666D01*
X91640000Y-63918333D01*
X91573333Y-63951666D01*
X88766666Y-64451666D02*
X88366666Y-64451666D01*
X88566666Y-64451666D02*
X88566666Y-63751666D01*
X88500000Y-63851666D01*
X88433333Y-63918333D01*
X88366666Y-63951666D01*
X89200000Y-63751666D02*
X89266666Y-63751666D01*
X89333333Y-63785000D01*
X89366666Y-63818333D01*
X89400000Y-63885000D01*
X89433333Y-64018333D01*
X89433333Y-64185000D01*
X89400000Y-64318333D01*
X89366666Y-64385000D01*
X89333333Y-64418333D01*
X89266666Y-64451666D01*
X89200000Y-64451666D01*
X89133333Y-64418333D01*
X89100000Y-64385000D01*
X89066666Y-64318333D01*
X89033333Y-64185000D01*
X89033333Y-64018333D01*
X89066666Y-63885000D01*
X89100000Y-63818333D01*
X89133333Y-63785000D01*
X89200000Y-63751666D01*
X86226666Y-64451666D02*
X86360000Y-64451666D01*
X86426666Y-64418333D01*
X86460000Y-64385000D01*
X86526666Y-64285000D01*
X86560000Y-64151666D01*
X86560000Y-63885000D01*
X86526666Y-63818333D01*
X86493333Y-63785000D01*
X86426666Y-63751666D01*
X86293333Y-63751666D01*
X86226666Y-63785000D01*
X86193333Y-63818333D01*
X86160000Y-63885000D01*
X86160000Y-64051666D01*
X86193333Y-64118333D01*
X86226666Y-64151666D01*
X86293333Y-64185000D01*
X86426666Y-64185000D01*
X86493333Y-64151666D01*
X86526666Y-64118333D01*
X86560000Y-64051666D01*
X83753333Y-64051666D02*
X83686666Y-64018333D01*
X83653333Y-63985000D01*
X83620000Y-63918333D01*
X83620000Y-63885000D01*
X83653333Y-63818333D01*
X83686666Y-63785000D01*
X83753333Y-63751666D01*
X83886666Y-63751666D01*
X83953333Y-63785000D01*
X83986666Y-63818333D01*
X84020000Y-63885000D01*
X84020000Y-63918333D01*
X83986666Y-63985000D01*
X83953333Y-64018333D01*
X83886666Y-64051666D01*
X83753333Y-64051666D01*
X83686666Y-64085000D01*
X83653333Y-64118333D01*
X83620000Y-64185000D01*
X83620000Y-64318333D01*
X83653333Y-64385000D01*
X83686666Y-64418333D01*
X83753333Y-64451666D01*
X83886666Y-64451666D01*
X83953333Y-64418333D01*
X83986666Y-64385000D01*
X84020000Y-64318333D01*
X84020000Y-64185000D01*
X83986666Y-64118333D01*
X83953333Y-64085000D01*
X83886666Y-64051666D01*
X81146666Y-64451666D02*
X80746666Y-64451666D01*
X80946666Y-64451666D02*
X80946666Y-63751666D01*
X80880000Y-63851666D01*
X80813333Y-63918333D01*
X80746666Y-63951666D01*
X81546666Y-64051666D02*
X81480000Y-64018333D01*
X81446666Y-63985000D01*
X81413333Y-63918333D01*
X81413333Y-63885000D01*
X81446666Y-63818333D01*
X81480000Y-63785000D01*
X81546666Y-63751666D01*
X81680000Y-63751666D01*
X81746666Y-63785000D01*
X81780000Y-63818333D01*
X81813333Y-63885000D01*
X81813333Y-63918333D01*
X81780000Y-63985000D01*
X81746666Y-64018333D01*
X81680000Y-64051666D01*
X81546666Y-64051666D01*
X81480000Y-64085000D01*
X81446666Y-64118333D01*
X81413333Y-64185000D01*
X81413333Y-64318333D01*
X81446666Y-64385000D01*
X81480000Y-64418333D01*
X81546666Y-64451666D01*
X81680000Y-64451666D01*
X81746666Y-64418333D01*
X81780000Y-64385000D01*
X81813333Y-64318333D01*
X81813333Y-64185000D01*
X81780000Y-64118333D01*
X81746666Y-64085000D01*
X81680000Y-64051666D01*
X78606666Y-64451666D02*
X78206666Y-64451666D01*
X78406666Y-64451666D02*
X78406666Y-63751666D01*
X78340000Y-63851666D01*
X78273333Y-63918333D01*
X78206666Y-63951666D01*
X78840000Y-63751666D02*
X79306666Y-63751666D01*
X79006666Y-64451666D01*
X76066666Y-64451666D02*
X75666666Y-64451666D01*
X75866666Y-64451666D02*
X75866666Y-63751666D01*
X75800000Y-63851666D01*
X75733333Y-63918333D01*
X75666666Y-63951666D01*
X76666666Y-63751666D02*
X76533333Y-63751666D01*
X76466666Y-63785000D01*
X76433333Y-63818333D01*
X76366666Y-63918333D01*
X76333333Y-64051666D01*
X76333333Y-64318333D01*
X76366666Y-64385000D01*
X76400000Y-64418333D01*
X76466666Y-64451666D01*
X76600000Y-64451666D01*
X76666666Y-64418333D01*
X76700000Y-64385000D01*
X76733333Y-64318333D01*
X76733333Y-64151666D01*
X76700000Y-64085000D01*
X76666666Y-64051666D01*
X76600000Y-64018333D01*
X76466666Y-64018333D01*
X76400000Y-64051666D01*
X76366666Y-64085000D01*
X76333333Y-64151666D01*
X73526666Y-64451666D02*
X73126666Y-64451666D01*
X73326666Y-64451666D02*
X73326666Y-63751666D01*
X73260000Y-63851666D01*
X73193333Y-63918333D01*
X73126666Y-63951666D01*
X74160000Y-63751666D02*
X73826666Y-63751666D01*
X73793333Y-64085000D01*
X73826666Y-64051666D01*
X73893333Y-64018333D01*
X74060000Y-64018333D01*
X74126666Y-64051666D01*
X74160000Y-64085000D01*
X74193333Y-64151666D01*
X74193333Y-64318333D01*
X74160000Y-64385000D01*
X74126666Y-64418333D01*
X74060000Y-64451666D01*
X73893333Y-64451666D01*
X73826666Y-64418333D01*
X73793333Y-64385000D01*
X70220000Y-64418333D02*
X70320000Y-64451666D01*
X70486666Y-64451666D01*
X70553333Y-64418333D01*
X70586666Y-64385000D01*
X70620000Y-64318333D01*
X70620000Y-64251666D01*
X70586666Y-64185000D01*
X70553333Y-64151666D01*
X70486666Y-64118333D01*
X70353333Y-64085000D01*
X70286666Y-64051666D01*
X70253333Y-64018333D01*
X70220000Y-63951666D01*
X70220000Y-63885000D01*
X70253333Y-63818333D01*
X70286666Y-63785000D01*
X70353333Y-63751666D01*
X70520000Y-63751666D01*
X70620000Y-63785000D01*
X71320000Y-64385000D02*
X71286666Y-64418333D01*
X71186666Y-64451666D01*
X71120000Y-64451666D01*
X71020000Y-64418333D01*
X70953333Y-64351666D01*
X70920000Y-64285000D01*
X70886666Y-64151666D01*
X70886666Y-64051666D01*
X70920000Y-63918333D01*
X70953333Y-63851666D01*
X71020000Y-63785000D01*
X71120000Y-63751666D01*
X71186666Y-63751666D01*
X71286666Y-63785000D01*
X71320000Y-63818333D01*
X71620000Y-64451666D02*
X71620000Y-63751666D01*
X72020000Y-64451666D02*
X71720000Y-64051666D01*
X72020000Y-63751666D02*
X71620000Y-64151666D01*
X67353000Y-64451666D02*
X67353000Y-63751666D01*
X67586333Y-64251666D01*
X67819666Y-63751666D01*
X67819666Y-64451666D01*
X68286333Y-63751666D02*
X68419666Y-63751666D01*
X68486333Y-63785000D01*
X68553000Y-63851666D01*
X68586333Y-63985000D01*
X68586333Y-64218333D01*
X68553000Y-64351666D01*
X68486333Y-64418333D01*
X68419666Y-64451666D01*
X68286333Y-64451666D01*
X68219666Y-64418333D01*
X68153000Y-64351666D01*
X68119666Y-64218333D01*
X68119666Y-63985000D01*
X68153000Y-63851666D01*
X68219666Y-63785000D01*
X68286333Y-63751666D01*
X68853000Y-64418333D02*
X68953000Y-64451666D01*
X69119666Y-64451666D01*
X69186333Y-64418333D01*
X69219666Y-64385000D01*
X69253000Y-64318333D01*
X69253000Y-64251666D01*
X69219666Y-64185000D01*
X69186333Y-64151666D01*
X69119666Y-64118333D01*
X68986333Y-64085000D01*
X68919666Y-64051666D01*
X68886333Y-64018333D01*
X68853000Y-63951666D01*
X68853000Y-63885000D01*
X68886333Y-63818333D01*
X68919666Y-63785000D01*
X68986333Y-63751666D01*
X69153000Y-63751666D01*
X69253000Y-63785000D01*
X69553000Y-64451666D02*
X69553000Y-63751666D01*
X64559000Y-64451666D02*
X64559000Y-63751666D01*
X64792333Y-64251666D01*
X65025666Y-63751666D01*
X65025666Y-64451666D01*
X65359000Y-64451666D02*
X65359000Y-63751666D01*
X65659000Y-64418333D02*
X65759000Y-64451666D01*
X65925666Y-64451666D01*
X65992333Y-64418333D01*
X66025666Y-64385000D01*
X66059000Y-64318333D01*
X66059000Y-64251666D01*
X66025666Y-64185000D01*
X65992333Y-64151666D01*
X65925666Y-64118333D01*
X65792333Y-64085000D01*
X65725666Y-64051666D01*
X65692333Y-64018333D01*
X65659000Y-63951666D01*
X65659000Y-63885000D01*
X65692333Y-63818333D01*
X65725666Y-63785000D01*
X65792333Y-63751666D01*
X65959000Y-63751666D01*
X66059000Y-63785000D01*
X66492333Y-63751666D02*
X66625666Y-63751666D01*
X66692333Y-63785000D01*
X66759000Y-63851666D01*
X66792333Y-63985000D01*
X66792333Y-64218333D01*
X66759000Y-64351666D01*
X66692333Y-64418333D01*
X66625666Y-64451666D01*
X66492333Y-64451666D01*
X66425666Y-64418333D01*
X66359000Y-64351666D01*
X66325666Y-64218333D01*
X66325666Y-63985000D01*
X66359000Y-63851666D01*
X66425666Y-63785000D01*
X66492333Y-63751666D01*
D10*
%TO.C,U106*%
X65823545Y-85882604D02*
X65823545Y-71092604D01*
X67823545Y-87872604D02*
X67823545Y-87882604D01*
X65833545Y-71092604D02*
X65823545Y-71092604D01*
X96973545Y-87882604D02*
X67823545Y-87882604D01*
X99463545Y-85382604D02*
X99463545Y-71592604D01*
X96973545Y-69102604D02*
X67823545Y-69102604D01*
X67823545Y-69102604D02*
X67823545Y-69092604D01*
X74140000Y-83449106D02*
X72140249Y-83449106D01*
X72140249Y-74692836D02*
X72488381Y-74692836D01*
X99473545Y-71592604D02*
X99463545Y-71592604D01*
X96973545Y-69092604D02*
X96973545Y-69102604D01*
X65942368Y-88227413D02*
X97336898Y-88227413D01*
X67823545Y-69092604D02*
X96973545Y-69092604D01*
X63442368Y-71332829D02*
X63442368Y-85727413D01*
X65833545Y-71092604D02*
X65833545Y-85882604D01*
X72140249Y-73660000D02*
X72140249Y-83449106D01*
X99473545Y-71592604D02*
X99473545Y-85382604D01*
X96973545Y-87882604D02*
X96973545Y-87872604D01*
X97336898Y-68832829D02*
X65942368Y-68832829D01*
X99473545Y-85382604D02*
X99463545Y-85382604D01*
X99836898Y-85727413D02*
X99836898Y-71332829D01*
X65833545Y-85882604D02*
X65823545Y-85882604D01*
X67823545Y-87872604D02*
X96973545Y-87872604D01*
X74140000Y-73660000D02*
X72140249Y-73660000D01*
X74140000Y-73660000D02*
X74140000Y-83449106D01*
X67823545Y-87872604D02*
G75*
G02*
X65833545Y-85882604I0J1990000D01*
G01*
X96973545Y-69092605D02*
G75*
G02*
X99473544Y-71592604I0J-2499999D01*
G01*
X67823545Y-87882604D02*
G75*
G02*
X65823545Y-85882604I0J2000000D01*
G01*
X99463545Y-85382604D02*
G75*
G02*
X96973545Y-87872604I-2490000J0D01*
G01*
X97336898Y-68832829D02*
G75*
G02*
X99836898Y-71332829I0J-2500000D01*
G01*
X99473545Y-85382604D02*
G75*
G02*
X96973545Y-87882604I-2500000J0D01*
G01*
X63442368Y-71332829D02*
G75*
G02*
X65942368Y-68832829I2500000J0D01*
G01*
X65942368Y-88227413D02*
G75*
G02*
X63442368Y-85727413I0J2500000D01*
G01*
X65833545Y-71092604D02*
G75*
G02*
X67823545Y-69102604I1990000J0D01*
G01*
X99836898Y-85727413D02*
G75*
G02*
X97336898Y-88227413I-2500000J0D01*
G01*
X65823545Y-71092604D02*
G75*
G02*
X67823545Y-69092604I2000000J0D01*
G01*
X96973545Y-69102605D02*
G75*
G02*
X99463544Y-71592604I0J-2489999D01*
G01*
D13*
%TO.C,D102*%
X107542000Y-67525000D02*
X107542000Y-65240000D01*
X106072000Y-67525000D02*
X107542000Y-67525000D01*
X106072000Y-65240000D02*
X106072000Y-67525000D01*
D10*
%TO.C,U105*%
X105920000Y-76351572D02*
X102920000Y-76351572D01*
X102920000Y-76684906D02*
X102920000Y-76351572D01*
X105920000Y-74851572D02*
X105920000Y-76351572D01*
X123669999Y-85851572D02*
G75*
G03*
X123669999Y-85851572I-999999J0D01*
G01*
X104454875Y-88098349D02*
X104653335Y-88003389D01*
X104653335Y-88003389D02*
X104876155Y-87918636D01*
X104876155Y-87918636D02*
X105122359Y-87843681D01*
X105122359Y-87843681D02*
X105321770Y-87793648D01*
X105321770Y-87793648D02*
X105533375Y-87748725D01*
X105533375Y-87748725D02*
X105756762Y-87708739D01*
X105756762Y-87708739D02*
X105991519Y-87673516D01*
X105991519Y-87673516D02*
X106237236Y-87642886D01*
X106237236Y-87642886D02*
X106493500Y-87616675D01*
X106493500Y-87616675D02*
X106670000Y-87601572D01*
X105920000Y-80018239D02*
X102920000Y-80018239D01*
X102920000Y-76684906D02*
X105920000Y-76684906D01*
X105920000Y-76684906D02*
X105920000Y-78184906D01*
X105920000Y-78184906D02*
X102920000Y-78184906D01*
X102920000Y-78518239D02*
X102920000Y-78184906D01*
X102920000Y-80351572D02*
X102920000Y-80018239D01*
X123891777Y-84102306D02*
X121162066Y-84109507D01*
X102920000Y-74851572D02*
X105920000Y-74851572D01*
X102920000Y-78518239D02*
X105920000Y-78518239D01*
X105920000Y-78518239D02*
X105920000Y-80018239D01*
X121420000Y-72851572D02*
X117670000Y-69101572D01*
X117670000Y-69101572D02*
X106670000Y-69101572D01*
X102920000Y-80351572D02*
X105920000Y-80351572D01*
X105920000Y-80351572D02*
X105920000Y-81851572D01*
X105920000Y-81851572D02*
X102920000Y-81851572D01*
X102920000Y-83851572D02*
X102920000Y-81851572D01*
X102920000Y-83851572D02*
X101505787Y-85265786D01*
X123870000Y-87601572D02*
X106670000Y-87601572D01*
X121420000Y-72851572D02*
X121420000Y-83851572D01*
X104140990Y-88264040D02*
X104327700Y-88166306D01*
X104327700Y-88166306D02*
X104454875Y-88098349D01*
X124169999Y-87301573D02*
X124170000Y-84379797D01*
X121162066Y-84109507D02*
X121420000Y-83851572D01*
X106670000Y-69101572D02*
X102920000Y-72851572D01*
X102920000Y-74851572D02*
X102920000Y-72851572D01*
X103920001Y-86680000D02*
G75*
G03*
X103920001Y-86680000I-1000001J0D01*
G01*
X123891778Y-84102306D02*
G75*
G02*
X124170000Y-84379797I-20987J-299265D01*
G01*
X124169999Y-87301574D02*
G75*
G02*
X123869999Y-87601572I-299999J1D01*
G01*
X104140989Y-88264041D02*
G75*
G02*
X101505787Y-85265786I-1220989J1584041D01*
G01*
D13*
%TO.C,J103*%
X64710000Y-67370000D02*
X64710000Y-66040000D01*
X66040000Y-67370000D02*
X64710000Y-67370000D01*
X67310000Y-67370000D02*
X67310000Y-64710000D01*
X67310000Y-64710000D02*
X102930000Y-64710000D01*
X67310000Y-67370000D02*
X102930000Y-67370000D01*
X102930000Y-67370000D02*
X102930000Y-64710000D01*
%TO.C,J104*%
X102930000Y-92770000D02*
X102930000Y-90110000D01*
X67310000Y-92770000D02*
X102930000Y-92770000D01*
X67310000Y-90110000D02*
X102930000Y-90110000D01*
X67310000Y-92770000D02*
X67310000Y-90110000D01*
X66040000Y-92770000D02*
X64710000Y-92770000D01*
X64710000Y-92770000D02*
X64710000Y-91440000D01*
D14*
%TO.C,SW103*%
X58150000Y-73660000D02*
X60150000Y-73660000D01*
X60150000Y-73660000D02*
X60150000Y-67660000D01*
X60150000Y-67660000D02*
X58150000Y-67660000D01*
X56150000Y-67660000D02*
X54150000Y-67660000D01*
X54150000Y-67660000D02*
X54150000Y-73660000D01*
X54150000Y-73660000D02*
X56150000Y-73660000D01*
%TO.C,SW104*%
X54150000Y-90185000D02*
X56150000Y-90185000D01*
X54150000Y-84185000D02*
X54150000Y-90185000D01*
X56150000Y-84185000D02*
X54150000Y-84185000D01*
X60150000Y-84185000D02*
X58150000Y-84185000D01*
X60150000Y-90185000D02*
X60150000Y-84185000D01*
X58150000Y-90185000D02*
X60150000Y-90185000D01*
%TO.C,U106*%
X97013780Y-80403485D02*
X97823304Y-80403485D01*
X97918542Y-80355866D01*
X97966161Y-80308247D01*
X98013780Y-80213009D01*
X98013780Y-80022533D01*
X97966161Y-79927295D01*
X97918542Y-79879676D01*
X97823304Y-79832057D01*
X97013780Y-79832057D01*
X98013780Y-78832057D02*
X98013780Y-79403485D01*
X98013780Y-79117771D02*
X97013780Y-79117771D01*
X97156638Y-79213009D01*
X97251876Y-79308247D01*
X97299495Y-79403485D01*
X97013780Y-78213009D02*
X97013780Y-78117771D01*
X97061400Y-78022533D01*
X97109019Y-77974914D01*
X97204257Y-77927295D01*
X97394733Y-77879676D01*
X97632828Y-77879676D01*
X97823304Y-77927295D01*
X97918542Y-77974914D01*
X97966161Y-78022533D01*
X98013780Y-78117771D01*
X98013780Y-78213009D01*
X97966161Y-78308247D01*
X97918542Y-78355866D01*
X97823304Y-78403485D01*
X97632828Y-78451104D01*
X97394733Y-78451104D01*
X97204257Y-78403485D01*
X97109019Y-78355866D01*
X97061400Y-78308247D01*
X97013780Y-78213009D01*
X97013780Y-77022533D02*
X97013780Y-77213009D01*
X97061400Y-77308247D01*
X97109019Y-77355866D01*
X97251876Y-77451104D01*
X97442352Y-77498723D01*
X97823304Y-77498723D01*
X97918542Y-77451104D01*
X97966161Y-77403485D01*
X98013780Y-77308247D01*
X98013780Y-77117771D01*
X97966161Y-77022533D01*
X97918542Y-76974914D01*
X97823304Y-76927295D01*
X97585209Y-76927295D01*
X97489971Y-76974914D01*
X97442352Y-77022533D01*
X97394733Y-77117771D01*
X97394733Y-77308247D01*
X97442352Y-77403485D01*
X97489971Y-77451104D01*
X97585209Y-77498723D01*
%TO.C,D102*%
D11*
X108305809Y-66452714D02*
X108267714Y-66490809D01*
X108153428Y-66528904D01*
X108077238Y-66528904D01*
X107962952Y-66490809D01*
X107886761Y-66414619D01*
X107848666Y-66338428D01*
X107810571Y-66186047D01*
X107810571Y-66071761D01*
X107848666Y-65919380D01*
X107886761Y-65843190D01*
X107962952Y-65767000D01*
X108077238Y-65728904D01*
X108153428Y-65728904D01*
X108267714Y-65767000D01*
X108305809Y-65805095D01*
X108648666Y-66528904D02*
X108648666Y-65728904D01*
X108648666Y-66109857D02*
X109105809Y-66109857D01*
X109105809Y-66528904D02*
X109105809Y-65728904D01*
X109448666Y-66300333D02*
X109829619Y-66300333D01*
X109372476Y-66528904D02*
X109639142Y-65728904D01*
X109905809Y-66528904D01*
X110629619Y-66528904D02*
X110362952Y-66147952D01*
X110172476Y-66528904D02*
X110172476Y-65728904D01*
X110477238Y-65728904D01*
X110553428Y-65767000D01*
X110591523Y-65805095D01*
X110629619Y-65881285D01*
X110629619Y-65995571D01*
X110591523Y-66071761D01*
X110553428Y-66109857D01*
X110477238Y-66147952D01*
X110172476Y-66147952D01*
X111391523Y-65767000D02*
X111315333Y-65728904D01*
X111201047Y-65728904D01*
X111086761Y-65767000D01*
X111010571Y-65843190D01*
X110972476Y-65919380D01*
X110934380Y-66071761D01*
X110934380Y-66186047D01*
X110972476Y-66338428D01*
X111010571Y-66414619D01*
X111086761Y-66490809D01*
X111201047Y-66528904D01*
X111277238Y-66528904D01*
X111391523Y-66490809D01*
X111429619Y-66452714D01*
X111429619Y-66186047D01*
X111277238Y-66186047D01*
X111772476Y-66109857D02*
X112039142Y-66109857D01*
X112153428Y-66528904D02*
X111772476Y-66528904D01*
X111772476Y-65728904D01*
X112153428Y-65728904D01*
%TO.C,U105*%
D14*
X108705714Y-84082380D02*
X108705714Y-84891904D01*
X108753333Y-84987142D01*
X108800952Y-85034761D01*
X108896190Y-85082380D01*
X109086666Y-85082380D01*
X109181904Y-85034761D01*
X109229523Y-84987142D01*
X109277142Y-84891904D01*
X109277142Y-84082380D01*
X110277142Y-85082380D02*
X109705714Y-85082380D01*
X109991428Y-85082380D02*
X109991428Y-84082380D01*
X109896190Y-84225238D01*
X109800952Y-84320476D01*
X109705714Y-84368095D01*
X110896190Y-84082380D02*
X110991428Y-84082380D01*
X111086666Y-84130000D01*
X111134285Y-84177619D01*
X111181904Y-84272857D01*
X111229523Y-84463333D01*
X111229523Y-84701428D01*
X111181904Y-84891904D01*
X111134285Y-84987142D01*
X111086666Y-85034761D01*
X110991428Y-85082380D01*
X110896190Y-85082380D01*
X110800952Y-85034761D01*
X110753333Y-84987142D01*
X110705714Y-84891904D01*
X110658095Y-84701428D01*
X110658095Y-84463333D01*
X110705714Y-84272857D01*
X110753333Y-84177619D01*
X110800952Y-84130000D01*
X110896190Y-84082380D01*
X112134285Y-84082380D02*
X111658095Y-84082380D01*
X111610476Y-84558571D01*
X111658095Y-84510952D01*
X111753333Y-84463333D01*
X111991428Y-84463333D01*
X112086666Y-84510952D01*
X112134285Y-84558571D01*
X112181904Y-84653809D01*
X112181904Y-84891904D01*
X112134285Y-84987142D01*
X112086666Y-85034761D01*
X111991428Y-85082380D01*
X111753333Y-85082380D01*
X111658095Y-85034761D01*
X111610476Y-84987142D01*
D11*
X107123571Y-75966904D02*
X106742619Y-75966904D01*
X106742619Y-75166904D01*
X107961666Y-75128809D02*
X107275952Y-76157380D01*
X108685476Y-75966904D02*
X108418809Y-75585952D01*
X108228333Y-75966904D02*
X108228333Y-75166904D01*
X108533095Y-75166904D01*
X108609285Y-75205000D01*
X108647380Y-75243095D01*
X108685476Y-75319285D01*
X108685476Y-75433571D01*
X108647380Y-75509761D01*
X108609285Y-75547857D01*
X108533095Y-75585952D01*
X108228333Y-75585952D01*
X107085476Y-77055000D02*
X107009285Y-77016904D01*
X106895000Y-77016904D01*
X106780714Y-77055000D01*
X106704523Y-77131190D01*
X106666428Y-77207380D01*
X106628333Y-77359761D01*
X106628333Y-77474047D01*
X106666428Y-77626428D01*
X106704523Y-77702619D01*
X106780714Y-77778809D01*
X106895000Y-77816904D01*
X106971190Y-77816904D01*
X107085476Y-77778809D01*
X107123571Y-77740714D01*
X107123571Y-77474047D01*
X106971190Y-77474047D01*
X107466428Y-77816904D02*
X107466428Y-77016904D01*
X107923571Y-77816904D01*
X107923571Y-77016904D01*
X108304523Y-77816904D02*
X108304523Y-77016904D01*
X108495000Y-77016904D01*
X108609285Y-77055000D01*
X108685476Y-77131190D01*
X108723571Y-77207380D01*
X108761666Y-77359761D01*
X108761666Y-77474047D01*
X108723571Y-77626428D01*
X108685476Y-77702619D01*
X108609285Y-77778809D01*
X108495000Y-77816904D01*
X108304523Y-77816904D01*
X106722380Y-78816904D02*
X106722380Y-79464523D01*
X106760476Y-79540714D01*
X106798571Y-79578809D01*
X106874761Y-79616904D01*
X107027142Y-79616904D01*
X107103333Y-79578809D01*
X107141428Y-79540714D01*
X107179523Y-79464523D01*
X107179523Y-78816904D01*
X108131904Y-78778809D02*
X107446190Y-79807380D01*
X108398571Y-79616904D02*
X108398571Y-78816904D01*
X108589047Y-78816904D01*
X108703333Y-78855000D01*
X108779523Y-78931190D01*
X108817619Y-79007380D01*
X108855714Y-79159761D01*
X108855714Y-79274047D01*
X108817619Y-79426428D01*
X108779523Y-79502619D01*
X108703333Y-79578809D01*
X108589047Y-79616904D01*
X108398571Y-79616904D01*
X106703333Y-80816904D02*
X106970000Y-81616904D01*
X107236666Y-80816904D01*
X107960476Y-81540714D02*
X107922380Y-81578809D01*
X107808095Y-81616904D01*
X107731904Y-81616904D01*
X107617619Y-81578809D01*
X107541428Y-81502619D01*
X107503333Y-81426428D01*
X107465238Y-81274047D01*
X107465238Y-81159761D01*
X107503333Y-81007380D01*
X107541428Y-80931190D01*
X107617619Y-80855000D01*
X107731904Y-80816904D01*
X107808095Y-80816904D01*
X107922380Y-80855000D01*
X107960476Y-80893095D01*
X108760476Y-81540714D02*
X108722380Y-81578809D01*
X108608095Y-81616904D01*
X108531904Y-81616904D01*
X108417619Y-81578809D01*
X108341428Y-81502619D01*
X108303333Y-81426428D01*
X108265238Y-81274047D01*
X108265238Y-81159761D01*
X108303333Y-81007380D01*
X108341428Y-80931190D01*
X108417619Y-80855000D01*
X108531904Y-80816904D01*
X108608095Y-80816904D01*
X108722380Y-80855000D01*
X108760476Y-80893095D01*
%TO.C,SW103*%
D14*
X54864285Y-71064761D02*
X55007142Y-71112380D01*
X55245238Y-71112380D01*
X55340476Y-71064761D01*
X55388095Y-71017142D01*
X55435714Y-70921904D01*
X55435714Y-70826666D01*
X55388095Y-70731428D01*
X55340476Y-70683809D01*
X55245238Y-70636190D01*
X55054761Y-70588571D01*
X54959523Y-70540952D01*
X54911904Y-70493333D01*
X54864285Y-70398095D01*
X54864285Y-70302857D01*
X54911904Y-70207619D01*
X54959523Y-70160000D01*
X55054761Y-70112380D01*
X55292857Y-70112380D01*
X55435714Y-70160000D01*
X55769047Y-70112380D02*
X56007142Y-71112380D01*
X56197619Y-70398095D01*
X56388095Y-71112380D01*
X56626190Y-70112380D01*
X57530952Y-71112380D02*
X56959523Y-71112380D01*
X57245238Y-71112380D02*
X57245238Y-70112380D01*
X57150000Y-70255238D01*
X57054761Y-70350476D01*
X56959523Y-70398095D01*
X58150000Y-70112380D02*
X58245238Y-70112380D01*
X58340476Y-70160000D01*
X58388095Y-70207619D01*
X58435714Y-70302857D01*
X58483333Y-70493333D01*
X58483333Y-70731428D01*
X58435714Y-70921904D01*
X58388095Y-71017142D01*
X58340476Y-71064761D01*
X58245238Y-71112380D01*
X58150000Y-71112380D01*
X58054761Y-71064761D01*
X58007142Y-71017142D01*
X57959523Y-70921904D01*
X57911904Y-70731428D01*
X57911904Y-70493333D01*
X57959523Y-70302857D01*
X58007142Y-70207619D01*
X58054761Y-70160000D01*
X58150000Y-70112380D01*
X58816666Y-70112380D02*
X59435714Y-70112380D01*
X59102380Y-70493333D01*
X59245238Y-70493333D01*
X59340476Y-70540952D01*
X59388095Y-70588571D01*
X59435714Y-70683809D01*
X59435714Y-70921904D01*
X59388095Y-71017142D01*
X59340476Y-71064761D01*
X59245238Y-71112380D01*
X58959523Y-71112380D01*
X58864285Y-71064761D01*
X58816666Y-71017142D01*
%TO.C,SW104*%
X54864285Y-87589761D02*
X55007142Y-87637380D01*
X55245238Y-87637380D01*
X55340476Y-87589761D01*
X55388095Y-87542142D01*
X55435714Y-87446904D01*
X55435714Y-87351666D01*
X55388095Y-87256428D01*
X55340476Y-87208809D01*
X55245238Y-87161190D01*
X55054761Y-87113571D01*
X54959523Y-87065952D01*
X54911904Y-87018333D01*
X54864285Y-86923095D01*
X54864285Y-86827857D01*
X54911904Y-86732619D01*
X54959523Y-86685000D01*
X55054761Y-86637380D01*
X55292857Y-86637380D01*
X55435714Y-86685000D01*
X55769047Y-86637380D02*
X56007142Y-87637380D01*
X56197619Y-86923095D01*
X56388095Y-87637380D01*
X56626190Y-86637380D01*
X57530952Y-87637380D02*
X56959523Y-87637380D01*
X57245238Y-87637380D02*
X57245238Y-86637380D01*
X57150000Y-86780238D01*
X57054761Y-86875476D01*
X56959523Y-86923095D01*
X58150000Y-86637380D02*
X58245238Y-86637380D01*
X58340476Y-86685000D01*
X58388095Y-86732619D01*
X58435714Y-86827857D01*
X58483333Y-87018333D01*
X58483333Y-87256428D01*
X58435714Y-87446904D01*
X58388095Y-87542142D01*
X58340476Y-87589761D01*
X58245238Y-87637380D01*
X58150000Y-87637380D01*
X58054761Y-87589761D01*
X58007142Y-87542142D01*
X57959523Y-87446904D01*
X57911904Y-87256428D01*
X57911904Y-87018333D01*
X57959523Y-86827857D01*
X58007142Y-86732619D01*
X58054761Y-86685000D01*
X58150000Y-86637380D01*
X59340476Y-86970714D02*
X59340476Y-87637380D01*
X59102380Y-86589761D02*
X58864285Y-87304047D01*
X59483333Y-87304047D01*
%TD*%
M02*
