%TF.GenerationSoftware,KiCad,Pcbnew,(5.1.12)-1*%
%TF.CreationDate,2022-11-06T18:41:51+01:00*%
%TF.ProjectId,NewmorphS3,4e65776d-6f72-4706-9853-332e6b696361,rev?*%
%TF.SameCoordinates,Original*%
%TF.FileFunction,Paste,Bot*%
%TF.FilePolarity,Positive*%
%FSLAX46Y46*%
G04 Gerber Fmt 4.6, Leading zero omitted, Abs format (unit mm)*
G04 Created by KiCad (PCBNEW (5.1.12)-1) date 2022-11-06 18:41:51*
%MOMM*%
%LPD*%
G01*
G04 APERTURE LIST*
%ADD10C,0.010000*%
%ADD11R,0.800000X0.900000*%
%ADD12R,1.750000X0.300000*%
%ADD13R,1.050000X0.650000*%
%ADD14R,0.700000X1.500000*%
%ADD15R,1.000000X0.800000*%
%ADD16R,1.060000X0.650000*%
%ADD17R,0.300000X0.800000*%
%ADD18R,0.925000X0.300000*%
%ADD19R,1.000000X1.200000*%
%ADD20R,1.800000X1.170000*%
%ADD21R,1.100000X0.750000*%
%ADD22R,1.350000X1.550000*%
%ADD23R,1.350000X1.900000*%
%ADD24C,1.524000*%
G04 APERTURE END LIST*
D10*
%TO.C,U107*%
G36*
X78811000Y-83189000D02*
G01*
X79589000Y-83189000D01*
X79589000Y-82411000D01*
X78811000Y-82411000D01*
X78811000Y-83189000D01*
G37*
X78811000Y-83189000D02*
X79589000Y-83189000D01*
X79589000Y-82411000D01*
X78811000Y-82411000D01*
X78811000Y-83189000D01*
%TD*%
%TO.C,C101*%
G36*
G01*
X117860000Y-90215000D02*
X118360000Y-90215000D01*
G75*
G02*
X118585000Y-90440000I0J-225000D01*
G01*
X118585000Y-90890000D01*
G75*
G02*
X118360000Y-91115000I-225000J0D01*
G01*
X117860000Y-91115000D01*
G75*
G02*
X117635000Y-90890000I0J225000D01*
G01*
X117635000Y-90440000D01*
G75*
G02*
X117860000Y-90215000I225000J0D01*
G01*
G37*
G36*
G01*
X117860000Y-91765000D02*
X118360000Y-91765000D01*
G75*
G02*
X118585000Y-91990000I0J-225000D01*
G01*
X118585000Y-92440000D01*
G75*
G02*
X118360000Y-92665000I-225000J0D01*
G01*
X117860000Y-92665000D01*
G75*
G02*
X117635000Y-92440000I0J225000D01*
G01*
X117635000Y-91990000D01*
G75*
G02*
X117860000Y-91765000I225000J0D01*
G01*
G37*
%TD*%
%TO.C,C102*%
G36*
G01*
X110486000Y-92551000D02*
X109986000Y-92551000D01*
G75*
G02*
X109761000Y-92326000I0J225000D01*
G01*
X109761000Y-91876000D01*
G75*
G02*
X109986000Y-91651000I225000J0D01*
G01*
X110486000Y-91651000D01*
G75*
G02*
X110711000Y-91876000I0J-225000D01*
G01*
X110711000Y-92326000D01*
G75*
G02*
X110486000Y-92551000I-225000J0D01*
G01*
G37*
G36*
G01*
X110486000Y-91001000D02*
X109986000Y-91001000D01*
G75*
G02*
X109761000Y-90776000I0J225000D01*
G01*
X109761000Y-90326000D01*
G75*
G02*
X109986000Y-90101000I225000J0D01*
G01*
X110486000Y-90101000D01*
G75*
G02*
X110711000Y-90326000I0J-225000D01*
G01*
X110711000Y-90776000D01*
G75*
G02*
X110486000Y-91001000I-225000J0D01*
G01*
G37*
%TD*%
%TO.C,C103*%
G36*
G01*
X104271000Y-91879000D02*
X104771000Y-91879000D01*
G75*
G02*
X104996000Y-92104000I0J-225000D01*
G01*
X104996000Y-92554000D01*
G75*
G02*
X104771000Y-92779000I-225000J0D01*
G01*
X104271000Y-92779000D01*
G75*
G02*
X104046000Y-92554000I0J225000D01*
G01*
X104046000Y-92104000D01*
G75*
G02*
X104271000Y-91879000I225000J0D01*
G01*
G37*
G36*
G01*
X104271000Y-90329000D02*
X104771000Y-90329000D01*
G75*
G02*
X104996000Y-90554000I0J-225000D01*
G01*
X104996000Y-91004000D01*
G75*
G02*
X104771000Y-91229000I-225000J0D01*
G01*
X104271000Y-91229000D01*
G75*
G02*
X104046000Y-91004000I0J225000D01*
G01*
X104046000Y-90554000D01*
G75*
G02*
X104271000Y-90329000I225000J0D01*
G01*
G37*
%TD*%
%TO.C,C104*%
G36*
G01*
X111637000Y-91625000D02*
X112137000Y-91625000D01*
G75*
G02*
X112362000Y-91850000I0J-225000D01*
G01*
X112362000Y-92300000D01*
G75*
G02*
X112137000Y-92525000I-225000J0D01*
G01*
X111637000Y-92525000D01*
G75*
G02*
X111412000Y-92300000I0J225000D01*
G01*
X111412000Y-91850000D01*
G75*
G02*
X111637000Y-91625000I225000J0D01*
G01*
G37*
G36*
G01*
X111637000Y-90075000D02*
X112137000Y-90075000D01*
G75*
G02*
X112362000Y-90300000I0J-225000D01*
G01*
X112362000Y-90750000D01*
G75*
G02*
X112137000Y-90975000I-225000J0D01*
G01*
X111637000Y-90975000D01*
G75*
G02*
X111412000Y-90750000I0J225000D01*
G01*
X111412000Y-90300000D01*
G75*
G02*
X111637000Y-90075000I225000J0D01*
G01*
G37*
%TD*%
%TO.C,C105*%
G36*
G01*
X60104000Y-64012500D02*
X61054000Y-64012500D01*
G75*
G02*
X61304000Y-64262500I0J-250000D01*
G01*
X61304000Y-64937500D01*
G75*
G02*
X61054000Y-65187500I-250000J0D01*
G01*
X60104000Y-65187500D01*
G75*
G02*
X59854000Y-64937500I0J250000D01*
G01*
X59854000Y-64262500D01*
G75*
G02*
X60104000Y-64012500I250000J0D01*
G01*
G37*
G36*
G01*
X60104000Y-66087500D02*
X61054000Y-66087500D01*
G75*
G02*
X61304000Y-66337500I0J-250000D01*
G01*
X61304000Y-67012500D01*
G75*
G02*
X61054000Y-67262500I-250000J0D01*
G01*
X60104000Y-67262500D01*
G75*
G02*
X59854000Y-67012500I0J250000D01*
G01*
X59854000Y-66337500D01*
G75*
G02*
X60104000Y-66087500I250000J0D01*
G01*
G37*
%TD*%
D11*
%TO.C,D101*%
X115850000Y-86950000D03*
X113950000Y-86950000D03*
X114900000Y-84950000D03*
%TD*%
D12*
%TO.C,J101*%
X118135000Y-78355000D03*
X118135000Y-78855000D03*
X118135000Y-79355000D03*
X118135000Y-79855000D03*
X118135000Y-77355000D03*
X118135000Y-76355000D03*
X118135000Y-76855000D03*
X118135000Y-77855000D03*
X118135000Y-74755000D03*
X118135000Y-75055000D03*
X118135000Y-75555000D03*
X118135000Y-75855000D03*
X118135000Y-80655000D03*
X118135000Y-80355000D03*
X118135000Y-81155000D03*
X118135000Y-81455000D03*
%TD*%
%TO.C,R101*%
G36*
G01*
X118350000Y-85069000D02*
X118350000Y-85619000D01*
G75*
G02*
X118150000Y-85819000I-200000J0D01*
G01*
X117750000Y-85819000D01*
G75*
G02*
X117550000Y-85619000I0J200000D01*
G01*
X117550000Y-85069000D01*
G75*
G02*
X117750000Y-84869000I200000J0D01*
G01*
X118150000Y-84869000D01*
G75*
G02*
X118350000Y-85069000I0J-200000D01*
G01*
G37*
G36*
G01*
X120000000Y-85069000D02*
X120000000Y-85619000D01*
G75*
G02*
X119800000Y-85819000I-200000J0D01*
G01*
X119400000Y-85819000D01*
G75*
G02*
X119200000Y-85619000I0J200000D01*
G01*
X119200000Y-85069000D01*
G75*
G02*
X119400000Y-84869000I200000J0D01*
G01*
X119800000Y-84869000D01*
G75*
G02*
X120000000Y-85069000I0J-200000D01*
G01*
G37*
%TD*%
%TO.C,R102*%
G36*
G01*
X123970000Y-71226000D02*
X123970000Y-71776000D01*
G75*
G02*
X123770000Y-71976000I-200000J0D01*
G01*
X123370000Y-71976000D01*
G75*
G02*
X123170000Y-71776000I0J200000D01*
G01*
X123170000Y-71226000D01*
G75*
G02*
X123370000Y-71026000I200000J0D01*
G01*
X123770000Y-71026000D01*
G75*
G02*
X123970000Y-71226000I0J-200000D01*
G01*
G37*
G36*
G01*
X122320000Y-71226000D02*
X122320000Y-71776000D01*
G75*
G02*
X122120000Y-71976000I-200000J0D01*
G01*
X121720000Y-71976000D01*
G75*
G02*
X121520000Y-71776000I0J200000D01*
G01*
X121520000Y-71226000D01*
G75*
G02*
X121720000Y-71026000I200000J0D01*
G01*
X122120000Y-71026000D01*
G75*
G02*
X122320000Y-71226000I0J-200000D01*
G01*
G37*
%TD*%
%TO.C,R103*%
G36*
G01*
X114448000Y-80664000D02*
X113898000Y-80664000D01*
G75*
G02*
X113698000Y-80464000I0J200000D01*
G01*
X113698000Y-80064000D01*
G75*
G02*
X113898000Y-79864000I200000J0D01*
G01*
X114448000Y-79864000D01*
G75*
G02*
X114648000Y-80064000I0J-200000D01*
G01*
X114648000Y-80464000D01*
G75*
G02*
X114448000Y-80664000I-200000J0D01*
G01*
G37*
G36*
G01*
X114448000Y-82314000D02*
X113898000Y-82314000D01*
G75*
G02*
X113698000Y-82114000I0J200000D01*
G01*
X113698000Y-81714000D01*
G75*
G02*
X113898000Y-81514000I200000J0D01*
G01*
X114448000Y-81514000D01*
G75*
G02*
X114648000Y-81714000I0J-200000D01*
G01*
X114648000Y-82114000D01*
G75*
G02*
X114448000Y-82314000I-200000J0D01*
G01*
G37*
%TD*%
%TO.C,R104*%
G36*
G01*
X105304000Y-67201000D02*
X104754000Y-67201000D01*
G75*
G02*
X104554000Y-67001000I0J200000D01*
G01*
X104554000Y-66601000D01*
G75*
G02*
X104754000Y-66401000I200000J0D01*
G01*
X105304000Y-66401000D01*
G75*
G02*
X105504000Y-66601000I0J-200000D01*
G01*
X105504000Y-67001000D01*
G75*
G02*
X105304000Y-67201000I-200000J0D01*
G01*
G37*
G36*
G01*
X105304000Y-65551000D02*
X104754000Y-65551000D01*
G75*
G02*
X104554000Y-65351000I0J200000D01*
G01*
X104554000Y-64951000D01*
G75*
G02*
X104754000Y-64751000I200000J0D01*
G01*
X105304000Y-64751000D01*
G75*
G02*
X105504000Y-64951000I0J-200000D01*
G01*
X105504000Y-65351000D01*
G75*
G02*
X105304000Y-65551000I-200000J0D01*
G01*
G37*
%TD*%
%TO.C,R105*%
G36*
G01*
X75200000Y-87572001D02*
X75200000Y-86671999D01*
G75*
G02*
X75449999Y-86422000I249999J0D01*
G01*
X76150001Y-86422000D01*
G75*
G02*
X76400000Y-86671999I0J-249999D01*
G01*
X76400000Y-87572001D01*
G75*
G02*
X76150001Y-87822000I-249999J0D01*
G01*
X75449999Y-87822000D01*
G75*
G02*
X75200000Y-87572001I0J249999D01*
G01*
G37*
G36*
G01*
X77200000Y-87572001D02*
X77200000Y-86671999D01*
G75*
G02*
X77449999Y-86422000I249999J0D01*
G01*
X78150001Y-86422000D01*
G75*
G02*
X78400000Y-86671999I0J-249999D01*
G01*
X78400000Y-87572001D01*
G75*
G02*
X78150001Y-87822000I-249999J0D01*
G01*
X77449999Y-87822000D01*
G75*
G02*
X77200000Y-87572001I0J249999D01*
G01*
G37*
%TD*%
%TO.C,R108*%
G36*
G01*
X55353000Y-65807000D02*
X55353000Y-65257000D01*
G75*
G02*
X55553000Y-65057000I200000J0D01*
G01*
X55953000Y-65057000D01*
G75*
G02*
X56153000Y-65257000I0J-200000D01*
G01*
X56153000Y-65807000D01*
G75*
G02*
X55953000Y-66007000I-200000J0D01*
G01*
X55553000Y-66007000D01*
G75*
G02*
X55353000Y-65807000I0J200000D01*
G01*
G37*
G36*
G01*
X57003000Y-65807000D02*
X57003000Y-65257000D01*
G75*
G02*
X57203000Y-65057000I200000J0D01*
G01*
X57603000Y-65057000D01*
G75*
G02*
X57803000Y-65257000I0J-200000D01*
G01*
X57803000Y-65807000D01*
G75*
G02*
X57603000Y-66007000I-200000J0D01*
G01*
X57203000Y-66007000D01*
G75*
G02*
X57003000Y-65807000I0J200000D01*
G01*
G37*
%TD*%
%TO.C,R109*%
G36*
G01*
X63394000Y-65551000D02*
X62844000Y-65551000D01*
G75*
G02*
X62644000Y-65351000I0J200000D01*
G01*
X62644000Y-64951000D01*
G75*
G02*
X62844000Y-64751000I200000J0D01*
G01*
X63394000Y-64751000D01*
G75*
G02*
X63594000Y-64951000I0J-200000D01*
G01*
X63594000Y-65351000D01*
G75*
G02*
X63394000Y-65551000I-200000J0D01*
G01*
G37*
G36*
G01*
X63394000Y-67201000D02*
X62844000Y-67201000D01*
G75*
G02*
X62644000Y-67001000I0J200000D01*
G01*
X62644000Y-66601000D01*
G75*
G02*
X62844000Y-66401000I200000J0D01*
G01*
X63394000Y-66401000D01*
G75*
G02*
X63594000Y-66601000I0J-200000D01*
G01*
X63594000Y-67001000D01*
G75*
G02*
X63394000Y-67201000I-200000J0D01*
G01*
G37*
%TD*%
%TO.C,R110*%
G36*
G01*
X57702000Y-92731000D02*
X57702000Y-92181000D01*
G75*
G02*
X57902000Y-91981000I200000J0D01*
G01*
X58302000Y-91981000D01*
G75*
G02*
X58502000Y-92181000I0J-200000D01*
G01*
X58502000Y-92731000D01*
G75*
G02*
X58302000Y-92931000I-200000J0D01*
G01*
X57902000Y-92931000D01*
G75*
G02*
X57702000Y-92731000I0J200000D01*
G01*
G37*
G36*
G01*
X56052000Y-92731000D02*
X56052000Y-92181000D01*
G75*
G02*
X56252000Y-91981000I200000J0D01*
G01*
X56652000Y-91981000D01*
G75*
G02*
X56852000Y-92181000I0J-200000D01*
G01*
X56852000Y-92731000D01*
G75*
G02*
X56652000Y-92931000I-200000J0D01*
G01*
X56252000Y-92931000D01*
G75*
G02*
X56052000Y-92731000I0J200000D01*
G01*
G37*
%TD*%
%TO.C,R111*%
G36*
G01*
X62590000Y-91929000D02*
X63140000Y-91929000D01*
G75*
G02*
X63340000Y-92129000I0J-200000D01*
G01*
X63340000Y-92529000D01*
G75*
G02*
X63140000Y-92729000I-200000J0D01*
G01*
X62590000Y-92729000D01*
G75*
G02*
X62390000Y-92529000I0J200000D01*
G01*
X62390000Y-92129000D01*
G75*
G02*
X62590000Y-91929000I200000J0D01*
G01*
G37*
G36*
G01*
X62590000Y-90279000D02*
X63140000Y-90279000D01*
G75*
G02*
X63340000Y-90479000I0J-200000D01*
G01*
X63340000Y-90879000D01*
G75*
G02*
X63140000Y-91079000I-200000J0D01*
G01*
X62590000Y-91079000D01*
G75*
G02*
X62390000Y-90879000I0J200000D01*
G01*
X62390000Y-90479000D01*
G75*
G02*
X62590000Y-90279000I200000J0D01*
G01*
G37*
%TD*%
%TO.C,R112*%
G36*
G01*
X111400000Y-73075000D02*
X111400000Y-72525000D01*
G75*
G02*
X111600000Y-72325000I200000J0D01*
G01*
X112000000Y-72325000D01*
G75*
G02*
X112200000Y-72525000I0J-200000D01*
G01*
X112200000Y-73075000D01*
G75*
G02*
X112000000Y-73275000I-200000J0D01*
G01*
X111600000Y-73275000D01*
G75*
G02*
X111400000Y-73075000I0J200000D01*
G01*
G37*
G36*
G01*
X113050000Y-73075000D02*
X113050000Y-72525000D01*
G75*
G02*
X113250000Y-72325000I200000J0D01*
G01*
X113650000Y-72325000D01*
G75*
G02*
X113850000Y-72525000I0J-200000D01*
G01*
X113850000Y-73075000D01*
G75*
G02*
X113650000Y-73275000I-200000J0D01*
G01*
X113250000Y-73275000D01*
G75*
G02*
X113050000Y-73075000I0J200000D01*
G01*
G37*
%TD*%
%TO.C,R113*%
G36*
G01*
X111329000Y-70376000D02*
X111329000Y-69826000D01*
G75*
G02*
X111529000Y-69626000I200000J0D01*
G01*
X111929000Y-69626000D01*
G75*
G02*
X112129000Y-69826000I0J-200000D01*
G01*
X112129000Y-70376000D01*
G75*
G02*
X111929000Y-70576000I-200000J0D01*
G01*
X111529000Y-70576000D01*
G75*
G02*
X111329000Y-70376000I0J200000D01*
G01*
G37*
G36*
G01*
X112979000Y-70376000D02*
X112979000Y-69826000D01*
G75*
G02*
X113179000Y-69626000I200000J0D01*
G01*
X113579000Y-69626000D01*
G75*
G02*
X113779000Y-69826000I0J-200000D01*
G01*
X113779000Y-70376000D01*
G75*
G02*
X113579000Y-70576000I-200000J0D01*
G01*
X113179000Y-70576000D01*
G75*
G02*
X112979000Y-70376000I0J200000D01*
G01*
G37*
%TD*%
D13*
%TO.C,SW101*%
X83975000Y-86790000D03*
X80510000Y-86790000D03*
X83975000Y-88890000D03*
X80510000Y-88890000D03*
%TD*%
%TO.C,SW102*%
X87200000Y-88890000D03*
X90665000Y-88890000D03*
X87200000Y-86790000D03*
X90665000Y-86790000D03*
%TD*%
D14*
%TO.C,SW105*%
X111288000Y-67216000D03*
X114288000Y-67216000D03*
X115788000Y-67216000D03*
D15*
X109888000Y-64356000D03*
X117188000Y-64356000D03*
X117188000Y-66566000D03*
X109888000Y-66566000D03*
%TD*%
D16*
%TO.C,U101*%
X113835000Y-92390000D03*
X113835000Y-91440000D03*
X113835000Y-90490000D03*
X116035000Y-90490000D03*
X116035000Y-92390000D03*
%TD*%
%TO.C,U102*%
X108415000Y-92390000D03*
X108415000Y-90490000D03*
X106215000Y-90490000D03*
X106215000Y-91440000D03*
X106215000Y-92390000D03*
%TD*%
%TO.C,U103*%
G36*
G01*
X64643100Y-76360000D02*
X63716900Y-76360000D01*
G75*
G02*
X63630000Y-76273100I0J86900D01*
G01*
X63630000Y-75346900D01*
G75*
G02*
X63716900Y-75260000I86900J0D01*
G01*
X64643100Y-75260000D01*
G75*
G02*
X64730000Y-75346900I0J-86900D01*
G01*
X64730000Y-76273100D01*
G75*
G02*
X64643100Y-76360000I-86900J0D01*
G01*
G37*
G36*
G01*
X63143100Y-79360000D02*
X62216900Y-79360000D01*
G75*
G02*
X62130000Y-79273100I0J86900D01*
G01*
X62130000Y-78346900D01*
G75*
G02*
X62216900Y-78260000I86900J0D01*
G01*
X63143100Y-78260000D01*
G75*
G02*
X63230000Y-78346900I0J-86900D01*
G01*
X63230000Y-79273100D01*
G75*
G02*
X63143100Y-79360000I-86900J0D01*
G01*
G37*
G36*
G01*
X63143100Y-77860000D02*
X62216900Y-77860000D01*
G75*
G02*
X62130000Y-77773100I0J86900D01*
G01*
X62130000Y-76846900D01*
G75*
G02*
X62216900Y-76760000I86900J0D01*
G01*
X63143100Y-76760000D01*
G75*
G02*
X63230000Y-76846900I0J-86900D01*
G01*
X63230000Y-77773100D01*
G75*
G02*
X63143100Y-77860000I-86900J0D01*
G01*
G37*
G36*
G01*
X64643100Y-79360000D02*
X63716900Y-79360000D01*
G75*
G02*
X63630000Y-79273100I0J86900D01*
G01*
X63630000Y-78346900D01*
G75*
G02*
X63716900Y-78260000I86900J0D01*
G01*
X64643100Y-78260000D01*
G75*
G02*
X64730000Y-78346900I0J-86900D01*
G01*
X64730000Y-79273100D01*
G75*
G02*
X64643100Y-79360000I-86900J0D01*
G01*
G37*
G36*
G01*
X61643100Y-79360000D02*
X60716900Y-79360000D01*
G75*
G02*
X60630000Y-79273100I0J86900D01*
G01*
X60630000Y-78346900D01*
G75*
G02*
X60716900Y-78260000I86900J0D01*
G01*
X61643100Y-78260000D01*
G75*
G02*
X61730000Y-78346900I0J-86900D01*
G01*
X61730000Y-79273100D01*
G75*
G02*
X61643100Y-79360000I-86900J0D01*
G01*
G37*
G36*
G01*
X61643100Y-77860000D02*
X60716900Y-77860000D01*
G75*
G02*
X60630000Y-77773100I0J86900D01*
G01*
X60630000Y-76846900D01*
G75*
G02*
X60716900Y-76760000I86900J0D01*
G01*
X61643100Y-76760000D01*
G75*
G02*
X61730000Y-76846900I0J-86900D01*
G01*
X61730000Y-77773100D01*
G75*
G02*
X61643100Y-77860000I-86900J0D01*
G01*
G37*
G36*
G01*
X63143100Y-76360000D02*
X62216900Y-76360000D01*
G75*
G02*
X62130000Y-76273100I0J86900D01*
G01*
X62130000Y-75346900D01*
G75*
G02*
X62216900Y-75260000I86900J0D01*
G01*
X63143100Y-75260000D01*
G75*
G02*
X63230000Y-75346900I0J-86900D01*
G01*
X63230000Y-76273100D01*
G75*
G02*
X63143100Y-76360000I-86900J0D01*
G01*
G37*
G36*
G01*
X61643100Y-76360000D02*
X60716900Y-76360000D01*
G75*
G02*
X60630000Y-76273100I0J86900D01*
G01*
X60630000Y-75346900D01*
G75*
G02*
X60716900Y-75260000I86900J0D01*
G01*
X61643100Y-75260000D01*
G75*
G02*
X61730000Y-75346900I0J-86900D01*
G01*
X61730000Y-76273100D01*
G75*
G02*
X61643100Y-76360000I-86900J0D01*
G01*
G37*
G36*
G01*
X64643100Y-77860000D02*
X63716900Y-77860000D01*
G75*
G02*
X63630000Y-77773100I0J86900D01*
G01*
X63630000Y-76846900D01*
G75*
G02*
X63716900Y-76760000I86900J0D01*
G01*
X64643100Y-76760000D01*
G75*
G02*
X64730000Y-76846900I0J-86900D01*
G01*
X64730000Y-77773100D01*
G75*
G02*
X64643100Y-77860000I-86900J0D01*
G01*
G37*
G36*
G01*
X54646100Y-69350000D02*
X55403900Y-69350000D01*
G75*
G02*
X55475000Y-69421100I0J-71100D01*
G01*
X55475000Y-70778900D01*
G75*
G02*
X55403900Y-70850000I-71100J0D01*
G01*
X54646100Y-70850000D01*
G75*
G02*
X54575000Y-70778900I0J71100D01*
G01*
X54575000Y-69421100D01*
G75*
G02*
X54646100Y-69350000I71100J0D01*
G01*
G37*
G36*
G01*
X55916100Y-69350000D02*
X56673900Y-69350000D01*
G75*
G02*
X56745000Y-69421100I0J-71100D01*
G01*
X56745000Y-70778900D01*
G75*
G02*
X56673900Y-70850000I-71100J0D01*
G01*
X55916100Y-70850000D01*
G75*
G02*
X55845000Y-70778900I0J71100D01*
G01*
X55845000Y-69421100D01*
G75*
G02*
X55916100Y-69350000I71100J0D01*
G01*
G37*
G36*
G01*
X57186100Y-69350000D02*
X57943900Y-69350000D01*
G75*
G02*
X58015000Y-69421100I0J-71100D01*
G01*
X58015000Y-70778900D01*
G75*
G02*
X57943900Y-70850000I-71100J0D01*
G01*
X57186100Y-70850000D01*
G75*
G02*
X57115000Y-70778900I0J71100D01*
G01*
X57115000Y-69421100D01*
G75*
G02*
X57186100Y-69350000I71100J0D01*
G01*
G37*
G36*
G01*
X58456100Y-69350000D02*
X59213900Y-69350000D01*
G75*
G02*
X59285000Y-69421100I0J-71100D01*
G01*
X59285000Y-70778900D01*
G75*
G02*
X59213900Y-70850000I-71100J0D01*
G01*
X58456100Y-70850000D01*
G75*
G02*
X58385000Y-70778900I0J71100D01*
G01*
X58385000Y-69421100D01*
G75*
G02*
X58456100Y-69350000I71100J0D01*
G01*
G37*
G36*
G01*
X59726100Y-69350000D02*
X60483900Y-69350000D01*
G75*
G02*
X60555000Y-69421100I0J-71100D01*
G01*
X60555000Y-70778900D01*
G75*
G02*
X60483900Y-70850000I-71100J0D01*
G01*
X59726100Y-70850000D01*
G75*
G02*
X59655000Y-70778900I0J71100D01*
G01*
X59655000Y-69421100D01*
G75*
G02*
X59726100Y-69350000I71100J0D01*
G01*
G37*
G36*
G01*
X60996100Y-69350000D02*
X61753900Y-69350000D01*
G75*
G02*
X61825000Y-69421100I0J-71100D01*
G01*
X61825000Y-70778900D01*
G75*
G02*
X61753900Y-70850000I-71100J0D01*
G01*
X60996100Y-70850000D01*
G75*
G02*
X60925000Y-70778900I0J71100D01*
G01*
X60925000Y-69421100D01*
G75*
G02*
X60996100Y-69350000I71100J0D01*
G01*
G37*
G36*
G01*
X62266100Y-69350000D02*
X63023900Y-69350000D01*
G75*
G02*
X63095000Y-69421100I0J-71100D01*
G01*
X63095000Y-70778900D01*
G75*
G02*
X63023900Y-70850000I-71100J0D01*
G01*
X62266100Y-70850000D01*
G75*
G02*
X62195000Y-70778900I0J71100D01*
G01*
X62195000Y-69421100D01*
G75*
G02*
X62266100Y-69350000I71100J0D01*
G01*
G37*
G36*
G01*
X63536100Y-69350000D02*
X64293900Y-69350000D01*
G75*
G02*
X64365000Y-69421100I0J-71100D01*
G01*
X64365000Y-70778900D01*
G75*
G02*
X64293900Y-70850000I-71100J0D01*
G01*
X63536100Y-70850000D01*
G75*
G02*
X63465000Y-70778900I0J71100D01*
G01*
X63465000Y-69421100D01*
G75*
G02*
X63536100Y-69350000I71100J0D01*
G01*
G37*
G36*
G01*
X64806100Y-69350000D02*
X65563900Y-69350000D01*
G75*
G02*
X65635000Y-69421100I0J-71100D01*
G01*
X65635000Y-70778900D01*
G75*
G02*
X65563900Y-70850000I-71100J0D01*
G01*
X64806100Y-70850000D01*
G75*
G02*
X64735000Y-70778900I0J71100D01*
G01*
X64735000Y-69421100D01*
G75*
G02*
X64806100Y-69350000I71100J0D01*
G01*
G37*
G36*
G01*
X66076100Y-69350000D02*
X66833900Y-69350000D01*
G75*
G02*
X66905000Y-69421100I0J-71100D01*
G01*
X66905000Y-70778900D01*
G75*
G02*
X66833900Y-70850000I-71100J0D01*
G01*
X66076100Y-70850000D01*
G75*
G02*
X66005000Y-70778900I0J71100D01*
G01*
X66005000Y-69421100D01*
G75*
G02*
X66076100Y-69350000I71100J0D01*
G01*
G37*
G36*
G01*
X67346100Y-69350000D02*
X68103900Y-69350000D01*
G75*
G02*
X68175000Y-69421100I0J-71100D01*
G01*
X68175000Y-70778900D01*
G75*
G02*
X68103900Y-70850000I-71100J0D01*
G01*
X67346100Y-70850000D01*
G75*
G02*
X67275000Y-70778900I0J71100D01*
G01*
X67275000Y-69421100D01*
G75*
G02*
X67346100Y-69350000I71100J0D01*
G01*
G37*
G36*
G01*
X68616100Y-69350000D02*
X69373900Y-69350000D01*
G75*
G02*
X69445000Y-69421100I0J-71100D01*
G01*
X69445000Y-70778900D01*
G75*
G02*
X69373900Y-70850000I-71100J0D01*
G01*
X68616100Y-70850000D01*
G75*
G02*
X68545000Y-70778900I0J71100D01*
G01*
X68545000Y-69421100D01*
G75*
G02*
X68616100Y-69350000I71100J0D01*
G01*
G37*
G36*
G01*
X69886100Y-69350000D02*
X70643900Y-69350000D01*
G75*
G02*
X70715000Y-69421100I0J-71100D01*
G01*
X70715000Y-70778900D01*
G75*
G02*
X70643900Y-70850000I-71100J0D01*
G01*
X69886100Y-70850000D01*
G75*
G02*
X69815000Y-70778900I0J71100D01*
G01*
X69815000Y-69421100D01*
G75*
G02*
X69886100Y-69350000I71100J0D01*
G01*
G37*
G36*
G01*
X71156100Y-69350000D02*
X71913900Y-69350000D01*
G75*
G02*
X71985000Y-69421100I0J-71100D01*
G01*
X71985000Y-70778900D01*
G75*
G02*
X71913900Y-70850000I-71100J0D01*
G01*
X71156100Y-70850000D01*
G75*
G02*
X71085000Y-70778900I0J71100D01*
G01*
X71085000Y-69421100D01*
G75*
G02*
X71156100Y-69350000I71100J0D01*
G01*
G37*
G36*
G01*
X54646100Y-86850000D02*
X55403900Y-86850000D01*
G75*
G02*
X55475000Y-86921100I0J-71100D01*
G01*
X55475000Y-88278900D01*
G75*
G02*
X55403900Y-88350000I-71100J0D01*
G01*
X54646100Y-88350000D01*
G75*
G02*
X54575000Y-88278900I0J71100D01*
G01*
X54575000Y-86921100D01*
G75*
G02*
X54646100Y-86850000I71100J0D01*
G01*
G37*
G36*
G01*
X55916100Y-86850000D02*
X56673900Y-86850000D01*
G75*
G02*
X56745000Y-86921100I0J-71100D01*
G01*
X56745000Y-88278900D01*
G75*
G02*
X56673900Y-88350000I-71100J0D01*
G01*
X55916100Y-88350000D01*
G75*
G02*
X55845000Y-88278900I0J71100D01*
G01*
X55845000Y-86921100D01*
G75*
G02*
X55916100Y-86850000I71100J0D01*
G01*
G37*
G36*
G01*
X57186100Y-86850000D02*
X57943900Y-86850000D01*
G75*
G02*
X58015000Y-86921100I0J-71100D01*
G01*
X58015000Y-88278900D01*
G75*
G02*
X57943900Y-88350000I-71100J0D01*
G01*
X57186100Y-88350000D01*
G75*
G02*
X57115000Y-88278900I0J71100D01*
G01*
X57115000Y-86921100D01*
G75*
G02*
X57186100Y-86850000I71100J0D01*
G01*
G37*
G36*
G01*
X58456100Y-86850000D02*
X59213900Y-86850000D01*
G75*
G02*
X59285000Y-86921100I0J-71100D01*
G01*
X59285000Y-88278900D01*
G75*
G02*
X59213900Y-88350000I-71100J0D01*
G01*
X58456100Y-88350000D01*
G75*
G02*
X58385000Y-88278900I0J71100D01*
G01*
X58385000Y-86921100D01*
G75*
G02*
X58456100Y-86850000I71100J0D01*
G01*
G37*
G36*
G01*
X68616100Y-86850000D02*
X69373900Y-86850000D01*
G75*
G02*
X69445000Y-86921100I0J-71100D01*
G01*
X69445000Y-88278900D01*
G75*
G02*
X69373900Y-88350000I-71100J0D01*
G01*
X68616100Y-88350000D01*
G75*
G02*
X68545000Y-88278900I0J71100D01*
G01*
X68545000Y-86921100D01*
G75*
G02*
X68616100Y-86850000I71100J0D01*
G01*
G37*
G36*
G01*
X60996100Y-86850000D02*
X61753900Y-86850000D01*
G75*
G02*
X61825000Y-86921100I0J-71100D01*
G01*
X61825000Y-88278900D01*
G75*
G02*
X61753900Y-88350000I-71100J0D01*
G01*
X60996100Y-88350000D01*
G75*
G02*
X60925000Y-88278900I0J71100D01*
G01*
X60925000Y-86921100D01*
G75*
G02*
X60996100Y-86850000I71100J0D01*
G01*
G37*
G36*
G01*
X67346100Y-86850000D02*
X68103900Y-86850000D01*
G75*
G02*
X68175000Y-86921100I0J-71100D01*
G01*
X68175000Y-88278900D01*
G75*
G02*
X68103900Y-88350000I-71100J0D01*
G01*
X67346100Y-88350000D01*
G75*
G02*
X67275000Y-88278900I0J71100D01*
G01*
X67275000Y-86921100D01*
G75*
G02*
X67346100Y-86850000I71100J0D01*
G01*
G37*
G36*
G01*
X71156100Y-86850000D02*
X71913900Y-86850000D01*
G75*
G02*
X71985000Y-86921100I0J-71100D01*
G01*
X71985000Y-88278900D01*
G75*
G02*
X71913900Y-88350000I-71100J0D01*
G01*
X71156100Y-88350000D01*
G75*
G02*
X71085000Y-88278900I0J71100D01*
G01*
X71085000Y-86921100D01*
G75*
G02*
X71156100Y-86850000I71100J0D01*
G01*
G37*
G36*
G01*
X69886100Y-86850000D02*
X70643900Y-86850000D01*
G75*
G02*
X70715000Y-86921100I0J-71100D01*
G01*
X70715000Y-88278900D01*
G75*
G02*
X70643900Y-88350000I-71100J0D01*
G01*
X69886100Y-88350000D01*
G75*
G02*
X69815000Y-88278900I0J71100D01*
G01*
X69815000Y-86921100D01*
G75*
G02*
X69886100Y-86850000I71100J0D01*
G01*
G37*
G36*
G01*
X62266100Y-86850000D02*
X63023900Y-86850000D01*
G75*
G02*
X63095000Y-86921100I0J-71100D01*
G01*
X63095000Y-88278900D01*
G75*
G02*
X63023900Y-88350000I-71100J0D01*
G01*
X62266100Y-88350000D01*
G75*
G02*
X62195000Y-88278900I0J71100D01*
G01*
X62195000Y-86921100D01*
G75*
G02*
X62266100Y-86850000I71100J0D01*
G01*
G37*
G36*
G01*
X59726100Y-86850000D02*
X60483900Y-86850000D01*
G75*
G02*
X60555000Y-86921100I0J-71100D01*
G01*
X60555000Y-88278900D01*
G75*
G02*
X60483900Y-88350000I-71100J0D01*
G01*
X59726100Y-88350000D01*
G75*
G02*
X59655000Y-88278900I0J71100D01*
G01*
X59655000Y-86921100D01*
G75*
G02*
X59726100Y-86850000I71100J0D01*
G01*
G37*
G36*
G01*
X66076100Y-86850000D02*
X66833900Y-86850000D01*
G75*
G02*
X66905000Y-86921100I0J-71100D01*
G01*
X66905000Y-88278900D01*
G75*
G02*
X66833900Y-88350000I-71100J0D01*
G01*
X66076100Y-88350000D01*
G75*
G02*
X66005000Y-88278900I0J71100D01*
G01*
X66005000Y-86921100D01*
G75*
G02*
X66076100Y-86850000I71100J0D01*
G01*
G37*
G36*
G01*
X64806100Y-86850000D02*
X65563900Y-86850000D01*
G75*
G02*
X65635000Y-86921100I0J-71100D01*
G01*
X65635000Y-88278900D01*
G75*
G02*
X65563900Y-88350000I-71100J0D01*
G01*
X64806100Y-88350000D01*
G75*
G02*
X64735000Y-88278900I0J71100D01*
G01*
X64735000Y-86921100D01*
G75*
G02*
X64806100Y-86850000I71100J0D01*
G01*
G37*
G36*
G01*
X63536100Y-86850000D02*
X64293900Y-86850000D01*
G75*
G02*
X64365000Y-86921100I0J-71100D01*
G01*
X64365000Y-88278900D01*
G75*
G02*
X64293900Y-88350000I-71100J0D01*
G01*
X63536100Y-88350000D01*
G75*
G02*
X63465000Y-88278900I0J71100D01*
G01*
X63465000Y-86921100D01*
G75*
G02*
X63536100Y-86850000I71100J0D01*
G01*
G37*
G36*
G01*
X73525000Y-71621100D02*
X73525000Y-72378900D01*
G75*
G02*
X73453900Y-72450000I-71100J0D01*
G01*
X72096100Y-72450000D01*
G75*
G02*
X72025000Y-72378900I0J71100D01*
G01*
X72025000Y-71621100D01*
G75*
G02*
X72096100Y-71550000I71100J0D01*
G01*
X73453900Y-71550000D01*
G75*
G02*
X73525000Y-71621100I0J-71100D01*
G01*
G37*
G36*
G01*
X73525000Y-72891100D02*
X73525000Y-73648900D01*
G75*
G02*
X73453900Y-73720000I-71100J0D01*
G01*
X72096100Y-73720000D01*
G75*
G02*
X72025000Y-73648900I0J71100D01*
G01*
X72025000Y-72891100D01*
G75*
G02*
X72096100Y-72820000I71100J0D01*
G01*
X73453900Y-72820000D01*
G75*
G02*
X73525000Y-72891100I0J-71100D01*
G01*
G37*
G36*
G01*
X73525000Y-74161100D02*
X73525000Y-74918900D01*
G75*
G02*
X73453900Y-74990000I-71100J0D01*
G01*
X72096100Y-74990000D01*
G75*
G02*
X72025000Y-74918900I0J71100D01*
G01*
X72025000Y-74161100D01*
G75*
G02*
X72096100Y-74090000I71100J0D01*
G01*
X73453900Y-74090000D01*
G75*
G02*
X73525000Y-74161100I0J-71100D01*
G01*
G37*
G36*
G01*
X73525000Y-75431100D02*
X73525000Y-76188900D01*
G75*
G02*
X73453900Y-76260000I-71100J0D01*
G01*
X72096100Y-76260000D01*
G75*
G02*
X72025000Y-76188900I0J71100D01*
G01*
X72025000Y-75431100D01*
G75*
G02*
X72096100Y-75360000I71100J0D01*
G01*
X73453900Y-75360000D01*
G75*
G02*
X73525000Y-75431100I0J-71100D01*
G01*
G37*
G36*
G01*
X73525000Y-76701100D02*
X73525000Y-77458900D01*
G75*
G02*
X73453900Y-77530000I-71100J0D01*
G01*
X72096100Y-77530000D01*
G75*
G02*
X72025000Y-77458900I0J71100D01*
G01*
X72025000Y-76701100D01*
G75*
G02*
X72096100Y-76630000I71100J0D01*
G01*
X73453900Y-76630000D01*
G75*
G02*
X73525000Y-76701100I0J-71100D01*
G01*
G37*
G36*
G01*
X73525000Y-77971100D02*
X73525000Y-78728900D01*
G75*
G02*
X73453900Y-78800000I-71100J0D01*
G01*
X72096100Y-78800000D01*
G75*
G02*
X72025000Y-78728900I0J71100D01*
G01*
X72025000Y-77971100D01*
G75*
G02*
X72096100Y-77900000I71100J0D01*
G01*
X73453900Y-77900000D01*
G75*
G02*
X73525000Y-77971100I0J-71100D01*
G01*
G37*
G36*
G01*
X73525000Y-79241100D02*
X73525000Y-79998900D01*
G75*
G02*
X73453900Y-80070000I-71100J0D01*
G01*
X72096100Y-80070000D01*
G75*
G02*
X72025000Y-79998900I0J71100D01*
G01*
X72025000Y-79241100D01*
G75*
G02*
X72096100Y-79170000I71100J0D01*
G01*
X73453900Y-79170000D01*
G75*
G02*
X73525000Y-79241100I0J-71100D01*
G01*
G37*
G36*
G01*
X73525000Y-80511100D02*
X73525000Y-81268900D01*
G75*
G02*
X73453900Y-81340000I-71100J0D01*
G01*
X72096100Y-81340000D01*
G75*
G02*
X72025000Y-81268900I0J71100D01*
G01*
X72025000Y-80511100D01*
G75*
G02*
X72096100Y-80440000I71100J0D01*
G01*
X73453900Y-80440000D01*
G75*
G02*
X73525000Y-80511100I0J-71100D01*
G01*
G37*
G36*
G01*
X73525000Y-81781100D02*
X73525000Y-82538900D01*
G75*
G02*
X73453900Y-82610000I-71100J0D01*
G01*
X72096100Y-82610000D01*
G75*
G02*
X72025000Y-82538900I0J71100D01*
G01*
X72025000Y-81781100D01*
G75*
G02*
X72096100Y-81710000I71100J0D01*
G01*
X73453900Y-81710000D01*
G75*
G02*
X73525000Y-81781100I0J-71100D01*
G01*
G37*
G36*
G01*
X73525000Y-83051100D02*
X73525000Y-83808900D01*
G75*
G02*
X73453900Y-83880000I-71100J0D01*
G01*
X72096100Y-83880000D01*
G75*
G02*
X72025000Y-83808900I0J71100D01*
G01*
X72025000Y-83051100D01*
G75*
G02*
X72096100Y-82980000I71100J0D01*
G01*
X73453900Y-82980000D01*
G75*
G02*
X73525000Y-83051100I0J-71100D01*
G01*
G37*
G36*
G01*
X73525000Y-84321100D02*
X73525000Y-85078900D01*
G75*
G02*
X73453900Y-85150000I-71100J0D01*
G01*
X72096100Y-85150000D01*
G75*
G02*
X72025000Y-85078900I0J71100D01*
G01*
X72025000Y-84321100D01*
G75*
G02*
X72096100Y-84250000I71100J0D01*
G01*
X73453900Y-84250000D01*
G75*
G02*
X73525000Y-84321100I0J-71100D01*
G01*
G37*
G36*
G01*
X73525000Y-85591100D02*
X73525000Y-86348900D01*
G75*
G02*
X73453900Y-86420000I-71100J0D01*
G01*
X72096100Y-86420000D01*
G75*
G02*
X72025000Y-86348900I0J71100D01*
G01*
X72025000Y-85591100D01*
G75*
G02*
X72096100Y-85520000I71100J0D01*
G01*
X73453900Y-85520000D01*
G75*
G02*
X73525000Y-85591100I0J-71100D01*
G01*
G37*
%TD*%
%TO.C,C106*%
G36*
G01*
X111400000Y-74650000D02*
X111400000Y-74150000D01*
G75*
G02*
X111625000Y-73925000I225000J0D01*
G01*
X112075000Y-73925000D01*
G75*
G02*
X112300000Y-74150000I0J-225000D01*
G01*
X112300000Y-74650000D01*
G75*
G02*
X112075000Y-74875000I-225000J0D01*
G01*
X111625000Y-74875000D01*
G75*
G02*
X111400000Y-74650000I0J225000D01*
G01*
G37*
G36*
G01*
X112950000Y-74650000D02*
X112950000Y-74150000D01*
G75*
G02*
X113175000Y-73925000I225000J0D01*
G01*
X113625000Y-73925000D01*
G75*
G02*
X113850000Y-74150000I0J-225000D01*
G01*
X113850000Y-74650000D01*
G75*
G02*
X113625000Y-74875000I-225000J0D01*
G01*
X113175000Y-74875000D01*
G75*
G02*
X112950000Y-74650000I0J225000D01*
G01*
G37*
%TD*%
%TO.C,R106*%
G36*
G01*
X116445000Y-70376000D02*
X116445000Y-69826000D01*
G75*
G02*
X116645000Y-69626000I200000J0D01*
G01*
X117045000Y-69626000D01*
G75*
G02*
X117245000Y-69826000I0J-200000D01*
G01*
X117245000Y-70376000D01*
G75*
G02*
X117045000Y-70576000I-200000J0D01*
G01*
X116645000Y-70576000D01*
G75*
G02*
X116445000Y-70376000I0J200000D01*
G01*
G37*
G36*
G01*
X114795000Y-70376000D02*
X114795000Y-69826000D01*
G75*
G02*
X114995000Y-69626000I200000J0D01*
G01*
X115395000Y-69626000D01*
G75*
G02*
X115595000Y-69826000I0J-200000D01*
G01*
X115595000Y-70376000D01*
G75*
G02*
X115395000Y-70576000I-200000J0D01*
G01*
X114995000Y-70576000D01*
G75*
G02*
X114795000Y-70376000I0J200000D01*
G01*
G37*
%TD*%
%TO.C,R107*%
G36*
G01*
X120446000Y-69826000D02*
X120446000Y-70376000D01*
G75*
G02*
X120246000Y-70576000I-200000J0D01*
G01*
X119846000Y-70576000D01*
G75*
G02*
X119646000Y-70376000I0J200000D01*
G01*
X119646000Y-69826000D01*
G75*
G02*
X119846000Y-69626000I200000J0D01*
G01*
X120246000Y-69626000D01*
G75*
G02*
X120446000Y-69826000I0J-200000D01*
G01*
G37*
G36*
G01*
X118796000Y-69826000D02*
X118796000Y-70376000D01*
G75*
G02*
X118596000Y-70576000I-200000J0D01*
G01*
X118196000Y-70576000D01*
G75*
G02*
X117996000Y-70376000I0J200000D01*
G01*
X117996000Y-69826000D01*
G75*
G02*
X118196000Y-69626000I200000J0D01*
G01*
X118596000Y-69626000D01*
G75*
G02*
X118796000Y-69826000I0J-200000D01*
G01*
G37*
%TD*%
D17*
%TO.C,U104*%
X98700000Y-85475000D03*
X99200000Y-85475000D03*
X99700000Y-85475000D03*
D18*
X100487500Y-85200000D03*
X100487500Y-84700000D03*
X100487500Y-84200000D03*
X100487500Y-83700000D03*
X100487500Y-83200000D03*
D17*
X99700000Y-82925000D03*
X99200000Y-82925000D03*
X98700000Y-82925000D03*
D18*
X97912500Y-83200000D03*
X97912500Y-83700000D03*
X97912500Y-84200000D03*
X97912500Y-84700000D03*
X97912500Y-85200000D03*
%TD*%
%TO.C,J102*%
G36*
G01*
X104550000Y-81850000D02*
X104550000Y-78850000D01*
G75*
G02*
X104800000Y-78600000I250000J0D01*
G01*
X105300000Y-78600000D01*
G75*
G02*
X105550000Y-78850000I0J-250000D01*
G01*
X105550000Y-81850000D01*
G75*
G02*
X105300000Y-82100000I-250000J0D01*
G01*
X104800000Y-82100000D01*
G75*
G02*
X104550000Y-81850000I0J250000D01*
G01*
G37*
G36*
G01*
X106550000Y-81850000D02*
X106550000Y-78850000D01*
G75*
G02*
X106800000Y-78600000I250000J0D01*
G01*
X107300000Y-78600000D01*
G75*
G02*
X107550000Y-78850000I0J-250000D01*
G01*
X107550000Y-81850000D01*
G75*
G02*
X107300000Y-82100000I-250000J0D01*
G01*
X106800000Y-82100000D01*
G75*
G02*
X106550000Y-81850000I0J250000D01*
G01*
G37*
G36*
G01*
X101950000Y-76050000D02*
X101950000Y-73150000D01*
G75*
G02*
X102200000Y-72900000I250000J0D01*
G01*
X103200000Y-72900000D01*
G75*
G02*
X103450000Y-73150000I0J-250000D01*
G01*
X103450000Y-76050000D01*
G75*
G02*
X103200000Y-76300000I-250000J0D01*
G01*
X102200000Y-76300000D01*
G75*
G02*
X101950000Y-76050000I0J250000D01*
G01*
G37*
G36*
G01*
X108650000Y-76050000D02*
X108650000Y-73150000D01*
G75*
G02*
X108900000Y-72900000I250000J0D01*
G01*
X109900000Y-72900000D01*
G75*
G02*
X110150000Y-73150000I0J-250000D01*
G01*
X110150000Y-76050000D01*
G75*
G02*
X109900000Y-76300000I-250000J0D01*
G01*
X108900000Y-76300000D01*
G75*
G02*
X108650000Y-76050000I0J250000D01*
G01*
G37*
%TD*%
D19*
%TO.C,J105*%
X95300000Y-68870000D03*
D20*
X89550000Y-80360000D03*
D21*
X89070000Y-74770000D03*
X89070000Y-75870000D03*
X89070000Y-76970000D03*
X89070000Y-78070000D03*
X89070000Y-79170000D03*
X89070000Y-73670000D03*
X89070000Y-72570000D03*
X89070000Y-71470000D03*
D22*
X89200000Y-69035000D03*
D23*
X99975000Y-78330000D03*
X99975000Y-72360000D03*
D19*
X99000000Y-68860000D03*
%TD*%
%TO.C,R114*%
G36*
G01*
X83225000Y-67925000D02*
X83225000Y-68475000D01*
G75*
G02*
X83025000Y-68675000I-200000J0D01*
G01*
X82625000Y-68675000D01*
G75*
G02*
X82425000Y-68475000I0J200000D01*
G01*
X82425000Y-67925000D01*
G75*
G02*
X82625000Y-67725000I200000J0D01*
G01*
X83025000Y-67725000D01*
G75*
G02*
X83225000Y-67925000I0J-200000D01*
G01*
G37*
G36*
G01*
X81575000Y-67925000D02*
X81575000Y-68475000D01*
G75*
G02*
X81375000Y-68675000I-200000J0D01*
G01*
X80975000Y-68675000D01*
G75*
G02*
X80775000Y-68475000I0J200000D01*
G01*
X80775000Y-67925000D01*
G75*
G02*
X80975000Y-67725000I200000J0D01*
G01*
X81375000Y-67725000D01*
G75*
G02*
X81575000Y-67925000I0J-200000D01*
G01*
G37*
%TD*%
%TO.C,C107*%
G36*
G01*
X93175000Y-82450000D02*
X93175000Y-81950000D01*
G75*
G02*
X93400000Y-81725000I225000J0D01*
G01*
X93850000Y-81725000D01*
G75*
G02*
X94075000Y-81950000I0J-225000D01*
G01*
X94075000Y-82450000D01*
G75*
G02*
X93850000Y-82675000I-225000J0D01*
G01*
X93400000Y-82675000D01*
G75*
G02*
X93175000Y-82450000I0J225000D01*
G01*
G37*
G36*
G01*
X94725000Y-82450000D02*
X94725000Y-81950000D01*
G75*
G02*
X94950000Y-81725000I225000J0D01*
G01*
X95400000Y-81725000D01*
G75*
G02*
X95625000Y-81950000I0J-225000D01*
G01*
X95625000Y-82450000D01*
G75*
G02*
X95400000Y-82675000I-225000J0D01*
G01*
X94950000Y-82675000D01*
G75*
G02*
X94725000Y-82450000I0J225000D01*
G01*
G37*
%TD*%
%TO.C,C108*%
G36*
G01*
X94250000Y-84350000D02*
X94250000Y-84850000D01*
G75*
G02*
X94025000Y-85075000I-225000J0D01*
G01*
X93575000Y-85075000D01*
G75*
G02*
X93350000Y-84850000I0J225000D01*
G01*
X93350000Y-84350000D01*
G75*
G02*
X93575000Y-84125000I225000J0D01*
G01*
X94025000Y-84125000D01*
G75*
G02*
X94250000Y-84350000I0J-225000D01*
G01*
G37*
G36*
G01*
X95800000Y-84350000D02*
X95800000Y-84850000D01*
G75*
G02*
X95575000Y-85075000I-225000J0D01*
G01*
X95125000Y-85075000D01*
G75*
G02*
X94900000Y-84850000I0J225000D01*
G01*
X94900000Y-84350000D01*
G75*
G02*
X95125000Y-84125000I225000J0D01*
G01*
X95575000Y-84125000D01*
G75*
G02*
X95800000Y-84350000I0J-225000D01*
G01*
G37*
%TD*%
D24*
%TO.C,J106*%
X91600000Y-84940000D03*
X91600000Y-82400000D03*
%TD*%
%TO.C,L101*%
G36*
G01*
X84100000Y-82781250D02*
X84100000Y-82018750D01*
G75*
G02*
X84318750Y-81800000I218750J0D01*
G01*
X84756250Y-81800000D01*
G75*
G02*
X84975000Y-82018750I0J-218750D01*
G01*
X84975000Y-82781250D01*
G75*
G02*
X84756250Y-83000000I-218750J0D01*
G01*
X84318750Y-83000000D01*
G75*
G02*
X84100000Y-82781250I0J218750D01*
G01*
G37*
G36*
G01*
X86225000Y-82781250D02*
X86225000Y-82018750D01*
G75*
G02*
X86443750Y-81800000I218750J0D01*
G01*
X86881250Y-81800000D01*
G75*
G02*
X87100000Y-82018750I0J-218750D01*
G01*
X87100000Y-82781250D01*
G75*
G02*
X86881250Y-83000000I-218750J0D01*
G01*
X86443750Y-83000000D01*
G75*
G02*
X86225000Y-82781250I0J218750D01*
G01*
G37*
%TD*%
%TO.C,L102*%
G36*
G01*
X86225000Y-84581250D02*
X86225000Y-83818750D01*
G75*
G02*
X86443750Y-83600000I218750J0D01*
G01*
X86881250Y-83600000D01*
G75*
G02*
X87100000Y-83818750I0J-218750D01*
G01*
X87100000Y-84581250D01*
G75*
G02*
X86881250Y-84800000I-218750J0D01*
G01*
X86443750Y-84800000D01*
G75*
G02*
X86225000Y-84581250I0J218750D01*
G01*
G37*
G36*
G01*
X84100000Y-84581250D02*
X84100000Y-83818750D01*
G75*
G02*
X84318750Y-83600000I218750J0D01*
G01*
X84756250Y-83600000D01*
G75*
G02*
X84975000Y-83818750I0J-218750D01*
G01*
X84975000Y-84581250D01*
G75*
G02*
X84756250Y-84800000I-218750J0D01*
G01*
X84318750Y-84800000D01*
G75*
G02*
X84100000Y-84581250I0J218750D01*
G01*
G37*
%TD*%
%TO.C,R115*%
G36*
G01*
X101750000Y-69675000D02*
X101750000Y-69125000D01*
G75*
G02*
X101950000Y-68925000I200000J0D01*
G01*
X102350000Y-68925000D01*
G75*
G02*
X102550000Y-69125000I0J-200000D01*
G01*
X102550000Y-69675000D01*
G75*
G02*
X102350000Y-69875000I-200000J0D01*
G01*
X101950000Y-69875000D01*
G75*
G02*
X101750000Y-69675000I0J200000D01*
G01*
G37*
G36*
G01*
X103400000Y-69675000D02*
X103400000Y-69125000D01*
G75*
G02*
X103600000Y-68925000I200000J0D01*
G01*
X104000000Y-68925000D01*
G75*
G02*
X104200000Y-69125000I0J-200000D01*
G01*
X104200000Y-69675000D01*
G75*
G02*
X104000000Y-69875000I-200000J0D01*
G01*
X103600000Y-69875000D01*
G75*
G02*
X103400000Y-69675000I0J200000D01*
G01*
G37*
%TD*%
%TO.C,R116*%
G36*
G01*
X95390000Y-88970000D02*
X95390000Y-88420000D01*
G75*
G02*
X95590000Y-88220000I200000J0D01*
G01*
X95990000Y-88220000D01*
G75*
G02*
X96190000Y-88420000I0J-200000D01*
G01*
X96190000Y-88970000D01*
G75*
G02*
X95990000Y-89170000I-200000J0D01*
G01*
X95590000Y-89170000D01*
G75*
G02*
X95390000Y-88970000I0J200000D01*
G01*
G37*
G36*
G01*
X93740000Y-88970000D02*
X93740000Y-88420000D01*
G75*
G02*
X93940000Y-88220000I200000J0D01*
G01*
X94340000Y-88220000D01*
G75*
G02*
X94540000Y-88420000I0J-200000D01*
G01*
X94540000Y-88970000D01*
G75*
G02*
X94340000Y-89170000I-200000J0D01*
G01*
X93940000Y-89170000D01*
G75*
G02*
X93740000Y-88970000I0J200000D01*
G01*
G37*
%TD*%
%TO.C,R117*%
G36*
G01*
X96200000Y-86725000D02*
X96200000Y-87275000D01*
G75*
G02*
X96000000Y-87475000I-200000J0D01*
G01*
X95600000Y-87475000D01*
G75*
G02*
X95400000Y-87275000I0J200000D01*
G01*
X95400000Y-86725000D01*
G75*
G02*
X95600000Y-86525000I200000J0D01*
G01*
X96000000Y-86525000D01*
G75*
G02*
X96200000Y-86725000I0J-200000D01*
G01*
G37*
G36*
G01*
X94550000Y-86725000D02*
X94550000Y-87275000D01*
G75*
G02*
X94350000Y-87475000I-200000J0D01*
G01*
X93950000Y-87475000D01*
G75*
G02*
X93750000Y-87275000I0J200000D01*
G01*
X93750000Y-86725000D01*
G75*
G02*
X93950000Y-86525000I200000J0D01*
G01*
X94350000Y-86525000D01*
G75*
G02*
X94550000Y-86725000I0J-200000D01*
G01*
G37*
%TD*%
%TO.C,U107*%
G36*
G01*
X78566100Y-84665000D02*
X78333900Y-84665000D01*
G75*
G02*
X78315000Y-84646100I0J18900D01*
G01*
X78315000Y-83823900D01*
G75*
G02*
X78333900Y-83805000I18900J0D01*
G01*
X78566100Y-83805000D01*
G75*
G02*
X78585000Y-83823900I0J-18900D01*
G01*
X78585000Y-84646100D01*
G75*
G02*
X78566100Y-84665000I-18900J0D01*
G01*
G37*
G36*
G01*
X79066100Y-84665000D02*
X78833900Y-84665000D01*
G75*
G02*
X78815000Y-84646100I0J18900D01*
G01*
X78815000Y-83823900D01*
G75*
G02*
X78833900Y-83805000I18900J0D01*
G01*
X79066100Y-83805000D01*
G75*
G02*
X79085000Y-83823900I0J-18900D01*
G01*
X79085000Y-84646100D01*
G75*
G02*
X79066100Y-84665000I-18900J0D01*
G01*
G37*
G36*
G01*
X79566100Y-84665000D02*
X79333900Y-84665000D01*
G75*
G02*
X79315000Y-84646100I0J18900D01*
G01*
X79315000Y-83823900D01*
G75*
G02*
X79333900Y-83805000I18900J0D01*
G01*
X79566100Y-83805000D01*
G75*
G02*
X79585000Y-83823900I0J-18900D01*
G01*
X79585000Y-84646100D01*
G75*
G02*
X79566100Y-84665000I-18900J0D01*
G01*
G37*
G36*
G01*
X80066100Y-84665000D02*
X79833900Y-84665000D01*
G75*
G02*
X79815000Y-84646100I0J18900D01*
G01*
X79815000Y-83823900D01*
G75*
G02*
X79833900Y-83805000I18900J0D01*
G01*
X80066100Y-83805000D01*
G75*
G02*
X80085000Y-83823900I0J-18900D01*
G01*
X80085000Y-84646100D01*
G75*
G02*
X80066100Y-84665000I-18900J0D01*
G01*
G37*
G36*
G01*
X81065000Y-83433900D02*
X81065000Y-83666100D01*
G75*
G02*
X81046100Y-83685000I-18900J0D01*
G01*
X80223900Y-83685000D01*
G75*
G02*
X80205000Y-83666100I0J18900D01*
G01*
X80205000Y-83433900D01*
G75*
G02*
X80223900Y-83415000I18900J0D01*
G01*
X81046100Y-83415000D01*
G75*
G02*
X81065000Y-83433900I0J-18900D01*
G01*
G37*
G36*
G01*
X81065000Y-82933900D02*
X81065000Y-83166100D01*
G75*
G02*
X81046100Y-83185000I-18900J0D01*
G01*
X80223900Y-83185000D01*
G75*
G02*
X80205000Y-83166100I0J18900D01*
G01*
X80205000Y-82933900D01*
G75*
G02*
X80223900Y-82915000I18900J0D01*
G01*
X81046100Y-82915000D01*
G75*
G02*
X81065000Y-82933900I0J-18900D01*
G01*
G37*
G36*
G01*
X81065000Y-82433900D02*
X81065000Y-82666100D01*
G75*
G02*
X81046100Y-82685000I-18900J0D01*
G01*
X80223900Y-82685000D01*
G75*
G02*
X80205000Y-82666100I0J18900D01*
G01*
X80205000Y-82433900D01*
G75*
G02*
X80223900Y-82415000I18900J0D01*
G01*
X81046100Y-82415000D01*
G75*
G02*
X81065000Y-82433900I0J-18900D01*
G01*
G37*
G36*
G01*
X81065000Y-81933900D02*
X81065000Y-82166100D01*
G75*
G02*
X81046100Y-82185000I-18900J0D01*
G01*
X80223900Y-82185000D01*
G75*
G02*
X80205000Y-82166100I0J18900D01*
G01*
X80205000Y-81933900D01*
G75*
G02*
X80223900Y-81915000I18900J0D01*
G01*
X81046100Y-81915000D01*
G75*
G02*
X81065000Y-81933900I0J-18900D01*
G01*
G37*
G36*
G01*
X79833900Y-80935000D02*
X80066100Y-80935000D01*
G75*
G02*
X80085000Y-80953900I0J-18900D01*
G01*
X80085000Y-81776100D01*
G75*
G02*
X80066100Y-81795000I-18900J0D01*
G01*
X79833900Y-81795000D01*
G75*
G02*
X79815000Y-81776100I0J18900D01*
G01*
X79815000Y-80953900D01*
G75*
G02*
X79833900Y-80935000I18900J0D01*
G01*
G37*
G36*
G01*
X79333900Y-80935000D02*
X79566100Y-80935000D01*
G75*
G02*
X79585000Y-80953900I0J-18900D01*
G01*
X79585000Y-81776100D01*
G75*
G02*
X79566100Y-81795000I-18900J0D01*
G01*
X79333900Y-81795000D01*
G75*
G02*
X79315000Y-81776100I0J18900D01*
G01*
X79315000Y-80953900D01*
G75*
G02*
X79333900Y-80935000I18900J0D01*
G01*
G37*
G36*
G01*
X78833900Y-80935000D02*
X79066100Y-80935000D01*
G75*
G02*
X79085000Y-80953900I0J-18900D01*
G01*
X79085000Y-81776100D01*
G75*
G02*
X79066100Y-81795000I-18900J0D01*
G01*
X78833900Y-81795000D01*
G75*
G02*
X78815000Y-81776100I0J18900D01*
G01*
X78815000Y-80953900D01*
G75*
G02*
X78833900Y-80935000I18900J0D01*
G01*
G37*
G36*
G01*
X78333900Y-80935000D02*
X78566100Y-80935000D01*
G75*
G02*
X78585000Y-80953900I0J-18900D01*
G01*
X78585000Y-81776100D01*
G75*
G02*
X78566100Y-81795000I-18900J0D01*
G01*
X78333900Y-81795000D01*
G75*
G02*
X78315000Y-81776100I0J18900D01*
G01*
X78315000Y-80953900D01*
G75*
G02*
X78333900Y-80935000I18900J0D01*
G01*
G37*
G36*
G01*
X77335000Y-82166100D02*
X77335000Y-81933900D01*
G75*
G02*
X77353900Y-81915000I18900J0D01*
G01*
X78176100Y-81915000D01*
G75*
G02*
X78195000Y-81933900I0J-18900D01*
G01*
X78195000Y-82166100D01*
G75*
G02*
X78176100Y-82185000I-18900J0D01*
G01*
X77353900Y-82185000D01*
G75*
G02*
X77335000Y-82166100I0J18900D01*
G01*
G37*
G36*
G01*
X77335000Y-82666100D02*
X77335000Y-82433900D01*
G75*
G02*
X77353900Y-82415000I18900J0D01*
G01*
X78176100Y-82415000D01*
G75*
G02*
X78195000Y-82433900I0J-18900D01*
G01*
X78195000Y-82666100D01*
G75*
G02*
X78176100Y-82685000I-18900J0D01*
G01*
X77353900Y-82685000D01*
G75*
G02*
X77335000Y-82666100I0J18900D01*
G01*
G37*
G36*
G01*
X77335000Y-83166100D02*
X77335000Y-82933900D01*
G75*
G02*
X77353900Y-82915000I18900J0D01*
G01*
X78176100Y-82915000D01*
G75*
G02*
X78195000Y-82933900I0J-18900D01*
G01*
X78195000Y-83166100D01*
G75*
G02*
X78176100Y-83185000I-18900J0D01*
G01*
X77353900Y-83185000D01*
G75*
G02*
X77335000Y-83166100I0J18900D01*
G01*
G37*
G36*
G01*
X77335000Y-83666100D02*
X77335000Y-83433900D01*
G75*
G02*
X77353900Y-83415000I18900J0D01*
G01*
X78176100Y-83415000D01*
G75*
G02*
X78195000Y-83433900I0J-18900D01*
G01*
X78195000Y-83666100D01*
G75*
G02*
X78176100Y-83685000I-18900J0D01*
G01*
X77353900Y-83685000D01*
G75*
G02*
X77335000Y-83666100I0J18900D01*
G01*
G37*
%TD*%
D16*
%TO.C,U108*%
X106200000Y-88400000D03*
X106200000Y-87450000D03*
X106200000Y-86500000D03*
X108400000Y-86500000D03*
X108400000Y-88400000D03*
%TD*%
M02*
